<?xml version="1.0" encoding="UTF-8" ?>
<!DOCTYPE svg PUBLIC "-//W3C//DTD SVG 1.1//EN" "http://www.w3.org/Graphics/SVG/1.1/DTD/svg11.dtd">
<svg width="200pt" height="200pt" viewBox="0 0 1180 1180" version="1.1" xmlns="http://www.w3.org/2000/svg">
<!-- vB 883 -->
<g id="#b30104ff">
<path fill="#b30104" opacity="1.00" d=" M 416.72 16.36 C 426.75 15.00 436.90 15.65 447.00 15.50 C 452.60 15.61 458.24 15.13 463.80 16.03 C 469.51 16.83 475.32 16.08 481.03 16.92 C 485.57 17.65 490.22 17.35 494.75 18.17 C 506.74 20.15 518.91 21.11 530.73 24.00 C 537.87 25.65 545.19 26.46 552.18 28.72 C 559.32 30.95 566.71 32.32 573.74 34.94 C 638.77 55.19 697.65 93.25 745.07 141.92 C 753.44 150.22 761.52 158.81 769.17 167.78 C 770.03 168.95 771.37 169.89 771.74 171.36 C 772.07 171.76 772.74 172.57 773.07 172.97 C 778.30 178.07 782.42 184.24 786.89 190.00 C 806.41 215.94 822.91 244.18 835.73 274.01 C 847.64 301.76 856.08 330.92 861.74 360.56 C 864.95 379.24 867.61 398.09 867.75 417.08 C 869.42 430.32 868.44 443.71 868.63 457.02 C 867.65 473.21 866.88 489.42 864.75 505.51 C 862.98 515.09 862.06 524.83 859.65 534.30 C 857.58 542.04 856.36 549.98 853.99 557.64 C 851.34 566.23 849.65 575.21 845.64 583.30 C 844.88 584.24 844.51 585.40 844.63 586.61 C 844.12 591.18 841.64 595.25 840.34 599.63 C 815.56 661.40 775.58 716.75 726.01 761.02 C 717.72 768.77 709.00 776.06 699.91 782.87 C 680.83 798.01 660.13 811.02 638.73 822.59 C 614.22 835.34 588.55 846.07 561.78 853.04 C 557.33 854.27 553.02 856.03 548.44 856.76 C 540.45 858.28 532.67 860.78 524.63 862.01 C 512.74 864.01 500.83 866.18 488.78 866.88 C 477.62 868.58 466.32 868.58 455.06 868.79 C 441.73 870.51 428.37 868.54 415.02 868.49 C 405.65 868.65 396.44 866.57 387.09 866.30 C 329.70 859.25 273.40 841.00 224.04 810.64 C 207.39 800.70 191.74 789.20 176.45 777.30 C 127.92 737.10 85.72 688.27 57.74 631.51 C 45.85 607.75 36.31 582.78 29.56 557.08 C 26.43 547.34 25.03 537.18 22.60 527.27 C 20.45 513.73 18.17 500.18 17.07 486.52 C 15.99 480.07 16.76 473.48 15.65 467.04 C 15.10 453.04 15.31 439.02 15.40 425.02 C 15.31 417.99 16.61 411.05 16.47 404.02 C 18.92 377.00 22.99 349.97 30.64 323.88 C 35.96 303.19 43.88 283.28 52.58 263.80 C 65.30 235.83 81.75 209.69 100.24 185.19 C 114.51 166.98 130.18 149.89 146.90 133.90 C 174.04 107.00 205.03 84.05 238.44 65.50 C 256.54 55.55 275.50 47.26 294.84 40.03 C 299.82 37.74 305.21 36.59 310.36 34.75 C 319.19 31.66 328.40 29.92 337.33 27.17 C 344.99 25.46 352.74 24.20 360.37 22.37 C 379.06 19.68 397.76 16.27 416.72 16.36 M 409.01 90.02 C 393.62 90.84 378.44 93.83 363.30 96.60 C 354.57 98.93 345.67 100.58 337.11 103.51 C 320.93 107.89 305.51 114.59 290.24 121.42 C 252.61 139.42 218.50 164.55 189.48 194.48 C 181.00 202.74 173.09 211.57 165.55 220.69 C 144.94 245.93 127.34 273.79 114.89 303.95 C 102.26 332.53 94.92 363.16 90.49 394.00 C 90.03 400.67 89.15 407.31 88.66 413.97 C 88.24 430.97 88.15 447.98 88.52 464.99 C 89.31 489.74 93.56 514.30 99.98 538.20 C 115.33 596.37 147.82 649.34 190.33 691.67 C 204.79 706.35 220.38 719.94 237.13 731.97 C 286.35 768.09 345.74 789.91 406.54 794.86 C 412.18 795.92 417.98 795.21 423.63 796.26 C 435.11 796.66 446.62 796.66 458.10 796.31 C 463.05 795.59 468.05 795.59 473.03 795.36 C 481.93 794.15 490.92 793.64 499.80 792.26 C 512.43 789.92 525.10 787.67 537.42 784.01 C 586.82 770.98 632.56 745.51 671.02 712.04 C 680.88 703.27 690.91 694.62 699.70 684.74 C 732.87 649.16 760.15 607.44 775.90 561.23 C 785.44 533.86 791.73 505.26 793.94 476.34 C 794.73 470.27 794.24 464.10 795.31 458.05 C 795.32 446.00 796.12 433.85 794.64 421.86 C 793.90 397.02 789.82 372.31 783.43 348.31 C 767.91 288.42 734.32 233.95 690.12 190.94 C 645.75 146.27 589.39 112.88 527.86 98.67 C 513.39 94.78 498.48 92.89 483.70 90.68 C 476.78 90.43 469.92 89.33 462.99 89.40 C 463.58 89.16 464.17 88.94 464.77 88.71 C 446.17 88.80 427.54 88.22 409.01 90.02 Z" />
<path fill="#b30104" opacity="1.00" d=" M 410.39 161.52 C 413.93 161.25 417.42 160.46 420.99 160.51 C 433.96 160.27 446.93 160.24 459.89 160.52 C 472.96 161.92 486.20 162.50 499.03 165.63 C 503.58 166.73 508.14 167.74 512.75 168.57 C 553.49 178.90 591.62 199.07 623.40 226.55 C 648.53 248.33 670.98 273.54 687.71 302.37 C 700.56 324.39 710.58 348.19 716.31 373.05 C 720.20 385.48 721.04 398.54 723.24 411.31 C 723.44 418.24 724.79 425.07 724.55 432.01 C 724.84 450.71 724.88 469.51 721.50 487.97 C 720.36 500.48 716.91 512.55 713.87 524.68 C 698.39 579.10 664.57 627.35 621.30 663.39 C 594.19 686.32 562.66 704.21 528.80 714.96 C 509.39 720.99 489.38 725.48 469.04 726.68 C 463.41 727.71 457.67 727.33 451.99 727.77 C 440.64 729.55 429.25 727.36 417.87 727.36 C 410.15 726.30 402.31 726.27 394.64 724.78 C 385.08 723.57 375.76 721.06 366.35 719.07 C 358.27 716.43 349.92 714.60 342.06 711.36 C 303.74 697.55 269.18 674.27 240.54 645.46 C 205.91 611.15 179.18 568.28 166.74 520.96 C 165.44 516.26 163.91 511.61 163.10 506.79 C 161.39 496.60 159.20 486.48 158.27 476.17 C 156.78 467.86 157.77 459.37 156.86 451.00 C 156.48 443.32 156.79 435.63 157.30 427.97 C 157.16 411.11 160.89 394.61 163.74 378.08 C 169.44 353.99 178.20 330.61 190.05 308.86 C 200.02 291.16 211.60 274.30 225.06 259.07 C 233.12 250.79 240.57 241.89 249.39 234.39 C 262.64 221.39 277.75 210.45 293.36 200.47 C 310.73 189.68 329.39 181.05 348.73 174.46 C 357.37 171.85 365.87 168.66 374.82 167.30 C 386.49 164.31 398.41 162.66 410.39 161.52 M 417.49 230.96 C 413.03 231.99 408.62 233.43 404.00 233.45 C 399.10 233.47 394.37 234.85 389.70 236.18 C 368.67 241.68 348.25 250.09 330.08 262.12 C 316.74 269.98 305.03 280.26 293.82 290.86 C 287.84 296.22 282.85 302.54 277.46 308.47 C 268.62 317.90 261.97 329.08 255.10 339.96 C 252.53 343.94 250.78 348.37 248.78 352.65 C 241.01 367.26 236.38 383.32 232.90 399.43 C 231.67 409.99 230.18 420.53 228.70 431.06 C 228.36 438.37 228.64 445.70 228.50 453.01 C 228.21 460.09 230.30 466.97 230.45 474.02 C 230.59 483.89 233.15 493.47 235.26 503.04 C 236.57 508.95 239.37 514.36 241.07 520.15 C 242.71 525.80 245.19 531.14 247.78 536.40 C 253.00 547.99 259.45 559.00 266.47 569.58 C 276.95 584.15 289.52 597.11 302.86 609.08 C 316.47 620.13 330.58 630.75 346.25 638.72 C 351.09 641.31 356.32 643.07 361.10 645.78 C 364.32 647.59 368.07 648.01 371.38 649.62 C 373.54 650.64 375.65 651.90 378.05 652.30 C 383.08 653.11 387.93 654.83 393.03 655.25 C 397.74 655.55 402.22 657.17 406.92 657.51 C 413.36 657.93 419.49 660.51 425.99 660.41 C 438.33 660.48 450.68 660.61 463.02 660.40 C 469.83 660.34 476.20 657.29 483.03 657.39 C 491.51 656.01 499.97 654.26 508.25 651.96 C 517.36 648.86 526.90 646.83 535.44 642.24 C 548.00 636.46 559.63 628.90 570.93 620.99 C 582.18 611.29 594.34 602.46 603.97 591.02 C 609.99 584.89 614.23 577.33 620.21 571.17 C 625.51 564.63 630.31 557.62 633.88 549.97 C 640.32 539.09 645.81 527.58 649.25 515.38 C 652.27 508.65 652.66 501.20 654.90 494.23 C 656.26 488.20 657.01 482.05 658.28 476.01 C 658.44 467.62 660.80 459.42 660.41 451.00 C 660.23 442.65 660.92 434.25 659.57 425.97 C 659.35 417.88 656.70 410.12 656.33 402.06 C 655.79 396.09 653.09 390.63 651.89 384.81 C 647.84 371.17 642.83 357.70 635.59 345.40 C 624.75 324.62 610.25 305.85 593.56 289.44 C 585.07 282.22 577.19 274.14 567.58 268.34 C 562.92 265.48 559.07 261.41 554.04 259.15 C 548.68 256.75 544.08 252.98 538.67 250.70 C 532.99 248.31 527.42 245.67 521.69 243.42 C 515.64 240.63 509.03 239.53 502.76 237.39 C 492.22 234.02 481.06 233.59 470.34 231.07 C 467.94 230.53 465.46 230.49 463.02 230.47 C 450.00 230.45 436.99 230.44 423.97 230.48 C 421.80 230.51 419.61 230.50 417.49 230.96 Z" />
</g>
<g id="#f6f6f5ff">
<path fill="#f6f6f5" opacity="1.00" d=" M 409.01 90.02 C 427.54 88.22 446.17 88.80 464.77 88.71 C 464.17 88.94 463.58 89.16 462.99 89.40 C 469.92 89.33 476.78 90.43 483.70 90.68 C 498.48 92.89 513.39 94.78 527.86 98.67 C 589.39 112.88 645.75 146.27 690.12 190.94 C 734.32 233.95 767.91 288.42 783.43 348.31 C 789.82 372.31 793.90 397.02 794.64 421.86 C 796.12 433.85 795.32 446.00 795.31 458.05 C 794.24 464.10 794.73 470.27 793.94 476.34 C 791.73 505.26 785.44 533.86 775.90 561.23 C 760.15 607.44 732.87 649.16 699.70 684.74 C 690.91 694.62 680.88 703.27 671.02 712.04 C 632.56 745.51 586.82 770.98 537.42 784.01 C 525.10 787.67 512.43 789.92 499.80 792.26 C 490.92 793.64 481.93 794.15 473.03 795.36 C 468.05 795.59 463.05 795.59 458.10 796.31 C 446.62 796.66 435.11 796.66 423.63 796.26 C 417.98 795.21 412.18 795.92 406.54 794.86 C 345.74 789.91 286.35 768.09 237.13 731.97 C 220.38 719.94 204.79 706.35 190.33 691.67 C 147.82 649.34 115.33 596.37 99.98 538.20 C 93.56 514.30 89.31 489.74 88.52 464.99 C 88.15 447.98 88.24 430.97 88.66 413.97 C 89.15 407.31 90.03 400.67 90.49 394.00 C 94.92 363.16 102.26 332.53 114.89 303.95 C 127.34 273.79 144.94 245.93 165.55 220.69 C 173.09 211.57 181.00 202.74 189.48 194.48 C 218.50 164.55 252.61 139.42 290.24 121.42 C 305.51 114.59 320.93 107.89 337.11 103.51 C 345.67 100.58 354.57 98.93 363.30 96.60 C 378.44 93.83 393.62 90.84 409.01 90.02 M 410.39 161.52 C 398.41 162.66 386.49 164.31 374.82 167.30 C 365.87 168.66 357.37 171.85 348.73 174.46 C 329.39 181.05 310.73 189.68 293.36 200.47 C 277.75 210.45 262.64 221.39 249.39 234.39 C 240.57 241.89 233.12 250.79 225.06 259.07 C 211.60 274.30 200.02 291.16 190.05 308.86 C 178.20 330.61 169.44 353.99 163.74 378.08 C 160.89 394.61 157.16 411.11 157.30 427.97 C 156.79 435.63 156.48 443.32 156.86 451.00 C 157.77 459.37 156.78 467.86 158.27 476.17 C 159.20 486.48 161.39 496.60 163.10 506.79 C 163.91 511.61 165.44 516.26 166.74 520.96 C 179.18 568.28 205.91 611.15 240.54 645.46 C 269.18 674.27 303.74 697.55 342.06 711.36 C 349.92 714.60 358.27 716.43 366.35 719.07 C 375.76 721.06 385.08 723.57 394.64 724.78 C 402.31 726.27 410.15 726.30 417.87 727.36 C 429.25 727.36 440.64 729.55 451.99 727.77 C 457.67 727.33 463.41 727.71 469.04 726.68 C 489.38 725.48 509.39 720.99 528.80 714.96 C 562.66 704.21 594.19 686.32 621.30 663.39 C 664.57 627.35 698.39 579.10 713.87 524.68 C 716.91 512.55 720.36 500.48 721.50 487.97 C 724.88 469.51 724.84 450.71 724.55 432.01 C 724.79 425.07 723.44 418.24 723.24 411.31 C 721.04 398.54 720.20 385.48 716.31 373.05 C 710.58 348.19 700.56 324.39 687.71 302.37 C 670.98 273.54 648.53 248.33 623.40 226.55 C 591.62 199.07 553.49 178.90 512.75 168.57 C 508.14 167.74 503.58 166.73 499.03 165.63 C 486.20 162.50 472.96 161.92 459.89 160.52 C 446.93 160.24 433.96 160.27 420.99 160.51 C 417.42 160.46 413.93 161.25 410.39 161.52 Z" />
<path fill="#f6f6f5" opacity="1.00" d=" M 442.75 234.45 C 443.54 234.42 444.08 234.78 444.37 235.53 C 464.49 276.17 484.46 316.88 504.69 357.46 C 505.22 358.71 506.07 359.83 507.53 359.99 C 514.60 361.56 521.88 361.89 529.01 363.16 C 541.95 364.63 554.68 367.60 567.68 368.64 C 580.73 370.99 593.87 372.77 607.02 374.46 C 619.44 376.70 631.95 378.33 644.47 379.78 C 644.44 380.19 644.39 381.01 644.37 381.42 C 638.96 385.61 634.49 390.84 629.51 395.50 C 604.14 420.14 578.96 444.96 553.52 469.52 C 550.48 472.68 547.22 475.62 544.27 478.87 C 545.51 482.57 545.78 486.48 546.37 490.33 C 547.67 499.90 549.81 509.34 551.47 518.85 C 552.36 527.50 554.25 536.00 555.81 544.54 C 557.39 553.16 558.22 561.91 560.13 570.47 C 562.20 580.41 563.15 590.53 565.24 600.47 C 566.14 605.97 567.48 611.43 567.79 617.01 C 528.55 596.81 489.69 575.87 450.51 555.56 C 447.88 554.39 445.39 551.69 442.36 552.24 C 407.84 570.48 373.25 588.62 338.67 606.78 C 332.02 610.30 325.46 614.06 318.57 617.11 C 319.77 612.39 320.37 607.56 321.05 602.76 C 322.14 595.22 324.09 587.83 325.05 580.27 C 326.76 566.91 330.23 553.84 331.64 540.45 C 333.92 529.08 336.07 517.68 337.55 506.17 C 339.42 497.08 341.04 487.95 342.51 478.79 C 336.41 472.13 329.68 466.08 323.17 459.81 C 308.99 446.02 295.07 431.95 280.79 418.26 C 269.74 407.96 259.25 397.09 248.39 386.61 C 246.19 384.39 243.63 382.49 241.95 379.81 C 256.36 378.34 270.66 375.95 284.98 373.78 C 300.50 372.07 315.80 368.82 331.34 367.19 C 346.55 364.61 361.84 362.59 377.12 360.47 C 379.20 360.28 381.49 359.52 382.35 357.43 C 402.26 316.33 423.04 275.65 442.75 234.45 Z" />
</g>
<g id="#010068ff">
<path fill="#010068" opacity="1.00" d=" M 771.74 171.36 L 772.65 171.28 L 773.34 172.11 L 773.07 172.97 C 772.74 172.57 772.07 171.76 771.74 171.36 Z" />
<path fill="#010068" opacity="1.00" d=" M 417.49 230.96 C 419.61 230.50 421.80 230.51 423.97 230.48 C 436.99 230.44 450.00 230.45 463.02 230.47 C 465.46 230.49 467.94 230.53 470.34 231.07 C 481.06 233.59 492.22 234.02 502.76 237.39 C 509.03 239.53 515.64 240.63 521.69 243.42 C 527.42 245.67 532.99 248.31 538.67 250.70 C 544.08 252.98 548.68 256.75 554.04 259.15 C 559.07 261.41 562.92 265.48 567.58 268.34 C 577.19 274.14 585.07 282.22 593.56 289.44 C 610.25 305.85 624.75 324.62 635.59 345.40 C 642.83 357.70 647.84 371.17 651.89 384.81 C 653.09 390.63 655.79 396.09 656.33 402.06 C 656.70 410.12 659.35 417.88 659.57 425.97 C 660.92 434.25 660.23 442.65 660.41 451.00 C 660.80 459.42 658.44 467.62 658.28 476.01 C 657.01 482.05 656.26 488.20 654.90 494.23 C 652.66 501.20 652.27 508.65 649.25 515.38 C 645.81 527.58 640.32 539.09 633.88 549.97 C 630.31 557.62 625.51 564.63 620.21 571.17 C 614.23 577.33 609.99 584.89 603.97 591.02 C 594.34 602.46 582.18 611.29 570.93 620.99 C 559.63 628.90 548.00 636.46 535.44 642.24 C 526.90 646.83 517.36 648.86 508.25 651.96 C 499.97 654.26 491.51 656.01 483.03 657.39 C 476.20 657.29 469.83 660.34 463.02 660.40 C 450.68 660.61 438.33 660.48 425.99 660.41 C 419.49 660.51 413.36 657.93 406.92 657.51 C 402.22 657.17 397.74 655.55 393.03 655.25 C 387.93 654.83 383.08 653.11 378.05 652.30 C 375.65 651.90 373.54 650.64 371.38 649.62 C 368.07 648.01 364.32 647.59 361.10 645.78 C 356.32 643.07 351.09 641.31 346.25 638.72 C 330.58 630.75 316.47 620.13 302.86 609.08 C 289.52 597.11 276.95 584.15 266.47 569.58 C 259.45 559.00 253.00 547.99 247.78 536.40 C 245.19 531.14 242.71 525.80 241.07 520.15 C 239.37 514.36 236.57 508.95 235.26 503.04 C 233.15 493.47 230.59 483.89 230.45 474.02 C 230.30 466.97 228.21 460.09 228.50 453.01 C 228.64 445.70 228.36 438.37 228.70 431.06 C 230.18 420.53 231.67 409.99 232.90 399.43 C 236.38 383.32 241.01 367.26 248.78 352.65 C 250.78 348.37 252.53 343.94 255.10 339.96 C 261.97 329.08 268.62 317.90 277.46 308.47 C 282.85 302.54 287.84 296.22 293.82 290.86 C 305.03 280.26 316.74 269.98 330.08 262.12 C 348.25 250.09 368.67 241.68 389.70 236.18 C 394.37 234.85 399.10 233.47 404.00 233.45 C 408.62 233.43 413.03 231.99 417.49 230.96 M 442.75 234.45 C 423.04 275.65 402.26 316.33 382.35 357.43 C 381.49 359.52 379.20 360.28 377.12 360.47 C 361.84 362.59 346.55 364.61 331.34 367.19 C 315.80 368.82 300.50 372.07 284.98 373.78 C 270.66 375.95 256.36 378.34 241.95 379.81 C 243.63 382.49 246.19 384.39 248.39 386.61 C 259.25 397.09 269.74 407.96 280.79 418.26 C 295.07 431.95 308.99 446.02 323.17 459.81 C 329.68 466.08 336.41 472.13 342.51 478.79 C 341.04 487.95 339.42 497.08 337.55 506.17 C 336.07 517.68 333.92 529.08 331.64 540.45 C 330.23 553.84 326.76 566.91 325.05 580.27 C 324.09 587.83 322.14 595.22 321.05 602.76 C 320.37 607.56 319.77 612.39 318.57 617.11 C 325.46 614.06 332.02 610.30 338.67 606.78 C 373.25 588.62 407.84 570.48 442.36 552.24 C 445.39 551.69 447.88 554.39 450.51 555.56 C 489.69 575.87 528.55 596.81 567.79 617.01 C 567.48 611.43 566.14 605.97 565.24 600.47 C 563.15 590.53 562.20 580.41 560.13 570.47 C 558.22 561.91 557.39 553.16 555.81 544.54 C 554.25 536.00 552.36 527.50 551.47 518.85 C 549.81 509.34 547.67 499.90 546.37 490.33 C 545.78 486.48 545.51 482.57 544.27 478.87 C 547.22 475.62 550.48 472.68 553.52 469.52 C 578.96 444.96 604.14 420.14 629.51 395.50 C 634.49 390.84 638.96 385.61 644.37 381.42 C 644.39 381.01 644.44 380.19 644.47 379.78 C 631.95 378.33 619.44 376.70 607.02 374.46 C 593.87 372.77 580.73 370.99 567.68 368.64 C 554.68 367.60 541.95 364.63 529.01 363.16 C 521.88 361.89 514.60 361.56 507.53 359.99 C 506.07 359.83 505.22 358.71 504.69 357.46 C 484.46 316.88 464.49 276.17 444.37 235.53 C 444.08 234.78 443.54 234.42 442.75 234.45 Z" />
<path fill="#010068" opacity="1.00" d=" M 844.63 586.61 C 844.51 585.40 844.88 584.24 845.64 583.30 C 847.11 583.99 846.31 587.01 844.63 586.61 Z" />
</g>
</svg>
