<?xml version="1.0" encoding="UTF-8" ?>
<!DOCTYPE svg PUBLIC "-//W3C//DTD SVG 1.1//EN" "http://www.w3.org/Graphics/SVG/1.1/DTD/svg11.dtd">
<svg width="200pt" height="200pt" viewBox="0 0 1435 1435" version="1.1" xmlns="http://www.w3.org/2000/svg">

<!-- <svg width="1073pt" height="1073pt" viewBox="0 0 1073 1073" version="1.1" xmlns="http://www.w3.org/2000/svg"> -->
<g id="#ed1f24ff">
<path fill="#ed1f24" opacity="1.00" d=" M 528.31 18.14 C 601.64 17.11 675.26 31.38 742.61 60.56 C 797.84 84.45 848.97 117.93 892.68 159.31 C 906.06 171.28 917.99 184.73 929.93 198.11 C 964.97 238.68 993.67 284.71 1014.67 334.04 C 1034.70 381.05 1047.60 431.06 1053.07 481.86 C 1055.28 506.82 1057.29 531.95 1055.57 557.01 C 1052.33 646.66 1025.18 735.37 977.54 811.42 C 937.08 876.44 882.01 932.25 817.59 973.65 C 739.60 1024.02 647.78 1052.67 555.01 1055.64 C 538.47 1056.95 521.87 1055.88 505.35 1055.02 C 459.41 1052.19 413.80 1043.33 370.22 1028.47 C 316.21 1010.17 265.28 982.80 220.17 947.91 C 143.41 888.89 83.79 807.87 50.30 717.00 C 27.96 656.70 17.21 592.23 18.15 527.99 C 18.95 495.89 22.31 463.82 28.87 432.36 C 44.33 356.36 77.38 284.05 124.50 222.47 C 193.86 131.02 294.52 63.83 405.67 35.06 C 445.68 24.51 486.97 19.12 528.31 18.14 M 612.37 99.15 C 612.27 214.10 612.31 329.05 612.26 444.00 C 612.16 462.00 612.50 480.01 611.95 497.99 C 612.61 503.33 611.77 508.66 611.77 514.00 C 612.37 523.66 611.15 533.34 612.13 543.00 C 611.86 549.00 611.52 555.01 612.17 561.01 C 611.38 575.98 611.88 591.00 611.75 606.00 C 611.80 728.16 611.55 850.32 611.75 972.48 C 617.30 972.15 622.66 970.57 628.07 969.37 C 639.37 966.80 650.53 963.60 661.48 959.78 C 680.59 953.21 699.38 945.64 717.39 936.44 C 786.34 902.24 845.83 849.48 888.46 785.43 C 909.61 753.89 926.82 719.76 940.03 684.17 C 954.44 644.35 962.51 602.31 964.46 560.03 C 964.69 541.67 965.14 523.26 963.49 504.95 C 958.82 444.88 942.00 385.86 914.83 332.10 C 880.77 264.57 829.72 205.43 766.93 163.11 C 731.17 139.14 691.82 120.55 650.52 108.39 C 637.97 104.70 625.32 101.11 612.37 99.15 M 395.12 118.11 C 335.90 140.02 281.89 175.65 238.04 221.04 C 159.17 302.33 112.20 413.75 109.17 526.97 C 108.31 536.62 108.56 546.35 109.32 556.00 C 109.38 572.05 111.20 588.04 113.47 603.91 C 121.93 663.83 144.91 721.07 176.60 772.40 C 196.96 805.35 221.64 835.60 249.71 862.28 C 300.11 910.04 361.97 945.57 428.52 965.29 C 439.47 968.05 450.35 971.39 461.58 972.75 C 461.83 901.50 461.57 830.25 461.63 759.00 C 461.62 646.00 461.63 533.00 461.57 420.00 C 461.48 313.13 461.69 206.25 461.41 99.37 C 438.76 103.38 416.69 110.22 395.12 118.11 Z" />
</g>
<g id="#040707ff">
<path fill="#040707" opacity="1.00" d=" M 612.37 99.15 C 625.32 101.11 637.97 104.70 650.52 108.39 C 691.82 120.55 731.17 139.14 766.93 163.11 C 829.72 205.43 880.77 264.57 914.83 332.10 C 942.00 385.86 958.82 444.88 963.49 504.95 C 965.14 523.26 964.69 541.67 964.46 560.03 C 962.51 602.31 954.44 644.35 940.03 684.17 C 926.82 719.76 909.61 753.89 888.46 785.43 C 845.83 849.48 786.34 902.24 717.39 936.44 C 699.38 945.64 680.59 953.21 661.48 959.78 C 650.53 963.60 639.37 966.80 628.07 969.37 C 622.66 970.57 617.30 972.15 611.75 972.48 C 611.55 850.32 611.80 728.16 611.75 606.00 C 611.88 591.00 611.38 575.98 612.17 561.01 C 611.52 555.01 611.86 549.00 612.13 543.00 C 611.15 533.34 612.37 523.66 611.77 514.00 C 611.77 508.66 612.61 503.33 611.95 497.99 C 612.50 480.01 612.16 462.00 612.26 444.00 C 612.31 329.05 612.27 214.10 612.37 99.15 M 663.28 589.55 C 662.42 590.17 661.69 590.95 660.98 591.74 C 672.57 607.68 690.96 617.36 709.79 622.01 C 725.20 625.98 741.20 625.99 757.00 625.46 C 773.62 624.17 790.08 621.15 806.18 616.85 C 808.14 616.53 809.38 614.93 810.53 613.46 C 828.38 589.23 843.18 562.83 855.36 535.33 C 867.80 506.90 877.15 476.97 881.60 446.21 C 808.72 493.82 736.09 541.83 663.28 589.55 Z" />
<path fill="#040707" opacity="1.00" d=" M 395.12 118.11 C 416.69 110.22 438.76 103.38 461.41 99.37 C 461.69 206.25 461.48 313.13 461.57 420.00 C 461.63 533.00 461.62 646.00 461.63 759.00 C 461.57 830.25 461.83 901.50 461.58 972.75 C 450.35 971.39 439.47 968.05 428.52 965.29 C 361.97 945.57 300.11 910.04 249.71 862.28 C 221.64 835.60 196.96 805.35 176.60 772.40 C 144.91 721.07 121.93 663.83 113.47 603.91 C 111.20 588.04 109.38 572.05 109.32 556.00 C 108.56 546.35 108.31 536.62 109.17 526.97 C 112.20 413.75 159.17 302.33 238.04 221.04 C 281.89 175.65 335.90 140.02 395.12 118.11 M 189.35 447.88 C 191.94 469.14 197.87 489.89 204.80 510.11 C 218.11 547.15 236.61 582.35 259.71 614.22 C 260.84 615.69 261.92 617.52 263.90 617.93 C 276.10 621.33 288.56 623.80 301.11 625.44 C 314.31 627.31 327.70 626.83 340.99 626.53 C 355.32 625.24 369.67 621.96 382.54 615.38 C 393.21 610.07 402.90 602.54 409.85 592.78 C 405.08 588.91 399.67 585.95 394.62 582.47 C 340.69 547.06 286.83 511.56 232.88 476.19 C 218.35 466.78 204.11 456.91 189.35 447.88 Z" />
</g>
<g id="#ffffffff">
<path fill="#ffffff" opacity="1.00" d=" M 663.28 589.55 C 736.09 541.83 808.72 493.82 881.60 446.21 C 877.15 476.97 867.80 506.90 855.36 535.33 C 843.18 562.83 828.38 589.23 810.53 613.46 C 809.38 614.93 808.14 616.53 806.18 616.85 C 790.08 621.15 773.62 624.17 757.00 625.46 C 741.20 625.99 725.20 625.98 709.79 622.01 C 690.96 617.36 672.57 607.68 660.98 591.74 C 661.69 590.95 662.42 590.17 663.28 589.55 Z" />
<path fill="#ffffff" opacity="1.00" d=" M 189.35 447.88 C 204.11 456.91 218.35 466.78 232.88 476.19 C 286.83 511.56 340.69 547.06 394.62 582.47 C 399.67 585.95 405.08 588.91 409.85 592.78 C 402.90 602.54 393.21 610.07 382.54 615.38 C 369.67 621.96 355.32 625.24 340.99 626.53 C 327.70 626.83 314.31 627.31 301.11 625.44 C 288.56 623.80 276.10 621.33 263.90 617.93 C 261.92 617.52 260.84 615.69 259.71 614.22 C 236.61 582.35 218.11 547.15 204.80 510.11 C 197.87 489.89 191.94 469.14 189.35 447.88 Z" />
</g>
</svg>
