<?xml version="1.0" encoding="UTF-8" ?>
<!DOCTYPE svg PUBLIC "-//W3C//DTD SVG 1.1//EN" "http://www.w3.org/Graphics/SVG/1.1/DTD/svg11.dtd">
<svg width="200pt" height="200pt" viewBox="0 0 1650 1650" version="1.1" xmlns="http://www.w3.org/2000/svg">
<!-- <svg width="1229pt" height="1229pt" viewBox="0 0 1229 1229" version="1.1" xmlns="http://www.w3.org/2000/svg"> -->
<g id="#0086cdff">
<path fill="#0086cd" opacity="1.00" d=" M 598.26 16.84 C 660.18 15.42 722.31 23.23 781.80 40.57 C 818.84 51.66 854.88 66.12 889.20 83.94 C 944.25 112.84 995.00 150.05 1038.61 194.40 C 1099.12 255.40 1146.26 329.59 1175.71 410.32 C 1214.26 515.49 1221.70 631.58 1197.98 740.97 C 1180.66 820.96 1146.27 897.09 1098.35 963.39 C 1051.91 1027.32 992.99 1082.25 925.56 1123.52 C 892.24 1144.26 856.58 1161.07 819.90 1174.97 C 735.67 1206.01 644.37 1217.55 555.06 1208.60 C 509.73 1204.28 465.03 1194.23 421.82 1179.91 C 382.39 1165.80 343.88 1148.67 308.08 1126.84 C 212.92 1069.94 134.06 986.11 83.22 887.56 C 68.30 858.74 55.71 828.70 45.66 797.84 C 4.81 672.24 7.22 533.02 53.02 409.08 C 83.68 325.30 133.57 248.70 197.50 186.51 C 238.69 146.14 285.92 112.06 336.84 85.02 C 368.24 68.76 400.91 54.82 434.66 44.22 C 487.53 27.32 542.84 18.57 598.26 16.84 M 586.37 49.36 C 551.50 51.48 516.65 55.90 482.70 64.40 C 448.25 72.18 414.72 83.78 382.67 98.57 C 282.89 143.28 196.82 217.85 138.03 310.00 C 109.52 354.85 86.71 403.41 71.76 454.45 C 59.09 498.23 51.40 543.48 49.31 588.99 C 49.54 600.33 48.15 611.65 48.95 622.99 C 49.64 632.08 48.82 641.25 49.95 650.32 C 54.18 715.78 69.53 780.73 96.29 840.72 C 133.07 924.19 190.38 998.42 261.51 1055.48 C 280.37 1071.01 300.68 1084.65 321.39 1097.57 C 340.59 1109.28 360.52 1119.80 381.03 1129.03 C 443.41 1158.12 511.55 1173.84 580.05 1178.53 C 586.73 1178.32 593.33 1179.44 600.00 1179.50 C 610.32 1179.53 620.65 1179.76 630.97 1179.35 C 637.28 1178.52 643.64 1178.63 649.99 1178.49 C 672.07 1176.60 694.16 1174.28 715.94 1170.09 C 761.24 1161.58 805.53 1147.64 847.49 1128.54 C 884.19 1112.51 918.60 1091.58 950.83 1067.88 C 979.88 1045.95 1007.26 1021.70 1031.63 994.62 C 1087.45 933.19 1130.01 859.60 1154.44 780.22 C 1167.64 737.66 1175.42 693.47 1178.51 649.06 C 1178.50 643.36 1178.71 637.66 1179.34 632.00 C 1179.67 619.68 1179.74 607.33 1179.28 595.02 C 1178.17 587.55 1179.03 579.96 1177.88 572.50 C 1173.01 504.68 1155.98 437.61 1126.81 376.13 C 1108.43 337.04 1085.33 300.21 1058.78 266.15 C 1043.81 247.30 1028.10 228.98 1010.93 212.07 C 961.77 163.64 903.88 123.99 840.60 96.39 C 780.40 69.50 715.19 54.20 649.50 49.84 C 641.36 48.94 633.16 49.50 625.00 49.08 C 612.13 48.09 599.25 49.56 586.37 49.36 Z" />
<path fill="#0086cd" opacity="1.00" d=" M 476.33 110.52 C 542.07 92.30 611.40 88.18 679.04 96.30 C 710.72 100.04 741.99 107.03 772.37 116.74 C 805.16 127.51 837.12 140.99 867.30 157.81 C 869.97 159.44 872.86 160.79 875.22 162.90 C 860.84 177.63 845.86 191.76 831.46 206.46 C 817.81 220.48 803.71 234.05 789.95 247.96 C 778.10 260.11 765.98 271.99 753.94 283.94 C 742.78 295.12 731.78 306.45 720.48 317.47 C 705.68 332.01 691.33 347.00 676.46 361.46 C 662.52 375.19 648.99 389.32 634.97 402.97 C 620.85 416.85 607.14 431.15 592.98 444.99 C 579.34 458.35 566.12 472.13 552.49 485.50 C 539.35 498.36 526.55 511.55 513.54 524.54 C 498.82 538.82 484.57 553.56 470.03 568.03 C 459.43 578.43 448.89 588.89 438.56 599.55 C 424.51 613.50 410.35 627.35 396.54 641.53 C 383.75 654.41 370.67 667.01 357.99 680.00 C 344.49 693.83 330.50 707.17 316.98 720.98 C 302.82 735.48 288.20 749.54 273.96 763.97 C 272.36 765.69 270.00 767.36 270.31 770.03 C 270.30 791.32 270.26 812.61 270.34 833.89 C 286.21 834.51 302.11 833.98 318.00 834.16 C 483.62 834.16 649.24 834.16 814.86 834.15 C 814.91 921.36 815.01 1008.57 814.81 1095.77 C 795.33 1103.57 775.67 1111.05 755.39 1116.52 C 730.82 1123.92 705.53 1128.58 680.11 1131.88 C 657.52 1134.65 634.77 1136.06 612.00 1135.74 C 584.22 1135.89 556.43 1133.56 529.02 1129.07 C 486.00 1122.35 444.14 1109.17 404.29 1091.76 C 379.70 1081.46 356.43 1068.30 333.95 1054.03 C 312.87 1040.94 293.18 1025.77 274.29 1009.72 C 239.10 979.82 208.33 944.85 182.19 906.82 C 171.58 890.87 161.67 874.44 152.52 857.60 C 142.17 838.18 133.38 817.96 125.64 797.37 C 112.93 764.07 103.59 729.46 98.34 694.19 C 88.67 629.92 90.59 563.85 104.60 500.36 C 113.87 459.31 128.36 419.51 146.79 381.70 C 181.47 312.82 231.18 251.48 291.92 203.91 C 313.80 186.20 337.66 171.11 362.03 157.10 C 398.09 137.11 436.68 121.76 476.33 110.52 Z" />
<path fill="#0086cd" opacity="1.00" d=" M 947.89 213.64 C 954.04 217.87 959.24 223.28 964.93 228.08 C 983.19 244.48 1000.09 262.38 1015.74 281.28 C 1033.08 302.07 1048.87 324.17 1062.57 347.53 C 1085.02 384.30 1101.72 424.35 1114.49 465.43 C 1128.59 512.24 1135.77 561.12 1135.73 610.01 C 1136.18 642.24 1133.69 674.54 1127.93 706.26 C 1074.95 706.34 1021.97 706.21 969.00 706.26 C 962.07 706.20 955.15 706.42 948.23 706.13 C 948.05 571.09 948.20 436.04 948.15 301.00 C 948.03 280.00 948.45 258.99 947.83 238.00 C 947.95 229.88 947.56 221.76 947.89 213.64 Z" />
<path fill="#0086cd" opacity="1.00" d=" M 795.66 360.70 C 802.31 355.04 808.47 348.84 814.83 342.85 C 815.02 442.90 814.85 542.95 814.91 643.00 C 814.84 664.06 815.05 685.11 814.81 706.17 C 731.54 706.39 648.27 706.20 565.00 706.26 C 522.90 706.18 480.80 706.42 438.70 706.14 C 442.62 700.95 447.91 697.06 452.50 692.50 C 467.15 678.83 480.89 664.22 495.75 650.78 C 507.76 639.45 519.18 627.50 531.38 616.37 C 547.33 600.99 563.39 585.74 579.10 570.12 C 597.43 553.47 614.29 535.29 632.61 518.63 C 642.97 508.99 652.61 498.61 662.98 488.97 C 669.74 483.08 676.11 476.78 682.49 470.49 C 694.23 458.55 706.73 447.40 718.62 435.61 C 731.12 423.78 743.40 411.71 755.64 399.62 C 769.40 387.09 782.46 373.82 795.66 360.70 Z" />
<path fill="#0086cd" opacity="1.00" d=" M 948.16 834.17 C 994.53 834.12 1040.89 834.22 1087.26 834.11 C 1079.97 850.31 1071.40 865.91 1062.22 881.11 C 1042.50 914.35 1018.83 945.23 992.20 973.22 C 978.12 987.60 963.83 1001.89 947.99 1014.34 C 947.39 999.89 948.32 985.45 948.15 971.00 C 948.16 925.39 948.14 879.78 948.16 834.17 Z" />
</g>
<g id="#ffffffff">
<path fill="#ffffff" opacity="1.00" d=" M 586.37 49.36 C 599.25 49.56 612.13 48.09 625.00 49.08 C 633.16 49.50 641.36 48.94 649.50 49.84 C 715.19 54.20 780.40 69.50 840.60 96.39 C 903.88 123.99 961.77 163.64 1010.93 212.07 C 1028.10 228.98 1043.81 247.30 1058.78 266.15 C 1085.33 300.21 1108.43 337.04 1126.81 376.13 C 1155.98 437.61 1173.01 504.68 1177.88 572.50 C 1179.03 579.96 1178.17 587.55 1179.28 595.02 C 1179.74 607.33 1179.67 619.68 1179.34 632.00 C 1178.71 637.66 1178.50 643.36 1178.51 649.06 C 1175.42 693.47 1167.64 737.66 1154.44 780.22 C 1130.01 859.60 1087.45 933.19 1031.63 994.62 C 1007.26 1021.70 979.88 1045.95 950.83 1067.88 C 918.60 1091.58 884.19 1112.51 847.49 1128.54 C 805.53 1147.64 761.24 1161.58 715.94 1170.09 C 694.16 1174.28 672.07 1176.60 649.99 1178.49 C 643.64 1178.63 637.28 1178.52 630.97 1179.35 C 620.65 1179.76 610.32 1179.53 600.00 1179.50 C 593.33 1179.44 586.73 1178.32 580.05 1178.53 C 511.55 1173.84 443.41 1158.12 381.03 1129.03 C 360.52 1119.80 340.59 1109.28 321.39 1097.57 C 300.68 1084.65 280.37 1071.01 261.51 1055.48 C 190.38 998.42 133.07 924.19 96.29 840.72 C 69.53 780.73 54.18 715.78 49.95 650.32 C 48.82 641.25 49.64 632.08 48.95 622.99 C 48.15 611.65 49.54 600.33 49.31 588.99 C 51.40 543.48 59.09 498.23 71.76 454.45 C 86.71 403.41 109.52 354.85 138.03 310.00 C 196.82 217.85 282.89 143.28 382.67 98.57 C 414.72 83.78 448.25 72.18 482.70 64.40 C 516.65 55.90 551.50 51.48 586.37 49.36 M 476.33 110.52 C 436.68 121.76 398.09 137.11 362.03 157.10 C 337.66 171.11 313.80 186.20 291.92 203.91 C 231.18 251.48 181.47 312.82 146.79 381.70 C 128.36 419.51 113.87 459.31 104.60 500.36 C 90.59 563.85 88.67 629.92 98.34 694.19 C 103.59 729.46 112.93 764.07 125.64 797.37 C 133.38 817.96 142.17 838.18 152.52 857.60 C 161.67 874.44 171.58 890.87 182.19 906.82 C 208.33 944.85 239.10 979.82 274.29 1009.72 C 293.18 1025.77 312.87 1040.94 333.95 1054.03 C 356.43 1068.30 379.70 1081.46 404.29 1091.76 C 444.14 1109.17 486.00 1122.35 529.02 1129.07 C 556.43 1133.56 584.22 1135.89 612.00 1135.74 C 634.77 1136.06 657.52 1134.65 680.11 1131.88 C 705.53 1128.58 730.82 1123.92 755.39 1116.52 C 775.67 1111.05 795.33 1103.57 814.81 1095.77 C 815.01 1008.57 814.91 921.36 814.86 834.15 C 649.24 834.16 483.62 834.16 318.00 834.16 C 302.11 833.98 286.21 834.51 270.34 833.89 C 270.26 812.61 270.30 791.32 270.31 770.03 C 270.00 767.36 272.36 765.69 273.96 763.97 C 288.20 749.54 302.82 735.48 316.98 720.98 C 330.50 707.17 344.49 693.83 357.99 680.00 C 370.67 667.01 383.75 654.41 396.54 641.53 C 410.35 627.35 424.51 613.50 438.56 599.55 C 448.89 588.89 459.43 578.43 470.03 568.03 C 484.57 553.56 498.82 538.82 513.54 524.54 C 526.55 511.55 539.35 498.36 552.49 485.50 C 566.12 472.13 579.34 458.35 592.98 444.99 C 607.14 431.15 620.85 416.85 634.97 402.97 C 648.99 389.32 662.52 375.19 676.46 361.46 C 691.33 347.00 705.68 332.01 720.48 317.47 C 731.78 306.45 742.78 295.12 753.94 283.94 C 765.98 271.99 778.10 260.11 789.95 247.96 C 803.71 234.05 817.81 220.48 831.46 206.46 C 845.86 191.76 860.84 177.63 875.22 162.90 C 872.86 160.79 869.97 159.44 867.30 157.81 C 837.12 140.99 805.16 127.51 772.37 116.74 C 741.99 107.03 710.72 100.04 679.04 96.30 C 611.40 88.18 542.07 92.30 476.33 110.52 M 947.89 213.64 C 947.56 221.76 947.95 229.88 947.83 238.00 C 948.45 258.99 948.03 280.00 948.15 301.00 C 948.20 436.04 948.05 571.09 948.23 706.13 C 955.15 706.42 962.07 706.20 969.00 706.26 C 1021.97 706.21 1074.95 706.34 1127.93 706.26 C 1133.69 674.54 1136.18 642.24 1135.73 610.01 C 1135.77 561.12 1128.59 512.24 1114.49 465.43 C 1101.72 424.35 1085.02 384.30 1062.57 347.53 C 1048.87 324.17 1033.08 302.07 1015.74 281.28 C 1000.09 262.38 983.19 244.48 964.93 228.08 C 959.24 223.28 954.04 217.87 947.89 213.64 M 795.66 360.70 C 782.46 373.82 769.40 387.09 755.64 399.62 C 743.40 411.71 731.12 423.78 718.62 435.61 C 706.73 447.40 694.23 458.55 682.49 470.49 C 676.11 476.78 669.74 483.08 662.98 488.97 C 652.61 498.61 642.97 508.99 632.61 518.63 C 614.29 535.29 597.43 553.47 579.10 570.12 C 563.39 585.74 547.33 600.99 531.38 616.37 C 519.18 627.50 507.76 639.45 495.75 650.78 C 480.89 664.22 467.15 678.83 452.50 692.50 C 447.91 697.06 442.62 700.95 438.70 706.14 C 480.80 706.42 522.90 706.18 565.00 706.26 C 648.27 706.20 731.54 706.39 814.81 706.17 C 815.05 685.11 814.84 664.06 814.91 643.00 C 814.85 542.95 815.02 442.90 814.83 342.85 C 808.47 348.84 802.31 355.04 795.66 360.70 M 948.16 834.17 C 948.14 879.78 948.16 925.39 948.15 971.00 C 948.32 985.45 947.39 999.89 947.99 1014.34 C 963.83 1001.89 978.12 987.60 992.20 973.22 C 1018.83 945.23 1042.50 914.35 1062.22 881.11 C 1071.40 865.91 1079.97 850.31 1087.26 834.11 C 1040.89 834.22 994.53 834.12 948.16 834.17 Z" />
</g>
</svg>
