<?xml version="1.0" encoding="UTF-8" ?>
<!DOCTYPE svg PUBLIC "-//W3C//DTD SVG 1.1//EN" "http://www.w3.org/Graphics/SVG/1.1/DTD/svg11.dtd">
<svg  width="200pt" height="200pt" viewBox="315 343 1150 464" version="1.1" xmlns="http://www.w3.org/2000/svg">
<!-- <svg width="1596pt" height="864pt" viewBox="0 0 1596 864" version="1.1" xmlns="http://www.w3.org/2000/svg"> -->
<g id="#005a00ff">
<path fill="#005a00" opacity="1.00" d=" M 721.35 10.20 C 726.52 9.34 731.78 9.90 737.00 9.76 C 747.01 9.88 757.04 9.53 767.04 9.91 C 773.29 11.29 779.73 10.86 786.03 11.87 C 810.99 14.11 835.71 18.78 859.87 25.44 C 877.61 31.26 895.70 36.39 912.59 44.49 C 920.89 48.18 929.24 51.77 937.37 55.82 C 944.67 60.70 952.79 64.17 960.32 68.68 C 972.10 75.74 983.41 83.57 994.65 91.46 C 1001.24 96.50 1007.57 101.90 1014.31 106.76 C 1020.75 112.63 1027.53 118.12 1033.60 124.40 C 1037.37 128.28 1041.80 131.48 1045.44 135.50 C 1051.91 142.71 1058.98 149.36 1065.08 156.90 C 1100.95 198.72 1128.91 247.49 1145.87 299.97 C 1150.20 312.03 1153.23 324.51 1156.06 337.00 C 1160.06 351.03 1161.57 365.60 1163.74 379.99 C 1164.11 387.37 1165.60 394.64 1165.60 402.04 C 1165.77 405.36 1166.86 408.59 1166.73 411.95 C 1166.62 425.93 1166.90 439.92 1166.60 453.89 C 1165.12 459.98 1165.93 466.30 1164.64 472.42 C 1163.96 485.04 1161.46 497.46 1159.68 509.96 C 1158.71 517.05 1156.38 523.85 1154.91 530.84 C 1152.32 542.17 1149.27 553.42 1145.30 564.35 C 1135.80 593.79 1122.73 622.07 1106.52 648.42 C 1102.11 656.78 1096.32 664.29 1091.20 672.21 C 1084.80 681.38 1078.07 690.32 1070.97 698.96 C 1066.54 703.58 1063.11 709.04 1058.52 713.51 C 1053.16 718.82 1048.21 724.52 1042.88 729.87 C 1037.43 734.40 1032.71 739.72 1027.50 744.51 C 1012.48 757.67 996.96 770.31 980.27 781.30 C 970.93 787.41 961.75 793.83 951.74 798.82 C 944.47 802.52 937.77 807.27 930.19 810.37 C 917.68 815.88 905.48 822.16 892.50 826.53 C 874.50 832.80 856.39 838.89 837.73 842.86 C 820.37 846.62 802.79 849.50 785.10 851.03 C 780.26 852.13 775.25 851.33 770.41 852.38 C 766.65 853.16 762.80 853.17 758.99 852.95 C 752.33 852.61 745.66 853.36 739.00 852.95 C 732.26 852.59 725.44 853.50 718.78 852.16 C 683.45 849.80 648.19 843.60 614.58 832.26 C 604.14 828.91 593.85 825.14 583.67 821.11 C 571.86 815.30 559.37 810.85 548.09 804.01 C 539.60 799.57 531.41 794.62 523.10 789.87 C 506.04 778.48 488.93 767.05 473.39 753.61 C 457.18 739.88 442.28 724.70 427.93 709.06 C 409.57 687.95 393.38 665.01 379.23 640.89 C 375.88 633.75 371.18 627.32 368.06 620.06 C 363.10 610.32 358.49 600.39 354.70 590.13 C 350.48 581.34 347.74 571.95 344.48 562.79 C 340.49 551.53 337.54 539.94 334.85 528.31 C 329.29 507.64 327.03 486.27 324.92 465.02 C 325.11 459.29 323.31 453.73 323.61 448.00 C 323.76 435.32 323.48 422.63 323.74 409.96 C 324.96 403.72 324.70 397.34 325.63 391.07 C 327.02 375.40 329.29 359.80 332.36 344.37 C 336.24 329.42 339.28 314.20 344.64 299.68 C 358.19 257.81 378.78 218.30 404.80 182.82 C 408.75 176.26 414.26 170.86 418.72 164.66 C 426.02 156.02 433.45 147.46 441.49 139.50 C 444.09 136.80 446.21 133.62 449.20 131.30 C 454.24 127.35 458.27 122.30 463.14 118.14 C 467.80 114.15 472.51 110.21 477.02 106.03 C 490.26 95.40 503.86 85.17 518.28 76.18 C 529.03 68.65 540.98 63.11 552.17 56.31 C 559.81 52.39 567.68 48.96 575.55 45.52 C 590.01 38.56 605.25 33.35 620.58 28.66 C 648.21 19.60 677.00 14.46 705.89 11.67 C 711.01 10.85 716.26 11.39 721.35 10.20 M 684.04 71.21 C 660.87 75.48 638.47 83.06 616.52 91.46 C 588.59 103.31 561.24 117.15 536.97 135.49 C 675.97 135.41 814.98 135.37 953.99 135.51 C 941.72 124.85 927.74 116.44 913.83 108.14 C 899.26 100.28 884.44 92.77 868.91 86.95 C 851.81 80.58 834.40 74.83 816.44 71.41 C 772.93 62.32 727.59 62.46 684.04 71.21 M 496.53 167.53 C 464.54 200.47 437.82 238.56 418.07 280.02 C 413.45 290.34 408.56 300.55 405.08 311.33 C 399.77 323.79 396.90 337.06 393.07 350.00 C 389.32 365.86 386.64 381.98 385.23 398.22 C 382.83 415.02 383.47 432.08 384.08 448.98 C 385.65 459.94 386.10 471.04 387.82 481.99 C 389.90 494.33 391.59 506.79 395.23 518.80 C 405.73 561.73 424.72 602.57 450.70 638.31 C 467.09 660.77 486.21 681.38 508.25 698.40 C 514.73 687.67 520.30 676.41 526.59 665.56 C 531.77 655.50 537.56 645.77 542.72 635.70 C 545.95 630.99 547.92 625.50 551.12 620.82 C 570.82 619.85 590.53 622.07 610.25 621.08 C 597.32 607.86 584.55 594.47 573.14 579.90 C 560.87 564.75 550.29 548.28 540.78 531.28 C 538.37 526.59 536.51 521.65 533.93 517.05 C 529.66 508.25 526.81 498.88 523.34 489.77 C 517.78 472.02 515.28 453.50 513.87 435.02 C 513.36 420.93 515.25 406.93 517.17 393.01 C 523.53 356.61 540.29 322.68 562.11 293.10 C 577.26 272.91 594.48 254.16 614.10 238.23 C 607.74 237.91 601.40 238.26 595.06 238.60 C 588.68 238.25 582.37 239.49 576.00 239.25 C 570.63 239.12 565.32 240.13 559.95 240.00 C 556.19 239.98 552.42 241.08 548.69 240.29 C 542.78 231.93 538.95 222.22 533.63 213.46 C 523.98 195.62 514.65 177.58 504.72 159.90 C 501.91 162.36 499.32 165.05 496.53 167.53 M 984.26 159.65 C 969.98 186.63 955.41 213.43 940.92 240.29 C 925.95 240.08 911.00 238.60 896.02 238.41 C 889.11 238.53 882.22 237.39 875.31 237.89 C 877.40 240.74 880.48 242.56 883.00 244.98 C 888.72 249.58 893.50 255.17 898.88 260.13 C 930.81 293.06 956.77 332.88 968.60 377.54 C 976.10 406.80 976.73 437.74 971.30 467.42 C 969.14 479.86 965.07 491.83 960.75 503.66 C 958.30 511.14 954.36 518.00 951.25 525.21 C 949.41 529.82 946.61 533.91 944.21 538.22 C 938.37 549.03 931.43 559.21 924.11 569.06 C 910.68 587.92 894.82 604.86 878.56 621.30 C 890.03 621.42 901.55 621.83 913.00 620.80 C 921.34 620.68 929.69 620.83 938.04 620.73 C 952.30 646.71 966.49 672.74 980.75 698.72 C 1004.32 680.79 1024.34 658.53 1041.53 634.50 C 1067.03 598.11 1085.66 556.81 1095.45 513.43 C 1098.83 501.87 1100.35 489.88 1102.14 478.00 C 1104.04 465.32 1104.63 452.50 1105.47 439.72 C 1106.43 411.11 1103.53 382.41 1097.44 354.44 C 1094.31 343.03 1091.62 331.48 1087.69 320.31 C 1083.98 310.96 1081.21 301.24 1076.78 292.19 C 1059.17 251.24 1034.45 213.44 1004.77 180.22 C 998.28 173.03 991.64 165.93 984.26 159.65 M 737.35 281.35 C 713.52 282.25 690.29 289.94 669.61 301.58 C 655.29 310.08 642.41 320.91 631.49 333.47 C 610.21 358.25 597.10 390.24 596.09 422.99 C 595.52 426.64 595.43 430.34 596.07 433.99 C 596.43 447.85 598.71 461.71 603.07 474.89 C 606.47 483.32 609.30 492.09 614.12 499.86 C 622.89 515.98 634.87 530.30 648.85 542.15 C 657.20 549.44 666.82 555.01 676.38 560.55 C 683.56 564.45 691.27 567.28 698.99 569.91 C 712.68 573.84 726.69 577.41 741.03 577.37 C 759.33 578.20 777.47 574.46 794.78 568.77 C 829.51 556.64 859.51 531.31 876.81 498.81 C 881.72 491.08 884.17 482.17 887.66 473.79 C 894.18 453.32 895.88 431.40 893.24 410.12 C 890.44 386.75 881.22 364.39 867.96 345.04 C 854.30 325.79 836.17 309.75 815.37 298.58 C 795.71 288.64 774.16 281.88 752.02 281.29 C 747.13 280.72 742.23 280.88 737.35 281.35 M 539.61 721.91 C 541.35 723.67 543.25 725.29 545.42 726.53 C 553.86 731.75 561.99 737.50 570.72 742.27 C 585.64 750.31 600.62 758.37 616.52 764.37 C 630.04 770.25 644.03 774.95 658.26 778.82 C 672.92 782.75 687.69 786.37 702.73 788.54 C 727.94 792.14 753.56 793.08 778.94 790.85 C 788.66 789.76 798.47 789.16 808.06 787.03 C 817.71 785.58 827.07 782.73 836.55 780.46 C 850.69 776.65 864.72 772.24 878.08 766.20 C 887.58 762.18 897.05 758.07 906.15 753.20 C 915.82 747.56 925.76 742.36 934.94 735.92 C 941.36 731.33 948.23 727.30 953.93 721.80 C 944.63 721.33 935.31 721.70 926.00 721.59 C 812.67 721.59 699.33 721.59 586.00 721.59 C 570.54 721.78 555.05 721.18 539.61 721.91 Z" />
</g>
<g id="#ffffffff">
<path fill="#ffffff" opacity="1.00" d=" M 684.04 71.21 C 727.59 62.46 772.93 62.32 816.44 71.41 C 834.40 74.83 851.81 80.58 868.91 86.95 C 884.44 92.77 899.26 100.28 913.83 108.14 C 927.74 116.44 941.72 124.85 953.99 135.51 C 814.98 135.37 675.97 135.41 536.97 135.49 C 561.24 117.15 588.59 103.31 616.52 91.46 C 638.47 83.06 660.87 75.48 684.04 71.21 Z" />
<path fill="#ffffff" opacity="1.00" d=" M 496.53 167.53 C 499.32 165.05 501.91 162.36 504.72 159.90 C 514.65 177.58 523.98 195.62 533.63 213.46 C 538.95 222.22 542.78 231.93 548.69 240.29 C 552.42 241.08 556.19 239.98 559.95 240.00 C 565.32 240.13 570.63 239.12 576.00 239.25 C 582.37 239.49 588.68 238.25 595.06 238.60 C 601.40 238.26 607.74 237.91 614.10 238.23 C 594.48 254.16 577.26 272.91 562.11 293.10 C 540.29 322.68 523.53 356.61 517.17 393.01 C 515.25 406.93 513.36 420.93 513.87 435.02 C 515.28 453.50 517.78 472.02 523.34 489.77 C 526.81 498.88 529.66 508.25 533.93 517.05 C 536.51 521.65 538.37 526.59 540.78 531.28 C 550.29 548.28 560.87 564.75 573.14 579.90 C 584.55 594.47 597.32 607.86 610.25 621.08 C 590.53 622.07 570.82 619.85 551.12 620.82 C 547.92 625.50 545.95 630.99 542.72 635.70 C 537.56 645.77 531.77 655.50 526.59 665.56 C 520.30 676.41 514.73 687.67 508.25 698.40 C 486.21 681.38 467.09 660.77 450.70 638.31 C 424.72 602.57 405.73 561.73 395.23 518.80 C 391.59 506.79 389.90 494.33 387.82 481.99 C 386.10 471.04 385.65 459.94 384.08 448.98 C 383.47 432.08 382.83 415.02 385.23 398.22 C 386.64 381.98 389.32 365.86 393.07 350.00 C 396.90 337.06 399.77 323.79 405.08 311.33 C 408.56 300.55 413.45 290.34 418.07 280.02 C 437.82 238.56 464.54 200.47 496.53 167.53 Z" />
<path fill="#ffffff" opacity="1.00" d=" M 984.26 159.65 C 991.64 165.93 998.28 173.03 1004.77 180.22 C 1034.45 213.44 1059.17 251.24 1076.78 292.19 C 1081.21 301.24 1083.98 310.96 1087.69 320.31 C 1091.62 331.48 1094.31 343.03 1097.44 354.44 C 1103.53 382.41 1106.43 411.11 1105.47 439.72 C 1104.63 452.50 1104.04 465.32 1102.14 478.00 C 1100.35 489.88 1098.83 501.87 1095.45 513.43 C 1085.66 556.81 1067.03 598.11 1041.53 634.50 C 1024.34 658.53 1004.32 680.79 980.75 698.72 C 966.49 672.74 952.30 646.71 938.04 620.73 C 929.69 620.83 921.34 620.68 913.00 620.80 C 901.55 621.83 890.03 621.42 878.56 621.30 C 894.82 604.86 910.68 587.92 924.11 569.06 C 931.43 559.21 938.37 549.03 944.21 538.22 C 946.61 533.91 949.41 529.82 951.25 525.21 C 954.36 518.00 958.30 511.14 960.75 503.66 C 965.07 491.83 969.14 479.86 971.30 467.42 C 976.73 437.74 976.10 406.80 968.60 377.54 C 956.77 332.88 930.81 293.06 898.88 260.13 C 893.50 255.17 888.72 249.58 883.00 244.98 C 880.48 242.56 877.40 240.74 875.31 237.89 C 882.22 237.39 889.11 238.53 896.02 238.41 C 911.00 238.60 925.95 240.08 940.92 240.29 C 955.41 213.43 969.98 186.63 984.26 159.65 Z" />
<path fill="#ffffff" opacity="1.00" d=" M 737.35 281.35 C 742.23 280.88 747.13 280.72 752.02 281.29 C 774.16 281.88 795.71 288.64 815.37 298.58 C 836.17 309.75 854.30 325.79 867.96 345.04 C 881.22 364.39 890.44 386.75 893.24 410.12 C 895.88 431.40 894.18 453.32 887.66 473.79 C 884.17 482.17 881.72 491.08 876.81 498.81 C 859.51 531.31 829.51 556.64 794.78 568.77 C 777.47 574.46 759.33 578.20 741.03 577.37 C 726.69 577.41 712.68 573.84 698.99 569.91 C 691.27 567.28 683.56 564.45 676.38 560.55 C 666.82 555.01 657.20 549.44 648.85 542.15 C 634.87 530.30 622.89 515.98 614.12 499.86 C 609.30 492.09 606.47 483.32 603.07 474.89 C 598.71 461.71 596.43 447.85 596.07 433.99 C 595.43 430.34 595.52 426.64 596.09 422.99 C 597.10 390.24 610.21 358.25 631.49 333.47 C 642.41 320.91 655.29 310.08 669.61 301.58 C 690.29 289.94 713.52 282.25 737.35 281.35 Z" />
<path fill="#ffffff" opacity="1.00" d=" M 539.61 721.91 C 555.05 721.18 570.54 721.78 586.00 721.59 C 699.33 721.59 812.67 721.59 926.00 721.59 C 935.31 721.70 944.63 721.33 953.93 721.80 C 948.23 727.30 941.36 731.33 934.94 735.92 C 925.76 742.36 915.82 747.56 906.15 753.20 C 897.05 758.07 887.58 762.18 878.08 766.20 C 864.72 772.24 850.69 776.65 836.55 780.46 C 827.07 782.73 817.71 785.58 808.06 787.03 C 798.47 789.16 788.66 789.76 778.94 790.85 C 753.56 793.08 727.94 792.14 702.73 788.54 C 687.69 786.37 672.92 782.75 658.26 778.82 C 644.03 774.95 630.04 770.25 616.52 764.37 C 600.62 758.37 585.64 750.31 570.72 742.27 C 561.99 737.50 553.86 731.75 545.42 726.53 C 543.25 725.29 541.35 723.67 539.61 721.91 Z" />
</g>
</svg>
