<?xml version="1.0" encoding="UTF-8" ?>
<!DOCTYPE svg PUBLIC "-//W3C//DTD SVG 1.1//EN" "http://www.w3.org/Graphics/SVG/1.1/DTD/svg11.dtd">
<svg width="200pt" height="200pt" viewBox="0 0 950 950" version="1.1" xmlns="http://www.w3.org/2000/svg">
<!-- <svg width="720pt" height="720pt" viewBox="0 0 720 720" version="1.1" xmlns="http://www.w3.org/2000/svg"> -->
<g id="#019746ff">
<path fill="#019746" opacity="1.00" d=" M 347.28 28.94 C 358.85 27.89 370.41 29.50 381.99 29.27 C 389.42 29.05 396.65 31.08 404.06 31.33 C 407.09 31.32 410.08 31.85 412.98 32.71 C 446.17 37.70 478.70 47.79 508.57 63.20 C 520.12 69.13 531.79 75.02 542.41 82.54 C 559.73 93.87 575.78 107.05 591.00 121.05 C 603.34 132.78 614.81 145.46 624.90 159.20 C 641.33 180.16 654.50 203.51 665.45 227.74 C 674.70 248.24 681.36 269.86 685.94 291.86 C 687.10 298.24 689.09 304.46 689.45 310.98 C 692.19 329.52 691.50 348.31 691.53 367.00 C 691.43 373.07 691.71 379.18 690.97 385.22 C 690.47 390.78 691.07 396.38 690.43 401.94 C 688.98 410.67 688.80 419.60 686.71 428.24 C 681.31 455.69 670.77 481.81 659.07 507.11 C 648.92 528.58 635.22 548.10 620.88 566.93 C 613.08 576.71 604.13 585.47 595.90 594.87 C 575.47 615.15 552.58 632.90 528.00 647.87 C 496.10 666.72 461.02 680.47 424.49 686.94 C 418.24 688.71 411.69 688.55 405.33 689.74 C 395.95 691.63 386.33 690.16 376.86 691.09 C 371.91 691.46 366.94 691.23 362.00 690.84 C 348.67 690.52 335.32 691.19 322.00 690.44 C 315.24 689.33 308.36 689.10 301.60 688.07 C 296.55 686.31 291.09 686.48 286.04 684.72 C 269.61 680.96 253.88 674.82 238.05 669.12 C 220.90 662.66 204.27 654.75 188.56 645.30 C 174.38 636.16 160.28 626.70 147.84 615.24 C 141.65 610.46 135.88 605.15 130.51 599.47 C 115.78 585.43 103.30 569.30 91.04 553.12 C 80.68 538.05 70.78 522.59 62.60 506.20 C 55.44 492.66 50.08 478.26 45.02 463.83 C 40.22 447.53 36.15 430.99 33.34 414.21 C 30.84 403.97 31.29 393.36 29.68 382.98 C 28.98 370.44 27.65 357.86 28.86 345.30 C 29.64 340.00 29.02 334.60 29.97 329.33 C 31.22 322.08 31.22 314.64 33.33 307.55 C 36.40 289.74 40.73 272.16 46.09 254.90 C 48.98 244.48 53.42 234.61 57.84 224.78 C 65.74 205.98 76.69 188.71 87.83 171.72 C 95.60 160.66 103.98 150.03 112.88 139.86 C 126.74 122.37 144.45 108.56 161.89 94.86 C 175.48 85.15 189.44 75.89 204.13 67.93 C 215.69 61.08 228.28 56.25 240.62 51.01 C 261.63 43.02 283.33 36.70 305.54 33.05 C 312.66 30.87 320.21 31.47 327.47 30.05 C 334.00 28.73 340.69 29.69 347.28 28.94 M 330.60 57.38 C 283.99 61.47 238.03 76.08 198.61 101.48 C 180.89 113.04 164.83 126.95 149.62 141.59 C 143.84 148.14 137.69 154.34 131.62 160.62 C 129.44 162.79 127.19 165.26 127.08 168.53 C 133.33 172.13 140.35 173.92 147.30 175.60 C 155.20 177.83 163.18 179.83 170.88 182.71 C 170.58 184.79 169.82 186.75 168.74 188.55 C 164.47 195.89 159.21 202.61 154.94 209.95 C 149.17 219.62 145.75 230.45 140.18 240.22 C 135.68 248.37 130.57 256.31 127.87 265.29 C 126.01 272.02 126.28 279.11 126.64 286.02 C 128.37 303.59 136.23 319.64 141.54 336.27 C 143.70 343.39 147.34 350.38 146.68 358.04 C 146.71 365.26 140.89 370.75 135.08 374.13 C 120.55 382.85 103.33 384.12 87.29 388.41 C 84.93 389.10 82.03 389.18 80.57 391.51 C 92.43 392.28 104.19 389.77 116.03 389.71 C 122.16 390.24 129.77 390.70 133.28 396.62 C 133.81 399.62 134.79 403.83 131.90 405.91 C 128.52 408.58 124.30 410.34 119.98 410.52 C 112.50 411.00 105.05 412.04 97.72 413.64 C 96.33 413.78 95.30 414.63 95.01 416.02 C 106.48 417.88 118.18 411.87 129.47 415.64 C 134.68 417.33 134.78 423.52 134.33 428.05 C 132.63 441.83 126.81 454.73 125.24 468.54 C 124.18 475.05 124.66 481.82 126.97 488.03 C 133.43 505.94 145.51 520.98 157.42 535.56 C 170.15 550.76 183.29 565.92 199.38 577.70 C 212.52 587.63 227.07 595.43 241.48 603.32 C 241.51 603.96 241.58 605.24 241.61 605.88 C 239.16 606.65 236.60 607.44 234.01 607.04 C 218.45 605.65 203.80 598.66 188.05 598.70 C 183.82 599.20 178.79 599.74 176.39 603.80 C 196.89 618.75 219.23 631.09 242.25 641.72 C 276.03 655.78 312.38 664.09 349.00 664.94 C 362.68 665.83 376.35 664.72 390.03 664.48 C 398.59 663.79 407.15 663.05 415.66 661.87 C 435.35 658.91 454.65 653.50 473.05 645.91 C 510.74 630.68 544.73 607.09 573.73 578.74 C 602.18 550.74 626.00 517.88 642.73 481.59 C 648.40 469.27 653.35 456.60 656.67 443.43 C 665.24 410.41 668.05 376.00 665.69 342.00 C 665.45 331.75 664.78 321.44 662.28 311.46 C 659.91 301.91 659.23 292.07 657.26 282.45 C 652.19 260.60 643.28 239.85 633.16 219.92 C 626.03 205.58 617.06 192.29 607.58 179.43 C 597.00 164.58 584.25 151.47 571.26 138.74 C 556.06 123.87 539.04 110.89 520.65 100.20 C 504.61 90.99 488.44 81.58 470.73 75.90 C 456.44 70.75 442.34 64.90 427.40 61.84 C 395.66 55.11 362.82 53.73 330.60 57.38 Z" />
<path fill="#019746" opacity="1.00" d=" M 233.22 115.19 C 244.29 108.60 257.51 107.88 270.01 106.62 C 280.67 106.31 291.34 106.42 302.00 106.76 C 309.28 107.74 316.64 107.49 323.96 107.97 C 335.97 108.85 348.03 108.19 359.96 106.62 C 367.44 106.37 375.40 105.20 382.40 108.59 C 392.37 113.42 401.41 120.01 409.78 127.22 C 414.13 130.89 418.08 135.18 420.59 140.34 C 423.70 146.71 425.46 153.62 427.32 160.44 C 429.86 169.98 432.04 180.35 428.77 189.99 C 425.14 200.30 414.58 206.43 411.48 216.95 C 414.04 219.91 417.26 222.65 418.30 226.58 C 419.69 234.63 419.02 242.86 419.96 250.96 C 420.83 262.29 421.79 273.62 421.71 285.00 C 422.71 296.34 422.41 307.83 420.22 319.03 C 419.19 324.29 418.90 329.68 419.30 335.03 C 422.15 336.65 426.86 337.99 426.55 342.08 C 426.51 347.41 421.89 351.04 418.35 354.39 C 414.28 358.36 408.33 359.15 402.92 359.62 C 393.24 359.85 383.40 360.17 373.94 357.80 C 355.03 353.40 338.84 341.09 326.94 326.07 C 321.77 319.08 317.80 311.18 315.65 302.74 C 312.52 292.56 312.97 281.76 313.63 271.27 C 316.22 253.75 323.34 236.57 335.48 223.49 C 339.67 218.77 346.10 215.27 346.70 208.33 C 340.81 208.28 335.21 210.41 330.01 213.00 C 323.97 215.93 318.13 219.58 313.55 224.56 C 309.59 228.84 309.53 235.30 305.72 239.65 C 302.84 242.80 298.42 240.42 295.66 238.34 C 289.70 233.11 285.53 226.22 281.48 219.50 C 275.67 209.22 269.62 199.03 265.20 188.05 C 263.93 185.37 263.21 182.07 260.37 180.57 C 258.05 198.59 271.99 213.81 270.56 231.76 C 268.30 231.02 265.95 230.42 263.91 229.16 C 258.55 225.92 255.39 220.06 249.92 216.96 C 253.87 226.37 260.55 234.30 266.54 242.45 C 273.69 251.56 281.42 260.59 291.49 266.57 C 295.46 269.20 300.43 271.29 302.33 276.00 C 301.77 280.41 299.72 284.53 299.62 289.01 C 299.44 294.01 299.85 299.03 299.16 304.00 C 297.54 313.96 293.96 323.51 289.39 332.48 C 286.61 338.97 283.09 345.19 281.38 352.09 C 289.79 348.77 292.73 339.55 297.97 332.98 C 300.37 329.98 302.94 326.39 307.17 326.16 C 311.70 333.60 311.84 342.67 310.60 351.04 C 310.65 355.34 307.69 358.84 307.33 363.05 C 306.89 367.92 303.43 371.92 303.29 376.86 C 307.59 374.33 309.98 369.84 313.42 366.40 C 316.13 363.79 319.94 362.65 323.62 362.39 C 321.97 372.84 314.32 380.97 308.05 389.03 C 302.70 396.35 293.77 399.10 285.93 402.81 C 281.96 404.64 277.39 406.73 275.85 411.18 C 279.21 411.72 282.65 411.97 286.05 411.57 C 298.38 409.40 308.85 401.06 321.43 399.95 C 321.62 403.98 321.71 408.03 321.29 412.05 C 318.75 424.91 314.73 437.73 315.31 450.98 C 315.10 463.08 320.73 474.15 323.55 485.68 C 324.65 490.30 326.58 495.41 324.25 499.99 C 320.99 506.93 313.25 510.67 310.63 518.06 C 310.18 522.66 310.32 527.41 308.72 531.84 C 305.39 542.33 300.72 553.16 302.77 564.40 C 305.85 574.18 314.59 580.57 322.44 586.47 C 328.78 591.38 336.34 594.90 341.51 601.18 C 336.11 602.81 330.34 602.49 324.93 604.22 C 314.60 605.55 303.61 609.62 293.47 605.42 C 288.51 603.82 287.96 597.78 284.88 594.23 C 283.10 591.57 279.71 591.50 276.85 591.38 C 276.16 593.81 275.71 596.30 275.31 598.80 C 273.67 598.57 271.57 599.07 270.41 597.58 C 264.32 588.49 266.58 575.01 257.56 567.70 C 256.18 578.13 259.85 588.42 258.51 598.85 C 253.88 599.19 249.94 596.13 247.86 592.19 C 241.58 579.85 242.57 565.46 238.40 552.52 C 236.04 551.03 233.95 554.19 233.56 556.25 C 231.82 567.53 236.83 578.58 235.23 589.88 C 232.41 589.66 229.31 589.89 226.95 588.04 C 222.53 585.09 221.55 579.45 220.85 574.58 C 220.16 566.97 218.25 559.55 217.22 551.99 C 215.74 542.78 215.26 533.10 210.92 524.65 C 206.31 530.60 207.17 538.49 207.87 545.50 C 208.84 550.83 208.89 556.26 208.74 561.66 C 206.30 561.68 203.84 561.93 201.43 561.50 C 197.88 559.79 195.67 556.13 194.39 552.53 C 190.80 542.42 190.61 531.55 188.62 521.09 C 188.44 519.21 187.28 517.72 186.11 516.34 C 184.77 517.86 183.19 519.38 182.86 521.50 C 182.25 526.63 183.13 531.84 182.41 536.98 C 181.75 539.13 179.66 540.38 178.07 541.82 C 176.12 540.47 173.93 539.14 173.09 536.78 C 167.83 525.07 170.45 511.63 166.31 499.61 C 165.53 497.79 164.20 496.30 162.95 494.81 C 160.53 500.33 162.23 506.40 161.72 512.20 C 155.37 511.21 152.89 504.57 150.88 499.32 C 147.48 488.21 145.61 476.61 145.29 465.00 C 144.61 456.53 144.42 447.76 146.72 439.52 C 154.61 437.61 161.55 442.98 167.02 447.97 C 172.25 452.49 174.83 459.54 180.80 463.26 C 183.68 464.82 186.34 462.18 188.55 460.63 C 199.82 451.35 213.79 445.47 228.28 443.74 C 235.25 443.07 242.24 442.72 249.23 442.38 C 243.41 436.74 234.49 437.88 227.08 437.03 C 221.36 436.43 215.84 434.33 210.03 434.55 C 202.57 434.64 193.72 433.51 189.03 426.99 C 185.97 422.95 185.76 417.63 185.55 412.78 C 190.62 410.05 196.41 409.19 202.05 408.49 C 210.08 408.01 218.31 407.70 226.13 409.92 C 229.09 410.75 232.18 410.72 235.22 410.50 C 234.58 409.22 233.61 408.20 232.24 407.75 C 214.65 399.65 194.67 398.88 177.06 390.86 C 173.07 389.20 169.59 386.24 167.78 382.26 C 164.65 375.58 162.29 368.43 161.67 361.04 C 161.46 356.16 161.82 350.44 165.90 347.09 C 171.52 351.39 172.27 358.85 175.12 364.85 C 175.76 364.83 177.04 364.78 177.68 364.75 C 179.75 360.47 180.70 355.74 180.42 350.99 C 180.29 344.34 180.67 337.68 180.28 331.03 C 180.12 327.59 178.03 324.65 175.42 322.56 C 170.39 318.30 164.18 315.87 158.76 312.20 C 156.37 310.61 154.81 308.03 154.08 305.29 C 149.65 289.97 146.66 274.00 147.69 258.00 C 148.53 249.15 150.43 240.26 154.66 232.37 C 160.15 222.02 167.94 213.17 174.78 203.73 C 178.42 198.68 182.99 194.23 185.61 188.51 C 189.69 179.95 192.38 170.68 197.91 162.86 C 204.33 152.23 214.08 144.08 219.96 133.10 C 223.58 126.64 226.81 119.40 233.22 115.19 Z" />
<path fill="#019746" opacity="1.00" d=" M 466.57 134.47 C 478.09 134.41 489.45 131.93 500.99 132.21 C 508.61 132.44 516.25 131.41 523.86 132.07 C 529.61 132.33 533.33 137.20 537.06 140.94 C 548.41 153.87 556.22 169.83 559.57 186.70 C 561.80 194.95 562.18 203.58 561.42 212.07 C 560.82 216.36 558.90 220.33 556.55 223.92 C 553.33 223.73 550.61 221.77 549.10 218.98 C 543.33 208.62 545.29 195.50 538.60 185.55 C 538.29 185.49 537.67 185.36 537.37 185.30 C 533.75 192.26 536.99 199.85 538.10 206.99 C 539.20 214.70 538.70 222.56 537.44 230.22 C 540.65 232.19 545.70 231.74 546.89 236.10 C 542.99 238.76 538.19 239.40 533.69 240.47 C 517.06 244.37 500.08 246.99 483.00 247.66 C 468.86 249.27 454.56 248.28 440.51 246.30 C 439.89 237.06 443.66 228.25 443.47 219.04 C 443.47 208.19 442.07 197.39 441.07 186.60 C 437.44 171.03 432.88 155.64 430.41 139.81 C 435.64 136.46 442.10 136.75 447.99 135.72 C 454.20 135.57 460.35 134.59 466.57 134.47 Z" />
<path fill="#019746" opacity="1.00" d=" M 540.15 252.39 C 550.01 250.95 560.04 251.30 569.96 251.52 C 576.18 251.92 583.77 252.83 587.30 258.70 C 589.80 264.12 589.24 271.10 594.16 275.27 C 594.64 269.03 593.83 261.81 598.82 257.07 C 604.28 259.01 609.49 263.82 609.50 269.98 C 609.88 281.60 609.64 293.24 609.37 304.86 C 608.13 314.57 608.70 324.42 607.04 334.10 C 604.62 344.89 603.67 356.12 599.32 366.39 C 598.20 369.62 593.99 368.56 591.63 367.43 C 589.46 366.65 587.14 364.21 584.77 365.65 C 580.61 368.23 577.37 372.42 572.47 373.69 C 567.67 375.43 563.00 370.60 562.64 366.02 C 562.00 357.87 563.62 349.65 562.27 341.54 C 558.26 344.12 557.72 349.28 556.12 353.38 C 552.78 362.46 551.51 372.60 545.45 380.44 C 540.85 386.22 532.62 385.75 525.99 385.23 C 515.67 383.59 505.31 385.59 494.96 385.66 C 478.00 386.78 460.97 386.72 443.98 386.63 C 435.61 386.76 427.35 385.21 418.99 385.24 C 411.99 385.21 404.95 384.92 397.98 385.73 C 387.94 387.11 378.15 390.11 367.98 390.55 C 361.15 390.79 354.20 390.94 347.54 389.18 C 342.37 388.02 337.68 384.29 335.88 379.25 C 332.70 371.72 332.90 363.22 334.81 355.40 C 344.92 354.67 353.55 360.70 362.43 364.52 C 375.58 369.47 390.21 371.12 404.00 368.05 C 415.91 365.68 427.99 360.26 435.33 350.23 C 440.74 342.30 437.66 332.41 436.74 323.67 C 435.02 312.88 435.36 301.92 435.56 291.03 C 436.35 281.98 439.16 271.64 447.86 267.11 C 450.33 266.05 454.09 264.06 456.07 266.93 C 459.18 269.96 459.94 274.64 459.10 278.76 C 458.48 282.43 457.61 286.95 461.03 289.57 C 463.86 283.29 462.96 275.66 466.89 269.91 C 473.97 266.48 482.06 266.59 489.52 264.42 C 506.33 260.12 523.12 255.71 540.15 252.39 Z" />
<path fill="#019746" opacity="1.00" d=" M 346.92 401.11 C 364.42 397.97 382.25 397.32 400.01 397.70 C 428.64 399.19 457.34 398.20 486.00 398.39 C 499.98 398.61 514.02 397.98 527.95 399.30 C 537.01 399.13 545.98 400.38 555.01 400.81 C 564.09 401.86 573.38 402.72 581.89 406.32 C 585.54 407.67 590.54 408.76 591.38 413.27 C 593.17 433.46 588.13 453.39 583.62 472.90 C 577.98 473.37 574.27 468.05 573.76 462.97 C 573.25 456.65 573.64 450.29 574.27 444.00 C 574.51 440.07 574.51 435.74 572.05 432.44 C 568.38 440.43 566.60 449.11 564.60 457.63 C 562.85 466.67 560.65 475.66 559.82 484.84 C 561.63 488.89 565.43 492.26 565.38 497.00 C 565.46 501.79 561.60 505.41 557.96 507.95 C 551.47 512.08 543.90 515.32 536.05 514.42 C 524.71 513.22 514.09 508.59 502.89 506.70 C 493.66 506.23 484.47 505.23 475.33 503.95 C 471.48 503.45 467.91 501.60 464.01 501.47 C 455.04 501.24 446.03 501.84 437.07 501.17 C 429.59 500.01 422.05 499.16 414.64 497.62 C 413.38 490.50 412.94 483.17 414.33 476.03 C 415.35 467.84 418.88 458.76 413.86 451.18 C 413.20 451.21 411.86 451.27 411.19 451.31 C 408.06 456.48 407.56 462.62 406.79 468.47 C 406.14 474.38 407.18 480.54 405.14 486.25 C 403.94 489.47 400.82 491.55 397.51 492.06 C 385.81 494.31 373.84 493.13 362.00 493.39 C 355.91 493.59 348.90 493.30 344.43 488.56 C 336.96 481.09 335.65 469.99 334.64 460.00 C 334.48 445.75 333.41 430.94 338.58 417.35 C 340.16 413.27 341.31 409.02 343.11 405.03 C 343.90 403.38 345.07 401.63 346.92 401.11 Z" />
<path fill="#019746" opacity="1.00" d=" M 328.01 510.15 C 337.58 506.59 347.78 504.82 358.00 505.24 C 373.15 504.79 387.96 508.36 402.99 509.41 C 412.08 509.44 421.03 511.52 430.13 511.46 C 444.44 511.59 459.27 511.01 472.86 516.24 C 478.95 518.41 484.10 522.61 490.32 524.46 C 497.89 527.20 506.21 524.17 513.78 526.92 C 519.60 528.78 523.50 534.29 525.06 539.99 C 527.64 553.57 522.56 566.80 519.96 579.97 C 519.25 583.38 517.83 586.90 514.67 588.74 C 505.45 594.89 494.62 597.98 484.11 601.14 C 475.36 603.64 466.90 607.11 458.09 609.42 C 452.45 610.75 446.16 611.57 440.76 608.95 C 436.78 607.13 432.66 605.45 428.29 604.87 C 416.55 603.51 404.73 605.11 392.97 604.48 C 383.08 603.66 374.59 597.93 367.04 591.95 C 364.96 590.30 363.40 588.07 362.57 585.56 C 360.20 578.64 360.35 571.22 360.28 564.00 C 360.22 555.32 360.65 546.65 360.57 537.97 C 358.84 540.57 356.77 543.08 355.97 546.17 C 354.13 554.66 352.15 563.24 352.55 572.00 C 352.40 578.45 353.28 585.07 351.44 591.36 C 347.11 591.45 342.22 591.26 338.89 588.10 C 335.78 585.48 334.64 581.39 333.79 577.58 C 331.68 559.95 337.65 542.90 340.68 525.79 C 339.16 526.82 337.55 527.87 336.58 529.49 C 332.00 536.86 330.29 545.52 329.03 553.98 C 328.41 558.79 327.74 563.85 325.04 568.00 C 323.81 570.10 320.84 570.27 318.94 569.07 C 315.33 566.92 313.09 563.24 310.59 559.99 C 314.49 547.08 316.11 533.64 319.79 520.68 C 321.03 516.31 323.43 511.71 328.01 510.15 Z" />
</g>
<g id="#fefefeff">
<path fill="#fefefe" opacity="1.00" d=" M 330.60 57.38 C 362.82 53.73 395.66 55.11 427.40 61.84 C 442.34 64.90 456.44 70.75 470.73 75.90 C 488.44 81.58 504.61 90.99 520.65 100.20 C 539.04 110.89 556.06 123.87 571.26 138.74 C 584.25 151.47 597.00 164.58 607.58 179.43 C 617.06 192.29 626.03 205.58 633.16 219.92 C 643.28 239.85 652.19 260.60 657.26 282.45 C 659.23 292.07 659.91 301.91 662.28 311.46 C 664.78 321.44 665.45 331.75 665.69 342.00 C 668.05 376.00 665.24 410.41 656.67 443.43 C 653.35 456.60 648.40 469.27 642.73 481.59 C 626.00 517.88 602.18 550.74 573.73 578.74 C 544.73 607.09 510.74 630.68 473.05 645.91 C 454.65 653.50 435.35 658.91 415.66 661.87 C 407.15 663.05 398.59 663.79 390.03 664.48 C 376.35 664.72 362.68 665.83 349.00 664.94 C 312.38 664.09 276.03 655.78 242.25 641.72 C 219.23 631.09 196.89 618.75 176.39 603.80 C 178.79 599.74 183.82 599.20 188.05 598.70 C 203.80 598.66 218.45 605.65 234.01 607.04 C 236.60 607.44 239.16 606.65 241.61 605.88 C 241.58 605.24 241.51 603.96 241.48 603.32 C 227.07 595.43 212.52 587.63 199.38 577.70 C 183.29 565.92 170.15 550.76 157.42 535.56 C 145.51 520.98 133.43 505.94 126.97 488.03 C 124.66 481.82 124.18 475.05 125.24 468.54 C 126.81 454.73 132.63 441.83 134.33 428.05 C 134.78 423.52 134.68 417.33 129.47 415.64 C 118.18 411.87 106.48 417.88 95.01 416.02 C 95.30 414.63 96.33 413.78 97.72 413.64 C 105.05 412.04 112.50 411.00 119.98 410.52 C 124.30 410.34 128.52 408.58 131.90 405.91 C 134.79 403.83 133.81 399.62 133.28 396.62 C 129.77 390.70 122.16 390.24 116.03 389.71 C 104.19 389.77 92.43 392.28 80.57 391.51 C 82.03 389.18 84.93 389.10 87.29 388.41 C 103.33 384.12 120.55 382.85 135.08 374.13 C 140.89 370.75 146.71 365.26 146.68 358.04 C 147.34 350.38 143.70 343.39 141.54 336.27 C 136.23 319.64 128.37 303.59 126.64 286.02 C 126.28 279.11 126.01 272.02 127.87 265.29 C 130.57 256.31 135.68 248.37 140.18 240.22 C 145.75 230.45 149.17 219.62 154.94 209.95 C 159.21 202.61 164.47 195.89 168.74 188.55 C 169.82 186.75 170.58 184.79 170.88 182.71 C 163.18 179.83 155.20 177.83 147.30 175.60 C 140.35 173.92 133.33 172.13 127.08 168.53 C 127.19 165.26 129.44 162.79 131.62 160.62 C 137.69 154.34 143.84 148.14 149.62 141.59 C 164.83 126.95 180.89 113.04 198.61 101.48 C 238.03 76.08 283.99 61.47 330.60 57.38 M 233.22 115.19 C 226.81 119.40 223.58 126.64 219.96 133.10 C 214.08 144.08 204.33 152.23 197.91 162.86 C 192.38 170.68 189.69 179.95 185.61 188.51 C 182.99 194.23 178.42 198.68 174.78 203.73 C 167.94 213.17 160.15 222.02 154.66 232.37 C 150.43 240.26 148.53 249.15 147.69 258.00 C 146.66 274.00 149.65 289.97 154.08 305.29 C 154.81 308.03 156.37 310.61 158.76 312.20 C 164.18 315.87 170.39 318.30 175.42 322.56 C 178.03 324.65 180.12 327.59 180.28 331.03 C 180.67 337.68 180.29 344.34 180.42 350.99 C 180.70 355.74 179.75 360.47 177.68 364.75 C 177.04 364.78 175.76 364.83 175.12 364.85 C 172.27 358.85 171.52 351.39 165.90 347.09 C 161.82 350.44 161.46 356.16 161.67 361.04 C 162.29 368.43 164.65 375.58 167.78 382.26 C 169.59 386.24 173.07 389.20 177.06 390.86 C 194.67 398.88 214.65 399.65 232.24 407.75 C 233.61 408.20 234.58 409.22 235.22 410.50 C 232.18 410.72 229.09 410.75 226.13 409.92 C 218.31 407.70 210.08 408.01 202.05 408.49 C 196.41 409.19 190.62 410.05 185.55 412.78 C 185.76 417.63 185.97 422.95 189.03 426.99 C 193.72 433.51 202.57 434.64 210.03 434.55 C 215.84 434.33 221.36 436.43 227.08 437.03 C 234.49 437.88 243.41 436.74 249.23 442.38 C 242.24 442.72 235.25 443.07 228.28 443.74 C 213.79 445.47 199.82 451.35 188.55 460.63 C 186.34 462.18 183.68 464.82 180.80 463.26 C 174.83 459.54 172.25 452.49 167.02 447.97 C 161.55 442.98 154.61 437.61 146.72 439.52 C 144.42 447.76 144.61 456.53 145.29 465.00 C 145.61 476.61 147.48 488.21 150.88 499.32 C 152.89 504.57 155.37 511.21 161.72 512.20 C 162.23 506.40 160.53 500.33 162.95 494.81 C 164.20 496.30 165.53 497.79 166.31 499.61 C 170.45 511.63 167.83 525.07 173.09 536.78 C 173.93 539.14 176.12 540.47 178.07 541.82 C 179.66 540.38 181.75 539.13 182.41 536.98 C 183.13 531.84 182.25 526.63 182.86 521.50 C 183.19 519.38 184.77 517.86 186.11 516.34 C 187.28 517.72 188.44 519.21 188.62 521.09 C 190.61 531.55 190.80 542.42 194.39 552.53 C 195.67 556.13 197.88 559.79 201.43 561.50 C 203.84 561.93 206.30 561.68 208.74 561.66 C 208.89 556.26 208.84 550.83 207.87 545.50 C 207.17 538.49 206.31 530.60 210.92 524.65 C 215.26 533.10 215.74 542.78 217.22 551.99 C 218.25 559.55 220.16 566.97 220.85 574.58 C 221.55 579.45 222.53 585.09 226.95 588.04 C 229.31 589.89 232.41 589.66 235.23 589.88 C 236.83 578.58 231.82 567.53 233.56 556.25 C 233.95 554.19 236.04 551.03 238.40 552.52 C 242.57 565.46 241.58 579.85 247.86 592.19 C 249.94 596.13 253.88 599.19 258.51 598.85 C 259.85 588.42 256.18 578.13 257.56 567.70 C 266.58 575.01 264.32 588.49 270.41 597.58 C 271.57 599.07 273.67 598.57 275.31 598.80 C 275.71 596.30 276.16 593.81 276.85 591.38 C 279.71 591.50 283.10 591.57 284.88 594.23 C 287.96 597.78 288.51 603.82 293.47 605.42 C 303.61 609.62 314.60 605.55 324.93 604.22 C 330.34 602.49 336.11 602.81 341.51 601.18 C 336.34 594.90 328.78 591.38 322.44 586.47 C 314.59 580.57 305.85 574.18 302.77 564.40 C 300.72 553.16 305.39 542.33 308.72 531.84 C 310.32 527.41 310.18 522.66 310.63 518.06 C 313.25 510.67 320.99 506.93 324.25 499.99 C 326.58 495.41 324.65 490.30 323.55 485.68 C 320.73 474.15 315.10 463.08 315.31 450.98 C 314.73 437.73 318.75 424.91 321.29 412.05 C 321.71 408.03 321.62 403.98 321.43 399.95 C 308.85 401.06 298.38 409.40 286.05 411.57 C 282.65 411.97 279.21 411.72 275.85 411.18 C 277.39 406.73 281.96 404.64 285.93 402.81 C 293.77 399.10 302.70 396.35 308.05 389.03 C 314.32 380.97 321.97 372.84 323.62 362.39 C 319.94 362.65 316.13 363.79 313.42 366.40 C 309.98 369.84 307.59 374.33 303.29 376.86 C 303.43 371.92 306.89 367.92 307.33 363.05 C 307.69 358.84 310.65 355.34 310.60 351.04 C 311.84 342.67 311.70 333.60 307.17 326.16 C 302.94 326.39 300.37 329.98 297.97 332.98 C 292.73 339.55 289.79 348.77 281.38 352.09 C 283.09 345.19 286.61 338.97 289.39 332.48 C 293.96 323.51 297.54 313.96 299.16 304.00 C 299.85 299.03 299.44 294.01 299.62 289.01 C 299.72 284.53 301.77 280.41 302.33 276.00 C 300.43 271.29 295.46 269.20 291.49 266.57 C 281.42 260.59 273.69 251.56 266.54 242.45 C 260.55 234.30 253.87 226.37 249.92 216.96 C 255.39 220.06 258.55 225.92 263.91 229.16 C 265.95 230.42 268.30 231.02 270.56 231.76 C 271.99 213.81 258.05 198.59 260.37 180.57 C 263.21 182.07 263.93 185.37 265.20 188.05 C 269.62 199.03 275.67 209.22 281.48 219.50 C 285.53 226.22 289.70 233.11 295.66 238.34 C 298.42 240.42 302.84 242.80 305.72 239.65 C 309.53 235.30 309.59 228.84 313.55 224.56 C 318.13 219.58 323.97 215.93 330.01 213.00 C 335.21 210.41 340.81 208.28 346.70 208.33 C 346.10 215.27 339.67 218.77 335.48 223.49 C 323.34 236.57 316.22 253.75 313.63 271.27 C 312.97 281.76 312.52 292.56 315.65 302.74 C 317.80 311.18 321.77 319.08 326.94 326.07 C 338.84 341.09 355.03 353.40 373.94 357.80 C 383.40 360.17 393.24 359.85 402.92 359.62 C 408.33 359.15 414.28 358.36 418.35 354.39 C 421.89 351.04 426.51 347.41 426.55 342.08 C 426.86 337.99 422.15 336.65 419.30 335.03 C 418.90 329.68 419.19 324.29 420.22 319.03 C 422.41 307.83 422.71 296.34 421.71 285.00 C 421.79 273.62 420.83 262.29 419.96 250.96 C 419.02 242.86 419.69 234.63 418.30 226.58 C 417.26 222.65 414.04 219.91 411.48 216.95 C 414.58 206.43 425.14 200.30 428.77 189.99 C 432.04 180.35 429.86 169.98 427.32 160.44 C 425.46 153.62 423.70 146.71 420.59 140.34 C 418.08 135.18 414.13 130.89 409.78 127.22 C 401.41 120.01 392.37 113.42 382.40 108.59 C 375.40 105.20 367.44 106.37 359.96 106.62 C 348.03 108.19 335.97 108.85 323.96 107.97 C 316.64 107.49 309.28 107.74 302.00 106.76 C 291.34 106.42 280.67 106.31 270.01 106.62 C 257.51 107.88 244.29 108.60 233.22 115.19 M 466.57 134.47 C 460.35 134.59 454.20 135.57 447.99 135.72 C 442.10 136.75 435.64 136.46 430.41 139.81 C 432.88 155.64 437.44 171.03 441.07 186.60 C 442.07 197.39 443.47 208.19 443.47 219.04 C 443.66 228.25 439.89 237.06 440.51 246.30 C 454.56 248.28 468.86 249.27 483.00 247.66 C 500.08 246.99 517.06 244.37 533.69 240.47 C 538.19 239.40 542.99 238.76 546.89 236.10 C 545.70 231.74 540.65 232.19 537.44 230.22 C 538.70 222.56 539.20 214.70 538.10 206.99 C 536.99 199.85 533.75 192.26 537.37 185.30 C 537.67 185.36 538.29 185.49 538.60 185.55 C 545.29 195.50 543.33 208.62 549.10 218.98 C 550.61 221.77 553.33 223.73 556.55 223.92 C 558.90 220.33 560.82 216.36 561.42 212.07 C 562.18 203.58 561.80 194.95 559.57 186.70 C 556.22 169.83 548.41 153.87 537.06 140.94 C 533.33 137.20 529.61 132.33 523.86 132.07 C 516.25 131.41 508.61 132.44 500.99 132.21 C 489.45 131.93 478.09 134.41 466.57 134.47 M 540.15 252.39 C 523.12 255.71 506.33 260.12 489.52 264.42 C 482.06 266.59 473.97 266.48 466.89 269.91 C 462.96 275.66 463.86 283.29 461.03 289.57 C 457.61 286.95 458.48 282.43 459.10 278.76 C 459.94 274.64 459.18 269.96 456.07 266.93 C 454.09 264.06 450.33 266.05 447.86 267.11 C 439.16 271.64 436.35 281.98 435.56 291.03 C 435.36 301.92 435.02 312.88 436.74 323.67 C 437.66 332.41 440.74 342.30 435.33 350.23 C 427.99 360.26 415.91 365.68 404.00 368.05 C 390.21 371.12 375.58 369.47 362.43 364.52 C 353.55 360.70 344.92 354.67 334.81 355.40 C 332.90 363.22 332.70 371.72 335.88 379.25 C 337.68 384.29 342.37 388.02 347.54 389.18 C 354.20 390.94 361.15 390.79 367.98 390.55 C 378.15 390.11 387.94 387.11 397.98 385.73 C 404.95 384.92 411.99 385.21 418.99 385.24 C 427.35 385.21 435.61 386.76 443.98 386.63 C 460.97 386.72 478.00 386.78 494.96 385.66 C 505.31 385.59 515.67 383.59 525.99 385.23 C 532.62 385.75 540.85 386.22 545.45 380.44 C 551.51 372.60 552.78 362.46 556.12 353.38 C 557.72 349.28 558.26 344.12 562.27 341.54 C 563.62 349.65 562.00 357.87 562.64 366.02 C 563.00 370.60 567.67 375.43 572.47 373.69 C 577.37 372.42 580.61 368.23 584.77 365.65 C 587.14 364.21 589.46 366.65 591.63 367.43 C 593.99 368.56 598.20 369.62 599.32 366.39 C 603.67 356.12 604.62 344.89 607.04 334.10 C 608.70 324.42 608.13 314.57 609.37 304.86 C 609.64 293.24 609.88 281.60 609.50 269.98 C 609.49 263.82 604.28 259.01 598.82 257.07 C 593.83 261.81 594.64 269.03 594.16 275.27 C 589.24 271.10 589.80 264.12 587.30 258.70 C 583.77 252.83 576.18 251.92 569.96 251.52 C 560.04 251.30 550.01 250.95 540.15 252.39 M 346.92 401.11 C 345.07 401.63 343.90 403.38 343.11 405.03 C 341.31 409.02 340.16 413.27 338.58 417.35 C 333.41 430.94 334.48 445.75 334.64 460.00 C 335.65 469.99 336.96 481.09 344.43 488.56 C 348.90 493.30 355.91 493.59 362.00 493.39 C 373.84 493.13 385.81 494.31 397.51 492.06 C 400.82 491.55 403.94 489.47 405.14 486.25 C 407.18 480.54 406.14 474.38 406.79 468.47 C 407.56 462.62 408.06 456.48 411.19 451.31 C 411.86 451.27 413.20 451.21 413.86 451.18 C 418.88 458.76 415.35 467.84 414.33 476.03 C 412.94 483.17 413.38 490.50 414.64 497.62 C 422.05 499.16 429.59 500.01 437.07 501.17 C 446.03 501.84 455.04 501.24 464.01 501.47 C 467.91 501.60 471.48 503.45 475.33 503.95 C 484.47 505.23 493.66 506.23 502.89 506.70 C 514.09 508.59 524.71 513.22 536.05 514.42 C 543.90 515.32 551.47 512.08 557.96 507.95 C 561.60 505.41 565.46 501.79 565.38 497.00 C 565.43 492.26 561.63 488.89 559.82 484.84 C 560.65 475.66 562.85 466.67 564.60 457.63 C 566.60 449.11 568.38 440.43 572.05 432.44 C 574.51 435.74 574.51 440.07 574.27 444.00 C 573.64 450.29 573.25 456.65 573.76 462.97 C 574.27 468.05 577.98 473.37 583.62 472.90 C 588.13 453.39 593.17 433.46 591.38 413.27 C 590.54 408.76 585.54 407.67 581.89 406.32 C 573.38 402.72 564.09 401.86 555.01 400.81 C 545.98 400.38 537.01 399.13 527.95 399.30 C 514.02 397.98 499.98 398.61 486.00 398.39 C 457.34 398.20 428.64 399.19 400.01 397.70 C 382.25 397.32 364.42 397.97 346.92 401.11 M 328.01 510.15 C 323.43 511.71 321.03 516.31 319.79 520.68 C 316.11 533.64 314.49 547.08 310.59 559.99 C 313.09 563.24 315.33 566.92 318.94 569.07 C 320.84 570.27 323.81 570.10 325.04 568.00 C 327.74 563.85 328.41 558.79 329.03 553.98 C 330.29 545.52 332.00 536.86 336.58 529.49 C 337.55 527.87 339.16 526.82 340.68 525.79 C 337.65 542.90 331.68 559.95 333.79 577.58 C 334.64 581.39 335.78 585.48 338.89 588.10 C 342.22 591.26 347.11 591.45 351.44 591.36 C 353.28 585.07 352.40 578.45 352.55 572.00 C 352.15 563.24 354.13 554.66 355.97 546.17 C 356.77 543.08 358.84 540.57 360.57 537.97 C 360.65 546.65 360.22 555.32 360.28 564.00 C 360.35 571.22 360.20 578.64 362.57 585.56 C 363.40 588.07 364.96 590.30 367.04 591.95 C 374.59 597.93 383.08 603.66 392.97 604.48 C 404.73 605.11 416.55 603.51 428.29 604.87 C 432.66 605.45 436.78 607.13 440.76 608.95 C 446.16 611.57 452.45 610.75 458.09 609.42 C 466.90 607.11 475.36 603.64 484.11 601.14 C 494.62 597.98 505.45 594.89 514.67 588.74 C 517.83 586.90 519.25 583.38 519.96 579.97 C 522.56 566.80 527.64 553.57 525.06 539.99 C 523.50 534.29 519.60 528.78 513.78 526.92 C 506.21 524.17 497.89 527.20 490.32 524.46 C 484.10 522.61 478.95 518.41 472.86 516.24 C 459.27 511.01 444.44 511.59 430.13 511.46 C 421.03 511.52 412.08 509.44 402.99 509.41 C 387.96 508.36 373.15 504.79 358.00 505.24 C 347.78 504.82 337.58 506.59 328.01 510.15 Z" />
</g>
</svg>
