
<svg width="200pt" height="200pt" viewBox="0 0 1550 1550" version="1.1" xmlns="http://www.w3.org/2000/svg">
<g id="#980303e8">
<path fill="#980303" opacity="0.91" d=" M 559.54 25.26 C 573.48 24.93 587.45 25.06 601.40 25.19 L 600.62 25.69 C 587.21 25.56 573.80 25.59 560.39 25.67 L 559.54 25.26 Z" />
<path fill="#980303" opacity="0.91" d=" M 25.36 557.41 L 25.61 558.35 C 25.61 573.11 25.60 587.88 25.62 602.65 L 25.34 603.58 C 24.74 592.08 25.28 580.52 25.09 569.00 C 25.12 565.13 24.84 561.25 25.36 557.41 Z" />
<path fill="#980303" opacity="0.91" d=" M 1135.34 557.86 C 1136.22 561.16 1135.90 564.61 1135.92 568.00 C 1135.89 576.33 1135.89 584.66 1135.92 593.00 C 1135.90 596.38 1136.21 599.83 1135.34 603.15 C 1135.43 588.05 1135.43 572.95 1135.34 557.86 Z" />
<path fill="#980303" opacity="0.91" d=" M 560.39 1135.34 C 573.79 1135.42 587.20 1135.41 600.61 1135.34 L 601.47 1135.71 C 587.50 1136.03 573.47 1136.07 559.51 1135.69 L 560.39 1135.34 Z" />
</g>
<g id="#f90404ff">
<path fill="#f90404" opacity="1.00" d=" M 512.07 29.25 C 528.13 27.47 544.22 25.79 560.39 25.67 C 573.80 25.59 587.21 25.56 600.62 25.69 C 673.60 27.68 746.06 45.17 812.39 75.59 C 907.13 119.03 989.09 189.78 1045.92 277.13 C 1100.44 360.27 1131.96 458.46 1135.34 557.86 C 1135.43 572.95 1135.43 588.05 1135.34 603.15 C 1132.33 691.17 1107.30 778.30 1063.68 854.79 C 1030.68 912.94 986.98 964.93 935.62 1007.70 C 875.41 1057.80 804.56 1095.11 729.01 1115.86 C 687.19 1127.39 643.98 1134.21 600.61 1135.34 C 587.20 1135.41 573.79 1135.42 560.39 1135.34 C 469.34 1132.74 379.18 1106.37 300.58 1060.42 C 257.22 1035.02 217.21 1003.86 182.26 967.74 C 115.18 899.06 66.35 812.61 42.57 719.56 C 32.67 681.37 26.96 642.07 25.62 602.65 C 25.60 587.88 25.61 573.11 25.61 558.35 C 29.26 448.68 67.21 340.57 132.29 252.28 C 172.36 197.56 222.54 150.27 279.55 113.53 C 349.35 68.31 429.52 39.28 512.07 29.25 M 547.46 41.57 C 489.86 44.96 432.85 57.80 379.31 79.31 C 329.24 99.50 282.18 127.17 240.29 161.24 C 185.09 205.93 138.95 261.70 105.17 324.17 C 61.93 404.06 39.18 495.12 40.75 586.00 C 40.99 701.28 80.72 815.79 150.67 907.30 C 189.99 959.08 238.78 1003.56 293.85 1038.11 C 371.64 1087.01 462.14 1115.67 553.98 1119.71 C 567.29 1120.69 580.66 1120.07 594.00 1120.27 C 616.33 1119.66 638.64 1117.82 660.74 1114.52 C 744.54 1102.14 825.17 1069.37 894.04 1020.08 C 958.21 974.39 1012.11 914.43 1050.83 845.83 C 1095.32 767.29 1119.83 677.31 1120.25 587.00 C 1121.62 513.58 1107.19 439.97 1078.82 372.26 C 1038.02 274.46 967.67 189.25 879.28 130.78 C 806.77 82.33 722.27 51.95 635.47 43.35 C 606.24 40.33 576.78 40.02 547.46 41.57 Z" />
<path fill="#f90404" opacity="1.00" d=" M 575.30 93.23 C 582.87 92.39 590.42 94.05 598.01 93.52 C 666.23 95.74 733.94 112.70 795.21 142.80 C 803.56 147.57 812.48 151.28 820.69 156.33 C 896.45 199.28 960.44 262.83 1003.60 338.50 C 1008.73 346.59 1012.44 355.45 1017.23 363.74 C 1046.19 421.95 1063.26 486.05 1066.98 550.97 C 1067.83 558.31 1067.08 565.71 1067.89 573.05 C 1068.66 582.04 1067.29 591.01 1067.47 600.01 C 1065.07 665.06 1049.34 729.61 1021.48 788.45 C 1019.49 793.27 1016.94 797.83 1014.38 802.37 C 1006.46 818.61 997.08 834.09 987.20 849.19 C 945.03 912.91 887.76 966.54 821.32 1004.30 C 812.92 1009.50 803.78 1013.33 795.21 1018.20 C 733.94 1048.30 666.23 1065.26 598.01 1067.48 C 589.88 1066.96 581.78 1068.76 573.68 1067.63 C 524.13 1067.30 474.70 1058.85 427.62 1043.43 C 379.01 1027.41 333.04 1003.52 291.81 973.20 C 236.25 932.30 189.42 879.56 155.60 819.40 C 151.18 812.28 148.05 804.46 143.77 797.27 C 113.31 736.07 96.03 668.33 93.53 600.01 C 93.80 592.65 92.61 585.35 92.92 577.99 C 93.00 572.32 93.80 566.67 93.53 560.99 C 95.94 495.94 111.65 431.40 139.52 372.56 C 142.53 365.18 147.01 358.54 150.29 351.29 C 191.67 273.49 254.67 207.44 330.27 162.20 C 338.53 157.44 346.65 152.37 355.30 148.29 C 400.12 124.48 448.97 108.46 498.96 99.92 C 523.09 96.02 547.51 93.44 571.96 93.48 C 573.07 93.42 574.19 93.34 575.30 93.23 M 534.59 161.58 C 506.20 169.33 478.71 182.75 457.65 203.65 C 439.84 221.10 426.42 244.59 425.84 270.00 C 425.49 306.97 430.05 344.07 440.22 379.66 C 442.94 390.29 447.54 401.36 444.39 412.43 C 442.48 418.80 436.08 421.71 430.81 424.79 C 426.99 426.99 426.92 431.94 428.22 435.66 C 432.28 448.22 436.72 460.66 440.76 473.23 C 442.10 477.10 443.32 481.55 447.05 483.83 C 452.65 487.56 459.65 486.54 466.00 486.64 C 479.47 486.40 493.64 487.53 505.55 494.41 C 508.21 495.84 508.95 499.00 508.11 501.75 C 503.73 502.24 498.95 502.10 495.22 504.83 C 498.04 513.02 500.23 521.45 503.53 529.46 C 509.69 533.79 516.63 537.02 523.26 540.61 C 523.66 533.13 522.07 525.73 522.21 518.26 C 524.06 518.24 525.92 518.23 527.78 518.22 C 528.82 526.70 529.07 535.25 530.11 543.73 C 535.86 546.09 541.45 548.83 547.36 550.80 C 547.61 542.25 547.44 533.70 547.42 525.16 C 549.70 525.08 551.98 525.04 554.27 525.01 C 554.56 534.57 554.25 544.13 554.41 553.69 C 561.77 556.28 569.38 558.15 576.79 560.62 C 576.78 550.50 576.47 540.37 576.92 530.27 C 579.17 530.28 581.43 530.29 583.68 530.29 C 583.81 540.32 583.54 550.35 583.81 560.37 C 591.20 558.36 598.53 556.13 605.83 553.82 C 606.33 544.23 605.78 534.63 606.09 525.05 C 608.33 525.05 610.58 525.06 612.84 525.08 C 612.97 533.71 612.72 542.34 612.96 550.96 C 619.46 548.43 625.90 545.72 632.30 542.94 C 632.56 534.72 632.33 526.50 632.39 518.28 C 634.29 518.26 636.20 518.24 638.11 518.23 C 638.42 525.58 637.04 532.92 637.80 540.29 C 643.77 537.18 649.68 533.93 655.48 530.51 C 657.46 529.57 657.69 527.19 658.37 525.36 C 660.36 518.21 663.62 511.37 664.60 503.97 C 660.58 502.41 656.27 502.08 652.02 501.83 C 651.83 499.16 651.73 495.92 654.42 494.42 C 666.37 487.66 680.52 486.32 694.00 486.64 C 700.31 486.50 707.30 487.58 712.89 483.94 C 716.75 481.78 718.01 477.26 719.42 473.38 C 723.54 460.60 728.01 447.93 732.18 435.17 C 733.17 432.02 733.44 427.77 730.51 425.57 C 725.94 422.19 719.65 420.50 717.11 414.95 C 712.03 405.97 715.90 395.52 718.23 386.32 C 727.63 354.04 733.47 320.63 734.11 286.98 C 735.15 277.94 734.23 268.86 733.48 259.84 C 730.32 238.57 718.29 219.67 703.55 204.45 C 681.97 183.04 653.92 169.04 624.72 161.31 C 614.28 159.16 603.56 159.35 592.99 158.41 C 584.31 158.32 575.63 158.33 566.96 158.41 C 556.17 159.33 545.20 159.17 534.59 161.58 M 255.95 305.85 C 251.21 305.52 247.10 308.17 242.90 309.94 C 219.51 320.23 196.18 330.66 172.75 340.85 C 170.51 341.74 168.56 343.25 167.34 345.36 C 160.35 356.11 156.00 368.33 152.55 380.61 C 149.85 389.82 147.78 399.24 144.11 408.14 C 142.98 411.36 141.09 414.44 141.08 417.96 C 140.95 425.97 141.27 434.00 140.97 442.02 C 140.17 451.66 140.70 461.34 140.55 471.00 C 140.65 475.56 140.07 480.23 141.34 484.68 C 142.58 488.37 146.39 490.09 149.85 491.10 C 163.95 495.36 176.34 503.54 188.65 511.39 C 191.40 513.27 194.85 513.14 198.03 513.03 C 211.38 512.24 224.66 510.09 237.56 506.54 C 241.98 505.24 246.54 504.06 250.45 501.53 C 264.98 492.26 279.35 482.65 292.41 471.37 C 294.84 469.21 297.41 467.12 299.33 464.47 C 299.80 460.27 299.50 456.01 299.47 451.80 C 297.03 454.22 294.81 456.84 292.68 459.54 C 287.34 458.15 283.40 462.66 279.16 465.06 C 275.56 466.59 277.58 470.94 277.68 473.88 C 273.03 477.04 267.83 479.23 262.82 481.72 C 260.72 479.44 258.85 476.98 256.96 474.53 C 251.87 475.78 246.77 477.11 241.87 479.00 C 241.71 480.20 241.55 481.40 241.40 482.60 C 235.72 482.66 230.04 482.65 224.36 482.63 C 224.39 478.81 224.41 475.00 224.14 471.20 C 219.57 469.41 215.11 467.29 210.35 466.01 C 208.32 468.50 206.17 470.89 204.04 473.30 C 199.56 468.96 194.92 464.76 190.85 460.03 C 192.60 457.00 194.40 454.01 196.23 451.04 C 193.79 446.88 190.71 443.15 187.86 439.28 C 184.40 439.51 180.76 441.38 177.44 440.66 C 176.19 435.19 174.86 429.68 174.48 424.06 C 177.32 422.69 180.12 421.24 182.92 419.79 C 183.09 414.31 183.20 408.82 182.77 403.35 C 180.02 402.71 177.29 402.01 174.58 401.20 C 176.67 394.99 178.32 388.61 180.94 382.60 C 184.20 383.38 187.45 384.20 190.71 384.99 C 193.29 380.22 196.48 375.78 198.83 370.90 C 198.52 368.33 196.12 366.39 194.91 364.13 C 199.88 360.10 204.90 356.14 210.14 352.46 C 212.05 353.89 213.53 356.31 215.90 356.93 C 220.51 355.06 224.93 352.70 229.28 350.28 C 232.16 349.12 231.01 345.66 231.36 343.25 C 251.49 341.01 272.70 343.44 290.63 353.37 C 299.45 358.51 307.67 364.91 314.13 372.86 C 320.41 379.52 323.79 388.18 327.68 396.32 C 337.67 419.04 339.62 444.04 346.10 467.77 C 350.23 484.18 356.59 500.96 369.38 512.63 C 379.70 523.04 393.88 527.79 406.61 534.41 C 415.00 538.75 423.66 542.56 432.06 546.91 C 437.35 549.40 442.45 552.41 448.05 554.19 C 455.04 554.96 462.04 553.75 469.05 553.76 C 478.50 553.25 487.92 551.54 496.85 548.32 C 493.08 539.07 487.70 530.61 483.36 521.64 C 480.51 517.08 479.03 511.64 475.64 507.48 C 464.76 506.85 453.88 506.50 443.00 506.04 C 436.11 505.19 428.90 506.48 422.30 503.86 C 418.15 502.11 416.09 497.84 413.73 494.31 C 409.67 487.38 404.83 480.33 404.03 472.14 C 406.23 467.81 410.19 464.69 412.99 460.76 C 411.28 453.85 409.08 447.07 406.79 440.34 C 402.02 439.48 397.10 439.96 392.40 438.71 C 391.40 430.61 388.57 422.98 385.91 415.33 C 388.59 413.18 391.38 411.16 393.96 408.89 C 395.46 407.93 394.44 406.12 394.29 404.78 C 392.69 398.61 391.23 392.41 389.60 386.26 C 385.14 386.31 380.70 386.94 376.24 386.81 C 374.91 380.48 372.08 374.67 369.14 368.97 C 369.72 366.40 372.11 364.63 372.93 362.13 C 369.65 355.88 365.37 350.20 361.61 344.23 C 358.10 344.90 354.62 345.73 351.17 346.64 C 347.57 340.30 342.03 335.38 335.72 331.83 C 335.76 328.84 336.08 325.86 336.38 322.89 C 330.23 318.80 323.37 315.99 316.96 312.36 C 314.66 313.84 312.40 315.38 310.11 316.87 C 303.99 313.28 297.18 310.75 289.99 310.79 C 289.85 308.95 289.75 307.10 289.63 305.26 C 278.41 305.84 267.19 306.03 255.95 305.85 M 872.16 305.23 C 871.95 307.07 871.79 308.92 871.64 310.76 C 864.31 310.65 857.57 313.54 851.21 316.86 C 849.10 315.32 846.97 313.82 844.82 312.36 C 838.29 315.70 831.75 319.03 825.31 322.54 C 825.40 325.60 825.70 328.66 825.87 331.72 C 819.67 335.46 813.94 340.18 810.51 346.68 C 807.05 346.04 803.69 344.95 800.23 344.41 C 799.07 344.75 798.73 346.13 798.03 346.98 C 795.00 352.18 791.41 357.01 788.36 362.19 C 789.79 364.38 791.48 366.43 792.55 368.83 C 789.64 374.57 786.64 380.36 785.44 386.76 C 780.99 386.97 776.57 386.49 772.15 386.18 C 769.97 393.36 768.29 400.68 766.65 408.01 C 769.46 410.84 773.45 412.72 775.65 416.00 C 772.68 423.30 770.04 430.83 769.41 438.76 C 764.56 440.03 759.48 439.38 754.62 440.56 C 752.67 447.35 750.16 453.98 748.60 460.87 C 751.25 464.37 754.47 467.41 757.05 470.96 C 758.05 472.18 757.48 473.86 757.21 475.24 C 755.19 482.46 751.20 488.91 747.25 495.21 C 745.01 498.59 742.92 502.61 738.85 504.04 C 732.14 506.41 724.93 505.23 718.00 506.12 C 707.12 506.33 696.27 507.15 685.40 507.42 C 681.43 515.69 677.07 523.77 672.94 531.97 C 670.15 537.36 666.63 542.48 664.99 548.39 C 675.54 552.24 686.80 553.82 698.01 553.96 C 704.54 554.12 711.60 555.68 717.73 552.72 C 735.78 543.74 753.94 534.98 772.08 526.17 C 779.20 522.61 786.23 518.58 791.96 512.97 C 802.18 503.54 808.65 490.80 812.69 477.65 C 817.38 462.29 820.56 446.50 823.47 430.72 C 827.12 412.78 833.20 395.25 842.48 379.41 C 853.63 363.06 870.76 350.74 889.97 345.79 C 903.00 342.27 916.72 341.87 930.10 343.24 C 930.24 345.34 930.37 347.45 930.52 349.56 C 935.65 352.20 940.84 354.74 946.01 357.31 C 947.79 355.74 949.54 354.12 951.26 352.48 C 956.68 356.00 961.60 360.23 966.71 364.18 C 965.30 366.20 963.76 368.14 962.54 370.28 C 964.72 375.47 968.27 380.05 970.95 385.03 C 974.23 384.19 977.52 383.34 980.88 382.74 C 982.92 388.92 985.34 395.00 986.79 401.35 C 984.02 402.02 981.29 402.83 978.62 403.81 C 978.55 409.15 978.44 414.50 978.72 419.84 C 981.55 421.23 984.34 422.71 987.14 424.20 C 986.61 429.96 985.27 435.60 984.00 441.23 C 980.64 440.53 977.27 439.88 973.90 439.30 C 970.74 442.97 968.01 446.98 965.32 451.00 C 967.15 454.02 969.00 457.02 970.76 460.09 C 966.48 464.66 962.19 469.29 957.34 473.26 C 955.31 470.74 953.14 468.35 950.97 465.98 C 946.30 467.47 941.83 469.49 937.29 471.31 C 937.24 475.09 937.23 478.88 937.00 482.65 C 931.49 482.64 925.98 482.65 920.48 482.62 C 920.09 481.29 919.73 479.98 919.36 478.67 C 914.54 477.45 909.84 475.82 905.01 474.68 C 902.36 476.38 901.07 479.55 899.11 481.96 C 894.08 479.59 889.19 476.97 884.18 474.59 C 884.22 471.87 884.41 469.16 884.63 466.46 C 881.32 464.41 878.14 462.17 874.80 460.19 C 873.16 458.95 871.06 459.63 869.22 459.70 C 866.85 457.05 864.56 454.34 862.19 451.71 C 862.14 456.01 861.71 460.35 862.35 464.62 C 863.55 466.38 865.15 467.84 866.72 469.29 C 877.67 478.87 889.45 487.47 901.63 495.40 C 907.33 498.70 912.36 503.39 918.85 505.13 C 934.54 509.53 950.70 512.95 967.06 513.06 C 971.08 513.22 974.27 510.46 977.54 508.53 C 988.34 501.47 999.60 494.78 1012.03 491.01 C 1015.29 490.01 1018.95 488.40 1020.15 484.90 C 1021.55 479.73 1020.94 474.29 1021.06 469.00 C 1020.90 459.90 1021.46 450.77 1020.60 441.70 C 1020.10 433.16 1020.81 424.59 1020.30 416.06 C 1018.71 410.44 1016.07 405.18 1014.40 399.58 C 1009.51 383.54 1006.20 366.79 998.08 351.94 C 995.70 347.88 993.78 342.76 989.04 340.96 C 963.56 329.83 938.16 318.54 912.72 307.32 C 910.33 306.11 907.66 305.75 905.03 305.84 C 894.06 305.94 883.10 306.03 872.16 305.23 M 201.37 533.41 C 193.05 534.34 184.57 534.83 176.55 537.42 C 165.57 540.69 155.80 548.09 150.05 558.04 C 146.01 565.27 143.46 573.21 141.18 581.14 C 136.62 600.75 134.09 620.86 133.71 641.00 C 133.30 657.04 135.20 673.00 137.13 688.89 C 140.37 713.07 146.48 736.88 155.44 759.58 C 162.28 777.10 172.72 792.95 184.32 807.66 C 197.44 824.15 211.58 839.79 225.06 855.99 C 228.16 859.99 233.67 860.31 238.25 859.22 C 261.88 854.69 285.42 849.64 309.05 845.09 C 310.48 844.65 312.40 844.70 313.14 843.14 C 315.99 838.16 318.47 832.96 320.81 827.73 C 336.64 794.93 351.81 761.76 364.74 727.70 C 367.93 718.23 373.14 708.64 371.61 698.34 C 369.36 689.95 364.89 682.36 361.55 674.38 C 357.79 666.91 353.70 659.24 347.27 653.72 C 347.79 656.80 348.81 659.82 348.86 662.97 C 349.00 665.94 346.04 667.62 345.13 670.18 C 344.37 677.26 345.53 684.36 345.52 691.46 C 348.74 691.61 351.95 691.95 355.17 692.29 C 354.75 699.83 354.50 707.38 354.68 714.95 C 350.88 715.18 347.08 715.18 343.28 715.24 C 341.81 721.77 339.48 728.11 338.39 734.72 C 339.26 736.83 341.42 738.17 342.88 739.91 C 339.18 746.26 335.02 752.34 331.52 758.81 C 327.84 756.70 324.39 754.23 320.87 751.90 C 315.43 756.20 310.21 760.78 305.02 765.38 C 306.03 769.49 307.53 773.48 308.13 777.68 C 301.08 780.49 293.92 783.02 286.80 785.66 C 284.33 781.22 282.04 776.69 279.60 772.24 C 272.75 772.98 265.97 774.15 259.17 775.22 C 258.23 779.10 257.68 783.08 257.51 787.08 C 249.54 788.11 241.17 786.78 234.13 782.84 C 234.02 777.89 234.08 772.93 234.03 767.98 C 228.07 765.18 221.92 762.83 215.83 760.33 C 213.03 762.69 210.67 765.55 207.80 767.84 C 206.57 768.11 205.76 766.76 204.81 766.23 C 198.78 761.04 193.37 755.07 189.27 748.22 C 192.00 744.82 195.06 741.69 197.56 738.12 C 193.92 732.29 190.74 726.18 187.05 720.39 C 183.59 720.77 180.11 721.04 176.67 721.53 C 174.56 713.51 173.58 705.22 172.43 697.03 C 174.71 694.89 177.90 694.00 180.62 692.54 C 180.79 684.82 180.72 677.10 180.66 669.38 C 179.48 668.72 178.29 668.07 177.11 667.45 C 177.53 664.35 178.28 661.31 179.46 658.42 C 185.78 641.89 196.99 627.78 209.13 615.13 C 222.44 601.07 240.88 593.47 259.08 588.03 C 267.20 585.56 275.42 582.58 284.05 583.08 C 289.12 582.93 293.94 584.68 298.65 586.31 C 337.80 600.24 376.61 615.22 414.31 632.71 C 424.91 638.11 435.98 643.37 448.00 644.39 C 455.98 644.86 463.74 642.20 470.84 638.80 C 490.38 629.62 510.17 620.99 529.60 611.59 C 537.09 607.64 544.79 604.13 552.39 600.41 C 555.68 598.61 559.44 597.50 562.27 594.98 C 562.25 588.80 563.02 582.34 561.84 576.32 C 548.02 569.89 534.06 563.71 520.11 557.55 C 503.33 568.63 486.50 579.62 469.72 590.69 C 465.58 593.07 460.66 595.85 455.78 594.17 C 452.40 589.99 453.70 584.09 453.26 579.10 C 447.54 575.40 441.72 571.85 435.89 568.32 C 432.03 571.02 428.60 574.28 424.90 577.19 C 420.07 574.80 415.61 571.77 411.02 568.95 C 409.88 568.16 408.57 567.46 407.82 566.26 C 407.21 562.96 407.33 559.58 406.78 556.28 C 400.91 552.83 394.98 549.45 388.86 546.48 C 385.57 548.10 382.91 550.75 379.85 552.75 C 374.67 550.42 369.25 548.54 364.28 545.79 C 362.76 543.75 363.28 540.73 362.64 538.31 C 355.76 536.78 348.77 535.73 341.82 534.59 C 340.02 537.32 338.26 540.07 336.60 542.89 C 331.77 541.79 327.21 539.80 322.43 538.54 C 303.80 533.15 284.40 530.45 265.01 530.21 C 258.35 529.55 251.64 529.56 244.99 530.21 C 230.40 530.35 215.85 531.70 201.37 533.41 M 860.55 533.51 C 848.18 535.31 836.31 539.30 824.40 542.89 C 822.73 540.07 820.97 537.32 819.18 534.59 C 812.21 535.66 805.26 536.89 798.36 538.32 C 797.71 540.73 798.23 543.75 796.72 545.78 C 791.75 548.54 786.33 550.42 781.14 552.75 C 778.06 550.81 775.44 547.97 772.11 546.53 C 765.98 549.43 760.08 552.85 754.23 556.28 C 753.66 559.58 753.78 562.96 753.18 566.25 C 752.42 567.46 751.11 568.16 749.97 568.95 C 745.39 571.77 740.92 574.80 736.10 577.20 C 732.40 574.28 728.97 571.03 725.11 568.32 C 719.28 571.85 713.46 575.40 707.74 579.11 C 707.32 584.11 708.56 589.95 705.24 594.20 C 700.32 595.80 695.43 593.10 691.28 590.69 C 674.50 579.62 657.67 568.63 640.89 557.55 C 626.93 563.71 612.97 569.89 599.14 576.32 C 597.99 582.37 598.74 588.80 598.73 594.98 C 605.50 599.62 613.40 602.48 620.72 606.20 C 640.55 616.47 661.08 625.26 681.31 634.70 C 691.08 639.12 700.92 644.79 712.00 644.45 C 724.64 643.68 736.24 638.01 747.35 632.39 C 785.83 614.65 825.37 599.32 865.34 585.31 C 874.63 581.77 884.99 582.71 894.28 585.73 C 914.58 591.56 935.73 598.68 950.87 614.13 C 959.51 622.95 967.60 632.45 973.95 643.08 C 978.43 650.61 982.60 658.67 983.87 667.44 C 982.67 668.07 981.50 668.72 980.34 669.38 C 980.28 677.10 980.21 684.82 980.38 692.54 C 983.23 693.83 986.02 695.27 988.74 696.85 C 987.21 705.06 986.57 713.46 984.34 721.53 C 980.88 721.04 977.41 720.77 973.95 720.39 C 970.26 726.18 967.08 732.29 963.44 738.12 C 965.94 741.69 969.00 744.82 971.73 748.22 C 967.63 755.07 962.22 761.03 956.19 766.23 C 955.23 766.78 954.42 768.05 953.20 767.86 C 950.34 765.55 947.97 762.70 945.17 760.33 C 939.08 762.83 932.92 765.17 926.97 767.99 C 926.91 772.93 926.98 777.89 926.88 782.84 C 919.83 786.78 911.46 788.10 903.49 787.08 C 903.31 783.08 902.77 779.10 901.82 775.21 C 895.03 774.15 888.24 772.97 881.40 772.24 C 878.96 776.69 876.67 781.22 874.20 785.66 C 867.08 783.02 859.92 780.49 852.87 777.68 C 853.47 773.48 854.96 769.49 855.98 765.39 C 850.79 760.78 845.57 756.20 840.14 751.90 C 836.60 754.23 833.15 756.70 829.48 758.81 C 825.98 752.34 821.82 746.27 818.12 739.92 C 819.62 737.81 823.26 736.30 822.43 733.29 C 821.03 727.23 819.17 721.29 817.72 715.24 C 813.91 715.18 810.11 715.18 806.32 714.95 C 806.50 707.38 806.25 699.83 805.83 692.29 C 809.03 691.95 812.25 691.61 815.48 691.46 C 815.44 686.29 816.13 681.15 816.11 675.99 C 816.01 673.13 816.63 669.80 814.30 667.63 C 810.29 663.83 813.07 658.27 813.73 653.72 C 805.64 660.86 800.96 670.96 796.62 680.64 C 794.27 685.68 791.85 690.72 790.01 695.98 C 787.90 702.11 789.68 708.63 791.45 714.60 C 804.06 750.04 819.58 784.36 835.64 818.35 C 839.90 826.52 843.21 835.16 847.86 843.13 C 848.59 844.70 850.50 844.65 851.95 845.09 C 870.57 848.67 889.12 852.59 907.72 856.26 C 914.46 857.49 921.12 859.41 927.99 859.76 C 932.46 859.93 935.79 856.58 938.27 853.28 C 951.41 837.43 965.28 822.21 977.98 806.00 C 990.06 790.59 1000.54 773.75 1007.26 755.29 C 1016.06 731.57 1022.04 706.80 1024.73 681.63 C 1027.70 659.55 1028.22 637.14 1025.62 614.99 C 1023.55 598.71 1021.27 582.21 1015.09 566.90 C 1011.38 556.40 1004.13 547.09 994.33 541.66 C 981.82 534.39 966.96 534.47 953.02 532.67 C 937.41 530.75 921.69 530.33 906.00 529.71 C 890.81 530.29 875.53 530.65 860.55 533.51 M 549.88 619.89 C 546.98 620.87 545.95 624.02 544.36 626.33 C 535.16 641.00 523.64 655.58 506.97 662.00 C 503.85 659.18 500.97 656.10 497.89 653.24 C 490.95 656.24 484.11 659.45 477.19 662.49 C 476.84 666.99 476.93 671.51 476.96 676.03 C 470.10 678.94 463.06 681.44 455.98 683.73 C 453.33 681.82 450.88 679.65 448.16 677.85 C 446.63 676.70 444.76 677.81 443.17 678.19 C 437.24 680.30 431.30 682.40 425.31 684.34 C 425.23 688.20 425.45 692.08 425.18 695.95 C 419.66 699.87 413.14 702.35 407.09 705.41 C 405.46 704.32 403.83 703.23 402.20 702.16 C 399.71 704.32 396.74 706.07 394.85 708.83 C 392.69 713.88 392.51 719.70 389.36 724.36 C 363.66 765.95 345.66 811.77 331.30 858.36 C 329.83 863.50 327.52 868.50 327.17 873.88 C 327.97 883.31 333.99 891.15 339.59 898.37 C 351.86 913.98 366.07 927.89 379.83 942.15 C 386.76 950.23 394.81 957.21 402.69 964.31 C 420.04 979.38 439.25 992.51 460.28 1001.88 C 462.76 1003.14 465.37 1001.48 467.82 1000.96 C 493.26 993.29 518.86 986.06 544.22 978.20 C 553.58 961.34 561.10 943.40 566.95 925.00 C 568.30 920.44 570.04 915.87 569.95 911.06 C 569.91 881.37 569.93 851.69 569.94 822.00 C 569.71 818.57 570.57 814.86 569.29 811.62 C 564.26 804.79 558.58 798.42 552.37 792.63 C 542.51 783.43 529.82 777.04 516.21 776.27 C 518.25 779.08 520.73 781.58 522.48 784.59 C 523.04 788.12 520.93 792.34 523.76 795.27 C 527.01 799.42 530.34 803.51 533.48 807.75 C 536.01 807.42 538.53 806.99 541.03 806.46 C 544.21 811.84 547.37 817.25 550.06 822.90 C 547.20 825.40 544.28 827.82 541.27 830.13 C 543.16 836.69 545.14 843.22 547.13 849.76 C 548.74 849.86 550.35 849.97 551.97 850.10 C 552.13 856.72 552.10 863.35 551.99 869.97 C 547.59 870.44 542.39 868.97 538.55 871.46 C 536.42 876.80 533.39 882.00 532.27 887.63 C 534.58 890.66 537.86 892.86 539.85 896.15 C 539.85 897.34 538.80 898.19 538.22 899.15 C 534.12 904.21 530.25 909.46 525.94 914.35 C 522.14 911.91 518.66 909.02 514.93 906.50 C 509.76 909.84 504.87 913.58 499.94 917.24 C 500.60 921.35 501.57 925.42 502.03 929.57 C 495.05 931.19 488.22 933.40 481.20 934.88 C 479.36 930.66 477.52 926.44 475.61 922.26 C 468.75 922.56 461.90 922.99 455.02 922.93 C 453.54 926.58 452.21 930.29 450.78 933.96 C 443.28 931.37 435.85 928.47 428.63 925.18 C 429.56 921.76 430.36 918.32 431.26 914.90 C 425.75 910.63 419.77 907.04 413.98 903.19 C 411.34 904.80 408.76 906.50 406.16 908.18 C 401.59 902.30 397.12 896.32 393.00 890.12 C 394.37 888.03 395.74 885.96 397.11 883.89 C 394.16 877.66 390.30 871.93 387.19 865.79 C 386.27 863.26 383.52 863.10 381.27 862.63 C 379.47 852.28 378.75 841.75 379.46 831.26 C 381.06 816.41 386.81 802.26 394.58 789.60 C 402.04 778.58 409.98 767.83 419.14 758.14 C 430.25 747.20 444.06 738.51 459.55 735.60 C 484.70 730.85 509.77 725.71 534.91 720.90 C 536.86 720.46 539.07 720.12 540.31 718.35 C 550.66 706.05 561.20 693.90 571.59 681.63 C 572.83 680.43 572.73 678.64 572.78 677.07 C 572.70 655.10 572.78 633.13 572.73 611.16 C 565.11 614.06 557.44 616.83 549.88 619.89 M 587.79 611.38 C 587.49 633.27 587.78 655.16 587.64 677.05 C 587.45 679.08 588.01 681.07 589.44 682.57 C 599.85 694.51 609.92 706.74 620.36 718.66 C 621.33 719.90 622.89 720.30 624.37 720.64 C 649.43 725.63 674.51 730.51 699.59 735.41 C 712.51 737.75 724.71 743.73 734.63 752.31 C 745.01 761.03 753.34 771.89 761.06 782.96 C 770.14 795.20 776.73 809.37 779.76 824.33 C 782.19 836.96 781.22 849.97 778.90 862.54 C 777.48 862.93 776.03 863.23 774.69 863.83 C 773.26 865.13 772.53 866.98 771.56 868.62 C 768.84 873.78 765.73 878.73 763.05 883.91 C 764.51 885.97 765.90 888.07 767.32 890.16 C 763.04 896.27 758.81 902.43 754.07 908.19 C 751.42 906.64 749.04 904.58 746.18 903.43 C 740.30 907.07 734.50 910.85 728.99 915.02 C 729.98 918.50 730.89 922.00 731.79 925.51 C 724.25 928.09 717.10 931.73 709.45 933.94 C 708.02 930.46 707.08 926.80 705.52 923.39 C 703.50 922.45 701.15 922.95 699.01 922.83 C 694.18 923.08 689.40 922.06 684.59 922.39 C 682.77 926.60 680.96 930.81 678.90 934.92 C 671.94 933.27 665.06 931.30 658.14 929.49 C 658.77 925.36 659.64 921.28 660.51 917.20 C 655.36 913.73 650.53 909.80 645.33 906.39 C 641.84 908.89 638.57 911.73 634.89 913.96 C 633.40 913.84 632.68 912.19 631.70 911.28 C 627.77 906.21 623.61 901.32 619.91 896.09 C 622.59 893.03 626.19 890.65 628.14 887.04 C 626.20 881.73 624.24 876.35 621.51 871.41 C 617.46 869.09 612.33 870.38 607.84 869.97 C 607.71 863.18 607.70 856.38 607.86 849.59 C 609.57 849.74 611.28 849.87 613.00 849.98 C 615.17 843.48 617.05 836.89 618.80 830.27 C 615.96 827.74 613.05 825.29 610.14 822.86 C 613.03 817.33 616.07 811.88 619.21 806.49 C 621.68 806.95 624.16 807.41 626.66 807.83 C 630.42 802.81 634.70 798.14 638.13 792.89 C 638.26 790.24 637.60 787.63 637.69 784.99 C 639.29 781.96 641.74 779.49 643.53 776.58 C 637.14 776.91 630.75 778.13 624.98 780.96 C 611.25 787.39 601.03 799.08 591.66 810.64 C 589.45 812.85 590.00 816.15 589.90 818.99 C 590.08 849.98 589.71 880.99 590.08 911.97 C 592.30 924.51 597.19 936.43 601.74 948.28 C 606.16 958.33 610.30 968.62 615.85 978.10 C 619.28 979.59 622.99 980.35 626.57 981.47 C 649.94 988.33 673.30 995.28 696.66 1002.20 C 698.26 1002.86 699.81 1001.84 701.28 1001.29 C 728.96 988.84 753.10 969.78 774.55 948.55 C 779.47 942.81 785.23 937.86 790.07 932.05 C 802.23 919.83 814.15 907.28 824.48 893.43 C 829.51 886.56 834.46 878.27 832.43 869.40 C 819.86 827.60 805.00 786.25 784.30 747.70 C 780.08 738.87 774.42 730.85 769.79 722.24 C 767.49 717.96 767.31 712.96 765.34 708.57 C 763.39 705.95 760.51 704.25 758.03 702.21 C 756.37 703.29 754.70 704.36 753.03 705.42 C 746.89 702.32 740.69 699.33 734.63 696.05 C 735.14 692.14 735.28 688.19 735.04 684.25 C 727.69 681.93 720.42 679.38 713.07 677.09 C 709.98 679.14 707.36 681.92 704.00 683.51 C 697.02 681.70 690.42 678.66 683.63 676.27 C 683.39 671.83 683.49 667.39 683.44 662.96 C 676.53 659.26 669.23 656.35 662.09 653.13 C 659.01 656.00 656.11 659.06 653.04 661.94 C 635.15 654.73 623.17 638.44 613.52 622.46 C 612.30 620.12 609.57 619.53 607.34 618.60 C 600.78 616.30 594.41 613.50 587.79 611.38 Z" />
<path fill="#f90404" opacity="1.00" d=" M 472.75 383.72 C 479.26 377.76 488.44 375.65 497.06 375.88 C 511.82 377.31 524.90 385.08 537.28 392.68 C 543.31 396.69 549.56 400.36 555.55 404.42 C 559.30 406.43 558.27 412.04 555.19 414.21 C 542.87 424.18 528.59 431.54 513.63 436.67 C 507.88 438.49 501.44 439.53 495.66 437.28 C 485.29 433.33 474.93 428.53 466.68 420.94 C 466.48 412.95 466.65 404.96 466.57 396.97 C 466.30 391.86 468.94 386.99 472.75 383.72 Z" />
<path fill="#f90404" opacity="1.00" d=" M 659.44 376.61 C 666.93 374.91 674.86 376.10 681.86 379.10 C 687.27 381.67 692.38 385.88 694.29 391.74 C 695.55 396.04 694.93 400.59 694.96 405.00 C 694.75 410.25 695.44 415.54 694.80 420.77 C 693.19 422.84 690.95 424.32 688.85 425.85 C 680.85 431.16 672.10 435.36 662.91 438.14 C 655.10 439.67 647.39 436.71 640.28 433.78 C 628.87 429.23 618.00 423.25 608.27 415.72 C 605.73 413.98 603.13 411.41 603.65 408.04 C 603.51 405.45 606.30 404.36 608.03 403.04 C 624.45 393.04 640.23 380.66 659.44 376.61 Z" />
<path fill="#f90404" opacity="1.00" d=" M 576.85 425.87 C 577.64 424.37 579.06 422.91 580.93 423.63 C 582.95 424.17 583.77 426.46 584.84 428.07 C 591.59 440.59 598.55 453.07 603.65 466.39 C 605.03 470.20 607.65 474.13 606.30 478.34 C 604.95 483.51 601.18 489.31 595.31 489.48 C 591.50 489.53 589.94 485.69 587.59 483.41 C 585.47 480.96 582.17 478.85 578.82 479.79 C 574.55 480.88 572.22 484.96 569.87 488.32 C 567.06 488.66 564.08 488.90 561.44 487.67 C 555.32 485.05 552.40 477.46 554.22 471.23 C 559.86 455.24 568.29 440.44 576.85 425.87 Z" />
</g>
<g id="#000000ff">
<path fill="#000000" opacity="1.00" d=" M 547.46 41.57 C 576.78 40.02 606.24 40.33 635.47 43.35 C 722.27 51.95 806.77 82.33 879.28 130.78 C 967.67 189.25 1038.02 274.46 1078.82 372.26 C 1107.19 439.97 1121.62 513.58 1120.25 587.00 C 1119.83 677.31 1095.32 767.29 1050.83 845.83 C 1012.11 914.43 958.21 974.39 894.04 1020.08 C 825.17 1069.37 744.54 1102.14 660.74 1114.52 C 638.64 1117.82 616.33 1119.66 594.00 1120.27 C 580.66 1120.07 567.29 1120.69 553.98 1119.71 C 462.14 1115.67 371.64 1087.01 293.85 1038.11 C 238.78 1003.56 189.99 959.08 150.67 907.30 C 80.72 815.79 40.99 701.28 40.75 586.00 C 39.18 495.12 61.93 404.06 105.17 324.17 C 138.95 261.70 185.09 205.93 240.29 161.24 C 282.18 127.17 329.24 99.50 379.31 79.31 C 432.85 57.80 489.86 44.96 547.46 41.57 M 575.30 93.23 C 574.19 93.34 573.07 93.42 571.96 93.48 C 547.51 93.44 523.09 96.02 498.96 99.92 C 448.97 108.46 400.12 124.48 355.30 148.29 C 346.65 152.37 338.53 157.44 330.27 162.20 C 254.67 207.44 191.67 273.49 150.29 351.29 C 147.01 358.54 142.53 365.18 139.52 372.56 C 111.65 431.40 95.94 495.94 93.53 560.99 C 93.80 566.67 93.00 572.32 92.92 577.99 C 92.61 585.35 93.80 592.65 93.53 600.01 C 96.03 668.33 113.31 736.07 143.77 797.27 C 148.05 804.46 151.18 812.28 155.60 819.40 C 189.42 879.56 236.25 932.30 291.81 973.20 C 333.04 1003.52 379.01 1027.41 427.62 1043.43 C 474.70 1058.85 524.13 1067.30 573.68 1067.63 C 581.78 1068.76 589.88 1066.96 598.01 1067.48 C 666.23 1065.26 733.94 1048.30 795.21 1018.20 C 803.78 1013.33 812.92 1009.50 821.32 1004.30 C 887.76 966.54 945.03 912.91 987.20 849.19 C 997.08 834.09 1006.46 818.61 1014.38 802.37 C 1016.94 797.83 1019.49 793.27 1021.48 788.45 C 1049.34 729.61 1065.07 665.06 1067.47 600.01 C 1067.29 591.01 1068.66 582.04 1067.89 573.05 C 1067.08 565.71 1067.83 558.31 1066.98 550.97 C 1063.26 486.05 1046.19 421.95 1017.23 363.74 C 1012.44 355.45 1008.73 346.59 1003.60 338.50 C 960.44 262.83 896.45 199.28 820.69 156.33 C 812.48 151.28 803.56 147.57 795.21 142.80 C 733.94 112.70 666.23 95.74 598.01 93.52 C 590.42 94.05 582.87 92.39 575.30 93.23 Z" />
<path fill="#000000" opacity="1.00" d=" M 534.59 161.58 C 545.20 159.17 556.17 159.33 566.96 158.41 C 575.63 158.33 584.31 158.32 592.99 158.41 C 603.56 159.35 614.28 159.16 624.72 161.31 C 653.92 169.04 681.97 183.04 703.55 204.45 C 718.29 219.67 730.32 238.57 733.48 259.84 C 734.23 268.86 735.15 277.94 734.11 286.98 C 733.47 320.63 727.63 354.04 718.23 386.32 C 715.90 395.52 712.03 405.97 717.11 414.95 C 719.65 420.50 725.94 422.19 730.51 425.57 C 733.44 427.77 733.17 432.02 732.18 435.17 C 728.01 447.93 723.54 460.60 719.42 473.38 C 718.01 477.26 716.75 481.78 712.89 483.94 C 707.30 487.58 700.31 486.50 694.00 486.64 C 680.52 486.32 666.37 487.66 654.42 494.42 C 651.73 495.92 651.83 499.16 652.02 501.83 C 656.27 502.08 660.58 502.41 664.60 503.97 C 663.62 511.37 660.36 518.21 658.37 525.36 C 657.69 527.19 657.46 529.57 655.48 530.51 C 649.68 533.93 643.77 537.18 637.80 540.29 C 637.04 532.92 638.42 525.58 638.11 518.23 C 636.20 518.24 634.29 518.26 632.39 518.28 C 632.33 526.50 632.56 534.72 632.30 542.94 C 625.90 545.72 619.46 548.43 612.96 550.96 C 612.72 542.34 612.97 533.71 612.84 525.08 C 610.58 525.06 608.33 525.05 606.09 525.05 C 605.78 534.63 606.33 544.23 605.83 553.82 C 598.53 556.13 591.20 558.36 583.81 560.37 C 583.54 550.35 583.81 540.32 583.68 530.29 C 581.43 530.29 579.17 530.28 576.92 530.27 C 576.47 540.37 576.78 550.50 576.79 560.62 C 569.38 558.15 561.77 556.28 554.41 553.69 C 554.25 544.13 554.56 534.57 554.27 525.01 C 551.98 525.04 549.70 525.08 547.42 525.16 C 547.44 533.70 547.61 542.25 547.36 550.80 C 541.45 548.83 535.86 546.09 530.11 543.73 C 529.07 535.25 528.82 526.70 527.78 518.22 C 525.92 518.23 524.06 518.24 522.21 518.26 C 522.07 525.73 523.66 533.13 523.26 540.61 C 516.63 537.02 509.69 533.79 503.53 529.46 C 500.23 521.45 498.04 513.02 495.22 504.83 C 498.95 502.10 503.73 502.24 508.11 501.75 C 508.95 499.00 508.21 495.84 505.55 494.41 C 493.64 487.53 479.47 486.40 466.00 486.64 C 459.65 486.54 452.65 487.56 447.05 483.83 C 443.32 481.55 442.10 477.10 440.76 473.23 C 436.72 460.66 432.28 448.22 428.22 435.66 C 426.92 431.94 426.99 426.99 430.81 424.79 C 436.08 421.71 442.48 418.80 444.39 412.43 C 447.54 401.36 442.94 390.29 440.22 379.66 C 430.05 344.07 425.49 306.97 425.84 270.00 C 426.42 244.59 439.84 221.10 457.65 203.65 C 478.71 182.75 506.20 169.33 534.59 161.58 M 472.75 383.72 C 468.94 386.99 466.30 391.86 466.57 396.97 C 466.65 404.96 466.48 412.95 466.68 420.94 C 474.93 428.53 485.29 433.33 495.66 437.28 C 501.44 439.53 507.88 438.49 513.63 436.67 C 528.59 431.54 542.87 424.18 555.19 414.21 C 558.27 412.04 559.30 406.43 555.55 404.42 C 549.56 400.36 543.31 396.69 537.28 392.68 C 524.90 385.08 511.82 377.31 497.06 375.88 C 488.44 375.65 479.26 377.76 472.75 383.72 M 659.44 376.61 C 640.23 380.66 624.45 393.04 608.03 403.04 C 606.30 404.36 603.51 405.45 603.65 408.04 C 603.13 411.41 605.73 413.98 608.27 415.72 C 618.00 423.25 628.87 429.23 640.28 433.78 C 647.39 436.71 655.10 439.67 662.91 438.14 C 672.10 435.36 680.85 431.16 688.85 425.85 C 690.95 424.32 693.19 422.84 694.80 420.77 C 695.44 415.54 694.75 410.25 694.96 405.00 C 694.93 400.59 695.55 396.04 694.29 391.74 C 692.38 385.88 687.27 381.67 681.86 379.10 C 674.86 376.10 666.93 374.91 659.44 376.61 M 576.85 425.87 C 568.29 440.44 559.86 455.24 554.22 471.23 C 552.40 477.46 555.32 485.05 561.44 487.67 C 564.08 488.90 567.06 488.66 569.87 488.32 C 572.22 484.96 574.55 480.88 578.82 479.79 C 582.17 478.85 585.47 480.96 587.59 483.41 C 589.94 485.69 591.50 489.53 595.31 489.48 C 601.18 489.31 604.95 483.51 606.30 478.34 C 607.65 474.13 605.03 470.20 603.65 466.39 C 598.55 453.07 591.59 440.59 584.84 428.07 C 583.77 426.46 582.95 424.17 580.93 423.63 C 579.06 422.91 577.64 424.37 576.85 425.87 Z" />
<path fill="#000000" opacity="1.00" d=" M 255.95 305.85 C 267.19 306.03 278.41 305.84 289.63 305.26 C 289.75 307.10 289.85 308.95 289.99 310.79 C 297.18 310.75 303.99 313.28 310.11 316.87 C 312.40 315.38 314.66 313.84 316.96 312.36 C 323.37 315.99 330.23 318.80 336.38 322.89 C 336.08 325.86 335.76 328.84 335.72 331.83 C 342.03 335.38 347.57 340.30 351.17 346.64 C 354.62 345.73 358.10 344.90 361.61 344.23 C 365.37 350.20 369.65 355.88 372.93 362.13 C 372.11 364.63 369.72 366.40 369.14 368.97 C 372.08 374.67 374.91 380.48 376.24 386.81 C 380.70 386.94 385.14 386.31 389.60 386.26 C 391.23 392.41 392.69 398.61 394.29 404.78 C 394.44 406.12 395.46 407.93 393.96 408.89 C 391.38 411.16 388.59 413.18 385.91 415.33 C 388.57 422.98 391.40 430.61 392.40 438.71 C 397.10 439.96 402.02 439.48 406.79 440.34 C 409.08 447.07 411.28 453.85 412.99 460.76 C 410.19 464.69 406.23 467.81 404.03 472.14 C 404.83 480.33 409.67 487.38 413.73 494.31 C 416.09 497.84 418.15 502.11 422.30 503.86 C 428.90 506.48 436.11 505.19 443.00 506.04 C 453.88 506.50 464.76 506.85 475.64 507.48 C 479.03 511.64 480.51 517.08 483.36 521.64 C 487.70 530.61 493.08 539.07 496.85 548.32 C 487.92 551.54 478.50 553.25 469.05 553.76 C 462.04 553.75 455.04 554.96 448.05 554.19 C 442.45 552.41 437.35 549.40 432.06 546.91 C 423.66 542.56 415.00 538.75 406.61 534.41 C 393.88 527.79 379.70 523.04 369.38 512.63 C 356.59 500.96 350.23 484.18 346.10 467.77 C 339.62 444.04 337.67 419.04 327.68 396.32 C 323.79 388.18 320.41 379.52 314.13 372.86 C 307.67 364.91 299.45 358.51 290.63 353.37 C 272.70 343.44 251.49 341.01 231.36 343.25 C 231.01 345.66 232.16 349.12 229.28 350.28 C 224.93 352.70 220.51 355.06 215.90 356.93 C 213.53 356.31 212.05 353.89 210.14 352.46 C 204.90 356.14 199.88 360.10 194.91 364.13 C 196.12 366.39 198.52 368.33 198.83 370.90 C 196.48 375.78 193.29 380.22 190.71 384.99 C 187.45 384.20 184.20 383.38 180.94 382.60 C 178.32 388.61 176.67 394.99 174.58 401.20 C 177.29 402.01 180.02 402.71 182.77 403.35 C 183.20 408.82 183.09 414.31 182.92 419.79 C 180.12 421.24 177.32 422.69 174.48 424.06 C 174.86 429.68 176.19 435.19 177.44 440.66 C 180.76 441.38 184.40 439.51 187.86 439.28 C 190.71 443.15 193.79 446.88 196.23 451.04 C 194.40 454.01 192.60 457.00 190.85 460.03 C 194.92 464.76 199.56 468.96 204.04 473.30 C 206.17 470.89 208.32 468.50 210.35 466.01 C 215.11 467.29 219.57 469.41 224.14 471.20 C 224.41 475.00 224.39 478.81 224.36 482.63 C 230.04 482.65 235.72 482.66 241.40 482.60 C 241.55 481.40 241.71 480.20 241.87 479.00 C 246.77 477.11 251.87 475.78 256.96 474.53 C 258.85 476.98 260.72 479.44 262.82 481.72 C 267.83 479.23 273.03 477.04 277.68 473.88 C 277.58 470.94 275.56 466.59 279.16 465.06 C 283.40 462.66 287.34 458.15 292.68 459.54 C 294.81 456.84 297.03 454.22 299.47 451.80 C 299.50 456.01 299.80 460.27 299.33 464.47 C 297.41 467.12 294.84 469.21 292.41 471.37 C 279.35 482.65 264.98 492.26 250.45 501.53 C 246.54 504.06 241.98 505.24 237.56 506.54 C 224.66 510.09 211.38 512.24 198.03 513.03 C 194.85 513.14 191.40 513.27 188.65 511.39 C 176.34 503.54 163.95 495.36 149.85 491.10 C 146.39 490.09 142.58 488.37 141.34 484.68 C 140.07 480.23 140.65 475.56 140.55 471.00 C 140.70 461.34 140.17 451.66 140.97 442.02 C 141.27 434.00 140.95 425.97 141.08 417.96 C 141.09 414.44 142.98 411.36 144.11 408.14 C 147.78 399.24 149.85 389.82 152.55 380.61 C 156.00 368.33 160.35 356.11 167.34 345.36 C 168.56 343.25 170.51 341.74 172.75 340.85 C 196.18 330.66 219.51 320.23 242.90 309.94 C 247.10 308.17 251.21 305.52 255.95 305.85 Z" />
<path fill="#000000" opacity="1.00" d=" M 872.16 305.23 C 883.10 306.03 894.06 305.94 905.03 305.84 C 907.66 305.75 910.33 306.11 912.72 307.32 C 938.16 318.54 963.56 329.83 989.04 340.96 C 993.78 342.76 995.70 347.88 998.08 351.94 C 1006.20 366.79 1009.51 383.54 1014.40 399.58 C 1016.07 405.18 1018.71 410.44 1020.30 416.06 C 1020.81 424.59 1020.10 433.16 1020.60 441.70 C 1021.46 450.77 1020.90 459.90 1021.06 469.00 C 1020.94 474.29 1021.55 479.73 1020.15 484.90 C 1018.95 488.40 1015.29 490.01 1012.03 491.01 C 999.60 494.78 988.34 501.47 977.54 508.53 C 974.27 510.46 971.08 513.22 967.06 513.06 C 950.70 512.95 934.54 509.53 918.85 505.13 C 912.36 503.39 907.33 498.70 901.63 495.40 C 889.45 487.47 877.67 478.87 866.72 469.29 C 865.15 467.84 863.55 466.38 862.35 464.62 C 861.71 460.35 862.14 456.01 862.19 451.71 C 864.56 454.34 866.85 457.05 869.22 459.70 C 871.06 459.63 873.16 458.95 874.80 460.19 C 878.14 462.17 881.32 464.41 884.63 466.46 C 884.41 469.16 884.22 471.87 884.18 474.59 C 889.19 476.97 894.08 479.59 899.11 481.96 C 901.07 479.55 902.36 476.38 905.01 474.68 C 909.84 475.82 914.54 477.45 919.36 478.67 C 919.73 479.98 920.09 481.29 920.48 482.62 C 925.98 482.65 931.49 482.64 937.00 482.65 C 937.23 478.88 937.24 475.09 937.29 471.31 C 941.83 469.49 946.30 467.47 950.97 465.98 C 953.14 468.35 955.31 470.74 957.34 473.26 C 962.19 469.29 966.48 464.66 970.76 460.09 C 969.00 457.02 967.15 454.02 965.32 451.00 C 968.01 446.98 970.74 442.97 973.90 439.30 C 977.27 439.88 980.64 440.53 984.00 441.23 C 985.27 435.60 986.61 429.96 987.14 424.20 C 984.34 422.71 981.55 421.23 978.72 419.84 C 978.44 414.50 978.55 409.15 978.62 403.81 C 981.29 402.83 984.02 402.02 986.79 401.35 C 985.34 395.00 982.92 388.92 980.88 382.74 C 977.52 383.34 974.23 384.19 970.95 385.03 C 968.27 380.05 964.72 375.47 962.54 370.28 C 963.76 368.14 965.30 366.20 966.71 364.18 C 961.60 360.23 956.68 356.00 951.26 352.48 C 949.54 354.12 947.79 355.74 946.01 357.31 C 940.84 354.74 935.65 352.20 930.52 349.56 C 930.37 347.45 930.24 345.34 930.10 343.24 C 916.72 341.87 903.00 342.27 889.97 345.79 C 870.76 350.74 853.63 363.06 842.48 379.41 C 833.20 395.25 827.12 412.78 823.47 430.72 C 820.56 446.50 817.38 462.29 812.69 477.65 C 808.65 490.80 802.18 503.54 791.96 512.97 C 786.23 518.58 779.20 522.61 772.08 526.17 C 753.94 534.98 735.78 543.74 717.73 552.72 C 711.60 555.68 704.54 554.12 698.01 553.96 C 686.80 553.82 675.54 552.24 664.99 548.39 C 666.63 542.48 670.15 537.36 672.94 531.97 C 677.07 523.77 681.43 515.69 685.40 507.42 C 696.27 507.15 707.12 506.33 718.00 506.12 C 724.93 505.23 732.14 506.41 738.85 504.04 C 742.92 502.61 745.01 498.59 747.25 495.21 C 751.20 488.91 755.19 482.46 757.21 475.24 C 757.48 473.86 758.05 472.18 757.05 470.96 C 754.47 467.41 751.25 464.37 748.60 460.87 C 750.16 453.98 752.67 447.35 754.62 440.56 C 759.48 439.38 764.56 440.03 769.41 438.76 C 770.04 430.83 772.68 423.30 775.65 416.00 C 773.45 412.72 769.46 410.84 766.65 408.01 C 768.29 400.68 769.97 393.36 772.15 386.18 C 776.57 386.49 780.99 386.97 785.44 386.76 C 786.64 380.36 789.64 374.57 792.55 368.83 C 791.48 366.43 789.79 364.38 788.36 362.19 C 791.41 357.01 795.00 352.18 798.03 346.98 C 798.73 346.13 799.07 344.75 800.23 344.41 C 803.69 344.95 807.05 346.04 810.51 346.68 C 813.94 340.18 819.67 335.46 825.87 331.72 C 825.70 328.66 825.40 325.60 825.31 322.54 C 831.75 319.03 838.29 315.70 844.82 312.36 C 846.97 313.82 849.10 315.32 851.21 316.86 C 857.57 313.54 864.31 310.65 871.64 310.76 C 871.79 308.92 871.95 307.07 872.16 305.23 Z" />
<path fill="#000000" opacity="1.00" d=" M 201.37 533.41 C 215.85 531.70 230.40 530.35 244.99 530.21 C 251.64 529.56 258.35 529.55 265.01 530.21 C 284.40 530.45 303.80 533.15 322.43 538.54 C 327.21 539.80 331.77 541.79 336.60 542.89 C 338.26 540.07 340.02 537.32 341.82 534.59 C 348.77 535.73 355.76 536.78 362.64 538.31 C 363.28 540.73 362.76 543.75 364.28 545.79 C 369.25 548.54 374.67 550.42 379.85 552.75 C 382.91 550.75 385.57 548.10 388.86 546.48 C 394.98 549.45 400.91 552.83 406.78 556.28 C 407.33 559.58 407.21 562.96 407.82 566.26 C 408.57 567.46 409.88 568.16 411.02 568.95 C 415.61 571.77 420.07 574.80 424.90 577.19 C 428.60 574.28 432.03 571.02 435.89 568.32 C 441.72 571.85 447.54 575.40 453.26 579.10 C 453.70 584.09 452.40 589.99 455.78 594.17 C 460.66 595.85 465.58 593.07 469.72 590.69 C 486.50 579.62 503.33 568.63 520.11 557.55 C 534.06 563.71 548.02 569.89 561.84 576.32 C 563.02 582.34 562.25 588.80 562.27 594.98 C 559.44 597.50 555.68 598.61 552.39 600.41 C 544.79 604.13 537.09 607.64 529.60 611.59 C 510.17 620.99 490.38 629.62 470.84 638.80 C 463.74 642.20 455.98 644.86 448.00 644.39 C 435.98 643.37 424.91 638.11 414.31 632.71 C 376.61 615.22 337.80 600.24 298.65 586.31 C 293.94 584.68 289.12 582.93 284.05 583.08 C 275.42 582.58 267.20 585.56 259.08 588.03 C 240.88 593.47 222.44 601.07 209.13 615.13 C 196.99 627.78 185.78 641.89 179.46 658.42 C 178.28 661.31 177.53 664.35 177.11 667.45 C 178.29 668.07 179.48 668.72 180.66 669.38 C 180.72 677.10 180.79 684.82 180.62 692.54 C 177.90 694.00 174.71 694.89 172.43 697.03 C 173.58 705.22 174.56 713.51 176.67 721.53 C 180.11 721.04 183.59 720.77 187.05 720.39 C 190.74 726.18 193.92 732.29 197.56 738.12 C 195.06 741.69 192.00 744.82 189.27 748.22 C 193.37 755.07 198.78 761.04 204.81 766.23 C 205.76 766.76 206.57 768.11 207.80 767.84 C 210.67 765.55 213.03 762.69 215.83 760.33 C 221.92 762.83 228.07 765.18 234.03 767.98 C 234.08 772.93 234.02 777.89 234.13 782.84 C 241.17 786.78 249.54 788.11 257.51 787.08 C 257.68 783.08 258.23 779.10 259.17 775.22 C 265.97 774.15 272.75 772.98 279.60 772.24 C 282.04 776.69 284.33 781.22 286.80 785.66 C 293.92 783.02 301.08 780.49 308.13 777.68 C 307.53 773.48 306.03 769.49 305.02 765.38 C 310.21 760.78 315.43 756.20 320.87 751.90 C 324.39 754.23 327.84 756.70 331.52 758.81 C 335.02 752.34 339.18 746.26 342.88 739.91 C 341.42 738.17 339.26 736.83 338.39 734.72 C 339.48 728.11 341.81 721.77 343.28 715.24 C 347.08 715.18 350.88 715.18 354.68 714.95 C 354.50 707.38 354.75 699.83 355.17 692.29 C 351.95 691.95 348.74 691.61 345.52 691.46 C 345.53 684.36 344.37 677.26 345.13 670.18 C 346.04 667.62 349.00 665.94 348.86 662.97 C 348.81 659.82 347.79 656.80 347.27 653.72 C 353.70 659.24 357.79 666.91 361.55 674.38 C 364.89 682.36 369.36 689.95 371.61 698.34 C 373.14 708.64 367.93 718.23 364.74 727.70 C 351.81 761.76 336.64 794.93 320.81 827.73 C 318.47 832.96 315.99 838.16 313.14 843.14 C 312.40 844.70 310.48 844.65 309.05 845.09 C 285.42 849.64 261.88 854.69 238.25 859.22 C 233.67 860.31 228.16 859.99 225.06 855.99 C 211.58 839.79 197.44 824.15 184.32 807.66 C 172.72 792.95 162.28 777.10 155.44 759.58 C 146.48 736.88 140.37 713.07 137.13 688.89 C 135.20 673.00 133.30 657.04 133.71 641.00 C 134.09 620.86 136.62 600.75 141.18 581.14 C 143.46 573.21 146.01 565.27 150.05 558.04 C 155.80 548.09 165.57 540.69 176.55 537.42 C 184.57 534.83 193.05 534.34 201.37 533.41 Z" />
<path fill="#000000" opacity="1.00" d=" M 860.55 533.51 C 875.53 530.65 890.81 530.29 906.00 529.71 C 921.69 530.33 937.41 530.75 953.02 532.67 C 966.96 534.47 981.82 534.39 994.33 541.66 C 1004.13 547.09 1011.38 556.40 1015.09 566.90 C 1021.27 582.21 1023.55 598.71 1025.62 614.99 C 1028.22 637.14 1027.70 659.55 1024.73 681.63 C 1022.04 706.80 1016.06 731.57 1007.26 755.29 C 1000.54 773.75 990.06 790.59 977.98 806.00 C 965.28 822.21 951.41 837.43 938.27 853.28 C 935.79 856.58 932.46 859.93 927.99 859.76 C 921.12 859.41 914.46 857.49 907.72 856.26 C 889.12 852.59 870.57 848.67 851.95 845.09 C 850.50 844.65 848.59 844.70 847.86 843.13 C 843.21 835.16 839.90 826.52 835.64 818.35 C 819.58 784.36 804.06 750.04 791.45 714.60 C 789.68 708.63 787.90 702.11 790.01 695.98 C 791.85 690.72 794.27 685.68 796.62 680.64 C 800.96 670.96 805.64 660.86 813.73 653.72 C 813.07 658.27 810.29 663.83 814.30 667.63 C 816.63 669.80 816.01 673.13 816.11 675.99 C 816.13 681.15 815.44 686.29 815.48 691.46 C 812.25 691.61 809.03 691.95 805.83 692.29 C 806.25 699.83 806.50 707.38 806.32 714.95 C 810.11 715.18 813.91 715.18 817.72 715.24 C 819.17 721.29 821.03 727.23 822.43 733.29 C 823.26 736.30 819.62 737.81 818.12 739.92 C 821.82 746.27 825.98 752.34 829.48 758.81 C 833.15 756.70 836.60 754.23 840.14 751.90 C 845.57 756.20 850.79 760.78 855.98 765.39 C 854.96 769.49 853.47 773.48 852.87 777.68 C 859.92 780.49 867.08 783.02 874.20 785.66 C 876.67 781.22 878.96 776.69 881.40 772.24 C 888.24 772.97 895.03 774.15 901.82 775.21 C 902.77 779.10 903.31 783.08 903.49 787.08 C 911.46 788.10 919.83 786.78 926.88 782.84 C 926.98 777.89 926.91 772.93 926.97 767.99 C 932.92 765.17 939.08 762.83 945.17 760.33 C 947.97 762.70 950.34 765.55 953.20 767.86 C 954.42 768.05 955.23 766.78 956.19 766.23 C 962.22 761.03 967.63 755.07 971.73 748.22 C 969.00 744.82 965.94 741.69 963.44 738.12 C 967.08 732.29 970.26 726.18 973.95 720.39 C 977.41 720.77 980.88 721.04 984.34 721.53 C 986.57 713.46 987.21 705.06 988.74 696.85 C 986.02 695.27 983.23 693.83 980.38 692.54 C 980.21 684.82 980.28 677.10 980.34 669.38 C 981.50 668.72 982.67 668.07 983.87 667.44 C 982.60 658.67 978.43 650.61 973.95 643.08 C 967.60 632.45 959.51 622.95 950.87 614.13 C 935.73 598.68 914.58 591.56 894.28 585.73 C 884.99 582.71 874.63 581.77 865.34 585.31 C 825.37 599.32 785.83 614.65 747.35 632.39 C 736.24 638.01 724.64 643.68 712.00 644.45 C 700.92 644.79 691.08 639.12 681.31 634.70 C 661.08 625.26 640.55 616.47 620.72 606.20 C 613.40 602.48 605.50 599.62 598.73 594.98 C 598.74 588.80 597.99 582.37 599.14 576.32 C 612.97 569.89 626.93 563.71 640.89 557.55 C 657.67 568.63 674.50 579.62 691.28 590.69 C 695.43 593.10 700.32 595.80 705.24 594.20 C 708.56 589.95 707.32 584.11 707.74 579.11 C 713.46 575.40 719.28 571.85 725.11 568.32 C 728.97 571.03 732.40 574.28 736.10 577.20 C 740.92 574.80 745.39 571.77 749.97 568.95 C 751.11 568.16 752.42 567.46 753.18 566.25 C 753.78 562.96 753.66 559.58 754.23 556.28 C 760.08 552.85 765.98 549.43 772.11 546.53 C 775.44 547.97 778.06 550.81 781.14 552.75 C 786.33 550.42 791.75 548.54 796.72 545.78 C 798.23 543.75 797.71 540.73 798.36 538.32 C 805.26 536.89 812.21 535.66 819.18 534.59 C 820.97 537.32 822.73 540.07 824.40 542.89 C 836.31 539.30 848.18 535.31 860.55 533.51 Z" />
<path fill="#000000" opacity="1.00" d=" M 549.88 619.89 C 557.44 616.83 565.11 614.06 572.73 611.16 C 572.78 633.13 572.70 655.10 572.78 677.07 C 572.73 678.64 572.83 680.43 571.59 681.63 C 561.20 693.90 550.66 706.05 540.31 718.35 C 539.07 720.12 536.86 720.46 534.91 720.90 C 509.77 725.71 484.70 730.85 459.55 735.60 C 444.06 738.51 430.25 747.20 419.14 758.14 C 409.98 767.83 402.04 778.58 394.58 789.60 C 386.81 802.26 381.06 816.41 379.46 831.26 C 378.75 841.75 379.47 852.28 381.27 862.63 C 383.52 863.10 386.27 863.26 387.19 865.79 C 390.30 871.93 394.16 877.66 397.11 883.89 C 395.74 885.96 394.37 888.03 393.00 890.12 C 397.12 896.32 401.59 902.30 406.16 908.18 C 408.76 906.50 411.34 904.80 413.98 903.19 C 419.77 907.04 425.75 910.63 431.26 914.90 C 430.36 918.32 429.56 921.76 428.63 925.18 C 435.85 928.47 443.28 931.37 450.78 933.96 C 452.21 930.29 453.54 926.58 455.02 922.93 C 461.90 922.99 468.75 922.56 475.61 922.26 C 477.52 926.44 479.36 930.66 481.20 934.88 C 488.22 933.40 495.05 931.19 502.03 929.57 C 501.57 925.42 500.60 921.35 499.94 917.24 C 504.87 913.58 509.76 909.84 514.93 906.50 C 518.66 909.02 522.14 911.91 525.94 914.35 C 530.25 909.46 534.12 904.21 538.22 899.15 C 538.80 898.19 539.85 897.34 539.85 896.15 C 537.86 892.86 534.58 890.66 532.27 887.63 C 533.39 882.00 536.42 876.80 538.55 871.46 C 542.39 868.97 547.59 870.44 551.99 869.97 C 552.10 863.35 552.13 856.72 551.97 850.10 C 550.35 849.97 548.74 849.86 547.13 849.76 C 545.14 843.22 543.16 836.69 541.27 830.13 C 544.28 827.82 547.20 825.40 550.06 822.90 C 547.37 817.25 544.21 811.84 541.03 806.46 C 538.53 806.99 536.01 807.42 533.48 807.75 C 530.34 803.51 527.01 799.42 523.76 795.27 C 520.93 792.34 523.04 788.12 522.48 784.59 C 520.73 781.58 518.25 779.08 516.21 776.27 C 529.82 777.04 542.51 783.43 552.37 792.63 C 558.58 798.42 564.26 804.79 569.29 811.62 C 570.57 814.86 569.71 818.57 569.94 822.00 C 569.93 851.69 569.91 881.37 569.95 911.06 C 570.04 915.87 568.30 920.44 566.95 925.00 C 561.10 943.40 553.58 961.34 544.22 978.20 C 518.86 986.06 493.26 993.29 467.82 1000.96 C 465.37 1001.48 462.76 1003.14 460.28 1001.88 C 439.25 992.51 420.04 979.38 402.69 964.31 C 394.81 957.21 386.76 950.23 379.83 942.15 C 366.07 927.89 351.86 913.98 339.59 898.37 C 333.99 891.15 327.97 883.31 327.17 873.88 C 327.52 868.50 329.83 863.50 331.30 858.36 C 345.66 811.77 363.66 765.95 389.36 724.36 C 392.51 719.70 392.69 713.88 394.85 708.83 C 396.74 706.07 399.71 704.32 402.20 702.16 C 403.83 703.23 405.46 704.32 407.09 705.41 C 413.14 702.35 419.66 699.87 425.18 695.95 C 425.45 692.08 425.23 688.20 425.31 684.34 C 431.30 682.40 437.24 680.30 443.17 678.19 C 444.76 677.81 446.63 676.70 448.16 677.85 C 450.88 679.65 453.33 681.82 455.98 683.73 C 463.06 681.44 470.10 678.94 476.96 676.03 C 476.93 671.51 476.84 666.99 477.19 662.49 C 484.11 659.45 490.95 656.24 497.89 653.24 C 500.97 656.10 503.85 659.18 506.97 662.00 C 523.64 655.58 535.16 641.00 544.36 626.33 C 545.95 624.02 546.98 620.87 549.88 619.89 Z" />
<path fill="#000000" opacity="1.00" d=" M 587.79 611.38 C 594.41 613.50 600.78 616.30 607.34 618.60 C 609.57 619.53 612.30 620.12 613.52 622.46 C 623.17 638.44 635.15 654.73 653.04 661.94 C 656.11 659.06 659.01 656.00 662.09 653.13 C 669.23 656.35 676.53 659.26 683.44 662.96 C 683.49 667.39 683.39 671.83 683.63 676.27 C 690.42 678.66 697.02 681.70 704.00 683.51 C 707.36 681.92 709.98 679.14 713.07 677.09 C 720.42 679.38 727.69 681.93 735.04 684.25 C 735.28 688.19 735.14 692.14 734.63 696.05 C 740.69 699.33 746.89 702.32 753.03 705.42 C 754.70 704.36 756.37 703.29 758.03 702.21 C 760.51 704.25 763.39 705.95 765.34 708.57 C 767.31 712.96 767.49 717.96 769.79 722.24 C 774.42 730.85 780.08 738.87 784.30 747.70 C 805.00 786.25 819.86 827.60 832.43 869.40 C 834.46 878.27 829.51 886.56 824.48 893.43 C 814.15 907.28 802.23 919.83 790.07 932.05 C 785.23 937.86 779.47 942.81 774.55 948.55 C 753.10 969.78 728.96 988.84 701.28 1001.29 C 699.81 1001.84 698.26 1002.86 696.66 1002.20 C 673.30 995.28 649.94 988.33 626.57 981.47 C 622.99 980.35 619.28 979.59 615.85 978.10 C 610.30 968.62 606.16 958.33 601.74 948.28 C 597.19 936.43 592.30 924.51 590.08 911.97 C 589.71 880.99 590.08 849.98 589.90 818.99 C 590.00 816.15 589.45 812.85 591.66 810.64 C 601.03 799.08 611.25 787.39 624.98 780.96 C 630.75 778.13 637.14 776.91 643.53 776.58 C 641.74 779.49 639.29 781.96 637.69 784.99 C 637.60 787.63 638.26 790.24 638.13 792.89 C 634.70 798.14 630.42 802.81 626.66 807.83 C 624.16 807.41 621.68 806.95 619.21 806.49 C 616.07 811.88 613.03 817.33 610.14 822.86 C 613.05 825.29 615.96 827.74 618.80 830.27 C 617.05 836.89 615.17 843.48 613.00 849.98 C 611.28 849.87 609.57 849.74 607.86 849.59 C 607.70 856.38 607.71 863.18 607.84 869.97 C 612.33 870.38 617.46 869.09 621.51 871.41 C 624.24 876.35 626.20 881.73 628.14 887.04 C 626.19 890.65 622.59 893.03 619.91 896.09 C 623.61 901.32 627.77 906.21 631.70 911.28 C 632.68 912.19 633.40 913.84 634.89 913.96 C 638.57 911.73 641.84 908.89 645.33 906.39 C 650.53 909.80 655.36 913.73 660.51 917.20 C 659.64 921.28 658.77 925.36 658.14 929.49 C 665.06 931.30 671.94 933.27 678.90 934.92 C 680.96 930.81 682.77 926.60 684.59 922.39 C 689.40 922.06 694.18 923.08 699.01 922.83 C 701.15 922.95 703.50 922.45 705.52 923.39 C 707.08 926.80 708.02 930.46 709.45 933.94 C 717.10 931.73 724.25 928.09 731.79 925.51 C 730.89 922.00 729.98 918.50 728.99 915.02 C 734.50 910.85 740.30 907.07 746.18 903.43 C 749.04 904.58 751.42 906.64 754.07 908.19 C 758.81 902.43 763.04 896.27 767.32 890.16 C 765.90 888.07 764.51 885.97 763.05 883.91 C 765.73 878.73 768.84 873.78 771.56 868.62 C 772.53 866.98 773.26 865.13 774.69 863.83 C 776.03 863.23 777.48 862.93 778.90 862.54 C 781.22 849.97 782.19 836.96 779.76 824.33 C 776.73 809.37 770.14 795.20 761.06 782.96 C 753.34 771.89 745.01 761.03 734.63 752.31 C 724.71 743.73 712.51 737.75 699.59 735.41 C 674.51 730.51 649.43 725.63 624.37 720.64 C 622.89 720.30 621.33 719.90 620.36 718.66 C 609.92 706.74 599.85 694.51 589.44 682.57 C 588.01 681.07 587.45 679.08 587.64 677.05 C 587.78 655.16 587.49 633.27 587.79 611.38 Z" />
</g>
</svg>
