<?xml version="1.0" encoding="UTF-8" ?>
<!DOCTYPE svg PUBLIC "-//W3C//DTD SVG 1.1//EN" "http://www.w3.org/Graphics/SVG/1.1/DTD/svg11.dtd">
<svg width="200pt" height="200pt" viewBox="90 130 1310 1310" version="1.1" xmlns="http://www.w3.org/2000/svg">
<!-- <svg width="1152pt" height="1152pt" viewBox="0 0 1152 1152" version="1.1" xmlns="http://www.w3.org/2000/svg"> -->
<g id="#c21801ff">
<path fill="#c21801" opacity="1.00" d=" M 555.41 144.45 C 569.91 143.86 584.46 144.25 598.98 144.24 C 611.32 145.63 623.79 145.62 636.04 147.65 C 716.22 157.49 793.69 188.36 858.83 236.13 C 907.70 271.84 949.69 316.94 981.75 368.29 C 1030.01 444.88 1055.50 535.53 1054.65 626.00 C 1054.71 642.67 1053.03 659.25 1051.63 675.85 C 1049.61 688.22 1048.43 700.74 1045.61 712.98 C 1029.99 793.15 993.19 869.03 940.09 931.08 C 888.40 991.50 821.56 1039.07 747.11 1067.15 C 715.56 1079.59 682.49 1087.80 649.06 1093.25 C 626.50 1096.23 603.79 1098.60 581.00 1098.29 C 484.07 1099.76 387.28 1069.41 307.52 1014.51 C 259.51 981.39 217.50 939.54 184.52 891.43 C 139.13 825.79 110.99 748.52 102.77 669.20 C 100.94 651.51 100.36 633.73 100.22 615.97 C 101.09 607.65 100.43 599.26 101.33 590.95 C 104.06 547.00 113.40 503.56 127.86 461.99 C 146.13 411.02 172.82 363.00 207.05 321.02 C 214.52 311.88 222.04 302.75 230.43 294.43 C 237.69 286.37 245.33 278.65 253.45 271.45 C 326.06 203.72 420.41 159.69 518.96 147.64 C 531.01 145.71 543.26 145.44 555.41 144.45 M 408.94 219.62 C 396.15 221.80 384.35 227.63 373.41 234.40 C 359.37 243.76 347.63 256.24 338.07 270.09 C 327.70 284.28 321.21 300.77 315.04 317.09 C 310.36 330.88 307.07 345.11 304.39 359.42 C 301.36 372.64 300.35 386.21 298.92 399.67 C 298.38 407.44 298.51 415.25 297.73 423.01 C 297.55 438.34 297.75 453.67 297.65 469.00 C 297.43 475.35 298.57 481.65 298.37 488.00 C 298.21 513.06 300.19 538.05 301.54 563.07 C 301.79 572.97 303.56 582.76 303.73 592.67 C 306.23 616.56 308.41 640.48 311.90 664.25 C 313.15 673.81 314.17 683.41 316.08 692.86 C 318.67 706.07 320.17 719.48 323.31 732.58 C 326.23 747.84 329.78 762.99 334.02 777.94 C 335.05 782.24 339.62 783.80 342.77 786.25 C 364.62 801.92 380.26 825.48 387.88 851.13 C 392.32 865.70 396.33 880.41 399.64 895.28 C 416.02 902.72 432.66 909.60 449.10 916.93 C 451.89 918.63 454.43 916.13 456.76 914.81 C 469.55 906.49 482.71 898.76 495.51 890.47 C 497.42 889.19 499.58 888.23 501.93 888.39 C 553.62 888.47 605.32 888.42 657.01 888.41 C 659.32 888.29 661.35 889.51 663.24 890.70 C 676.48 899.22 690.05 907.21 703.24 915.80 C 704.81 916.58 706.53 918.26 708.38 917.29 C 717.71 913.36 726.90 909.08 736.25 905.18 C 743.71 901.67 751.65 899.10 758.81 895.01 C 761.32 884.88 763.60 874.62 766.57 864.59 C 769.33 855.51 771.57 846.22 775.47 837.53 C 784.73 815.37 800.44 795.66 820.82 782.79 C 823.11 781.55 824.20 779.14 824.79 776.73 C 828.80 762.23 832.18 747.55 835.05 732.78 C 838.06 720.49 839.42 707.88 841.82 695.47 C 845.11 679.84 846.21 663.86 848.85 648.12 C 851.03 626.41 853.91 604.75 855.23 582.95 C 857.42 561.35 857.87 539.63 859.45 517.99 C 859.75 512.98 859.53 507.97 859.62 502.96 C 861.05 479.68 860.45 456.32 860.59 433.00 C 860.92 420.98 859.77 409.00 859.22 397.01 C 857.69 384.66 856.99 372.17 854.11 360.03 C 850.51 340.59 845.86 321.21 837.91 303.04 C 827.41 276.44 810.11 252.00 786.58 235.43 C 773.53 227.17 759.02 219.73 743.29 219.16 C 738.47 235.66 734.50 252.41 730.03 269.01 C 717.77 315.47 705.64 361.96 693.40 408.42 C 690.20 420.18 687.59 432.13 683.83 443.73 C 614.02 443.75 544.19 443.92 474.38 443.65 C 454.46 368.96 435.14 294.10 415.35 219.38 C 413.21 219.26 411.05 219.21 408.94 219.62 M 498.37 900.40 C 483.83 909.54 469.21 918.55 454.68 927.68 C 451.98 929.76 448.78 928.04 446.12 926.88 C 435.74 922.16 425.25 917.68 414.77 913.17 C 410.22 911.24 405.81 908.95 401.05 907.58 C 402.64 920.45 406.65 932.92 408.04 945.84 C 410.95 960.01 412.35 974.46 415.18 988.62 C 418.00 991.65 421.95 993.34 425.32 995.68 C 436.64 1003.14 448.43 1009.83 459.88 1017.06 C 469.10 1022.24 478.08 1027.85 487.66 1032.36 C 497.89 1037.98 508.56 1043.32 520.15 1045.35 C 538.98 1046.80 557.57 1050.40 575.78 1055.33 C 579.58 1056.50 583.46 1055.20 587.11 1054.11 C 603.77 1049.89 620.72 1046.71 637.88 1045.39 C 648.24 1043.60 658.04 1039.29 667.21 1034.24 C 692.05 1021.80 715.47 1006.78 738.96 992.00 C 740.87 990.65 743.60 989.58 743.77 986.88 C 746.01 973.22 747.60 959.45 750.44 945.89 C 751.86 932.87 755.44 920.25 757.71 907.39 C 741.04 913.73 724.97 921.60 708.49 928.40 C 705.45 929.59 702.81 927.00 700.33 925.66 C 688.57 918.01 676.54 910.79 664.69 903.29 C 661.39 901.29 658.16 898.46 654.06 898.65 C 604.36 898.67 554.65 898.70 504.95 898.63 C 502.62 898.54 500.31 899.10 498.37 900.40 Z" />
</g>
<g id="#fec601ff">
<path fill="#fec601" opacity="1.00" d=" M 408.94 219.62 C 411.05 219.21 413.21 219.26 415.35 219.38 C 435.14 294.10 454.46 368.96 474.38 443.65 C 544.19 443.92 614.02 443.75 683.83 443.73 C 687.59 432.13 690.20 420.18 693.40 408.42 C 705.64 361.96 717.77 315.47 730.03 269.01 C 734.50 252.41 738.47 235.66 743.29 219.16 C 759.02 219.73 773.53 227.17 786.58 235.43 C 810.11 252.00 827.41 276.44 837.91 303.04 C 845.86 321.21 850.51 340.59 854.11 360.03 C 856.99 372.17 857.69 384.66 859.22 397.01 C 859.77 409.00 860.92 420.98 860.59 433.00 C 860.45 456.32 861.05 479.68 859.62 502.96 C 859.53 507.97 859.75 512.98 859.45 517.99 C 857.87 539.63 857.42 561.35 855.23 582.95 C 853.91 604.75 851.03 626.41 848.85 648.12 C 846.21 663.86 845.11 679.84 841.82 695.47 C 839.42 707.88 838.06 720.49 835.05 732.78 C 832.18 747.55 828.80 762.23 824.79 776.73 C 824.20 779.14 823.11 781.55 820.82 782.79 C 800.44 795.66 784.73 815.37 775.47 837.53 C 771.57 846.22 769.33 855.51 766.57 864.59 C 763.60 874.62 761.32 884.88 758.81 895.01 C 751.65 899.10 743.71 901.67 736.25 905.18 C 726.90 909.08 717.71 913.36 708.38 917.29 C 706.53 918.26 704.81 916.58 703.24 915.80 C 690.05 907.21 676.48 899.22 663.24 890.70 C 661.35 889.51 659.32 888.29 657.01 888.41 C 605.32 888.42 553.62 888.47 501.93 888.39 C 499.58 888.23 497.42 889.19 495.51 890.47 C 482.71 898.76 469.55 906.49 456.76 914.81 C 454.43 916.13 451.89 918.63 449.10 916.93 C 432.66 909.60 416.02 902.72 399.64 895.28 C 396.33 880.41 392.32 865.70 387.88 851.13 C 380.26 825.48 364.62 801.92 342.77 786.25 C 339.62 783.80 335.05 782.24 334.02 777.94 C 329.78 762.99 326.23 747.84 323.31 732.58 C 320.17 719.48 318.67 706.07 316.08 692.86 C 314.17 683.41 313.15 673.81 311.90 664.25 C 308.41 640.48 306.23 616.56 303.73 592.67 C 303.56 582.76 301.79 572.97 301.54 563.07 C 300.19 538.05 298.21 513.06 298.37 488.00 C 298.57 481.65 297.43 475.35 297.65 469.00 C 297.75 453.67 297.55 438.34 297.73 423.01 C 298.51 415.25 298.38 407.44 298.92 399.67 C 300.35 386.21 301.36 372.64 304.39 359.42 C 307.07 345.11 310.36 330.88 315.04 317.09 C 321.21 300.77 327.70 284.28 338.07 270.09 C 347.63 256.24 359.37 243.76 373.41 234.40 C 384.35 227.63 396.15 221.80 408.94 219.62 M 333.28 576.25 C 336.08 594.51 339.57 612.66 342.39 630.93 C 342.48 635.00 346.67 636.54 349.49 638.56 C 374.37 654.23 402.72 663.60 431.49 668.98 C 457.82 673.51 484.38 676.55 511.03 678.36 C 517.48 678.18 523.79 679.79 530.24 679.61 C 536.58 679.44 542.86 680.53 549.20 680.30 C 548.29 676.36 546.63 672.68 545.01 669.00 C 540.65 658.69 536.15 648.44 531.90 638.09 C 531.00 636.14 530.12 633.61 527.71 633.19 C 468.85 615.84 409.99 598.46 351.13 581.07 C 345.16 579.50 339.40 577.16 333.28 576.25 M 806.06 581.42 C 747.46 598.80 688.81 616.04 630.19 633.33 C 627.89 633.89 627.34 636.54 626.40 638.38 C 620.82 652.44 614.14 666.07 609.01 680.30 C 615.32 680.56 621.57 679.44 627.89 679.61 C 634.63 679.82 641.23 678.16 647.97 678.34 C 677.75 676.17 707.51 672.93 736.79 666.99 C 763.39 661.03 789.54 651.57 812.31 636.35 C 813.90 635.26 815.69 633.98 815.86 631.87 C 817.60 621.39 819.38 610.90 821.09 600.41 C 822.36 592.36 824.25 584.39 824.91 576.26 C 818.46 577.35 812.39 579.85 806.06 581.42 Z" />
<path fill="#fec601" opacity="1.00" d=" M 498.37 900.40 C 500.31 899.10 502.62 898.54 504.95 898.63 C 554.65 898.70 604.36 898.67 654.06 898.65 C 658.16 898.46 661.39 901.29 664.69 903.29 C 676.54 910.79 688.57 918.01 700.33 925.66 C 702.81 927.00 705.45 929.59 708.49 928.40 C 724.97 921.60 741.04 913.73 757.71 907.39 C 755.44 920.25 751.86 932.87 750.44 945.89 C 747.60 959.45 746.01 973.22 743.77 986.88 C 743.60 989.58 740.87 990.65 738.96 992.00 C 715.47 1006.78 692.05 1021.80 667.21 1034.24 C 658.04 1039.29 648.24 1043.60 637.88 1045.39 C 620.72 1046.71 603.77 1049.89 587.11 1054.11 C 583.46 1055.20 579.58 1056.50 575.78 1055.33 C 557.57 1050.40 538.98 1046.80 520.15 1045.35 C 508.56 1043.32 497.89 1037.98 487.66 1032.36 C 478.08 1027.85 469.10 1022.24 459.88 1017.06 C 448.43 1009.83 436.64 1003.14 425.32 995.68 C 421.95 993.34 418.00 991.65 415.18 988.62 C 412.35 974.46 410.95 960.01 408.04 945.84 C 406.65 932.92 402.64 920.45 401.05 907.58 C 405.81 908.95 410.22 911.24 414.77 913.17 C 425.25 917.68 435.74 922.16 446.12 926.88 C 448.78 928.04 451.98 929.76 454.68 927.68 C 469.21 918.55 483.83 909.54 498.37 900.40 Z" />
</g>
<g id="#8dffffff">
<path fill="#8dffff" opacity="1.00" d=" M 333.28 576.25 C 339.40 577.16 345.16 579.50 351.13 581.07 C 409.99 598.46 468.85 615.84 527.71 633.19 C 530.12 633.61 531.00 636.14 531.90 638.09 C 536.15 648.44 540.65 658.69 545.01 669.00 C 546.63 672.68 548.29 676.36 549.20 680.30 C 542.86 680.53 536.58 679.44 530.24 679.61 C 523.79 679.79 517.48 678.18 511.03 678.36 C 484.38 676.55 457.82 673.51 431.49 668.98 C 402.72 663.60 374.37 654.23 349.49 638.56 C 346.67 636.54 342.48 635.00 342.39 630.93 C 339.57 612.66 336.08 594.51 333.28 576.25 Z" />
<path fill="#8dffff" opacity="1.00" d=" M 806.06 581.42 C 812.39 579.85 818.46 577.35 824.91 576.26 C 824.25 584.39 822.36 592.36 821.09 600.41 C 819.38 610.90 817.60 621.39 815.86 631.87 C 815.69 633.98 813.90 635.26 812.31 636.35 C 789.54 651.57 763.39 661.03 736.79 666.99 C 707.51 672.93 677.75 676.17 647.97 678.34 C 641.23 678.16 634.63 679.82 627.89 679.61 C 621.57 679.44 615.32 680.56 609.01 680.30 C 614.14 666.07 620.82 652.44 626.40 638.38 C 627.34 636.54 627.89 633.89 630.19 633.33 C 688.81 616.04 747.46 598.80 806.06 581.42 Z" />
</g>
</svg>
