<?xml version="1.0" encoding="UTF-8" ?>
<!DOCTYPE svg PUBLIC "-//W3C//DTD SVG 1.1//EN" "http://www.w3.org/Graphics/SVG/1.1/DTD/svg11.dtd">
<svg width="200pt" height="200pt" viewBox="0 -10 1050 1350" version="1.1" xmlns="http://www.w3.org/2000/svg">
<g id="#000000ff">
<path fill="#000000" opacity="1.00" d=" M 334.03 28.72 C 341.03 28.58 347.99 27.74 355.00 27.99 C 368.65 28.25 382.32 27.50 395.94 28.57 C 415.97 29.12 436.08 31.15 455.42 36.58 C 495.95 47.89 535.35 63.80 571.40 85.60 C 616.76 112.92 657.34 149.23 686.06 193.97 C 697.24 211.31 706.22 230.00 713.86 249.14 C 723.90 273.96 723.11 301.31 722.54 327.58 C 720.56 372.66 711.54 417.06 700.73 460.76 C 695.22 483.87 689.61 506.97 685.60 530.39 C 683.71 543.38 681.37 556.78 684.17 569.82 C 685.46 576.55 691.17 581.85 690.77 589.00 C 690.53 601.04 684.24 611.93 677.69 621.65 C 667.80 635.58 655.40 647.87 640.84 656.87 C 632.78 661.60 623.64 665.83 614.06 664.75 C 608.96 664.19 603.27 661.23 602.39 655.69 C 600.80 645.69 605.00 635.98 604.87 626.01 C 605.06 618.18 603.02 609.48 596.47 604.53 C 588.40 598.43 577.72 598.23 568.04 598.64 C 556.92 599.22 545.17 601.17 536.11 608.12 C 529.35 613.24 525.18 621.06 523.12 629.16 C 520.99 636.75 520.97 644.69 519.65 652.43 C 516.37 672.81 511.01 692.83 504.35 712.36 C 497.91 731.76 494.86 752.11 493.66 772.46 C 492.41 791.94 493.09 811.48 492.23 830.97 C 490.78 866.82 488.11 902.75 481.17 938.00 C 479.68 944.28 478.36 951.02 474.10 956.10 C 470.18 960.76 464.16 962.62 458.63 964.61 C 451.94 966.84 445.29 969.27 438.42 970.92 C 437.27 956.64 437.41 942.30 436.97 928.00 C 436.28 875.33 436.29 822.67 436.65 770.00 C 437.00 749.63 437.10 729.21 439.22 708.93 C 440.27 700.46 441.51 691.18 447.84 684.85 C 450.18 681.76 454.38 678.78 453.66 674.45 C 450.64 671.23 446.07 670.07 441.92 669.04 C 438.46 668.54 434.13 667.85 431.36 670.48 C 429.91 674.91 429.95 679.66 429.50 684.27 C 425.86 738.44 425.99 792.77 424.76 847.02 C 424.00 873.96 423.40 900.96 420.48 927.77 C 419.18 937.70 417.96 947.82 414.18 957.17 C 412.03 962.53 408.09 967.79 402.22 969.23 C 396.85 970.53 391.31 970.81 385.90 971.89 C 385.82 929.26 385.89 886.63 385.87 844.00 C 385.82 807.00 386.01 770.00 385.05 733.01 C 384.51 720.02 384.34 706.92 381.90 694.10 C 381.01 690.37 379.93 685.55 375.78 684.24 C 372.56 683.26 371.07 686.96 370.42 689.42 C 368.55 697.14 368.37 705.14 367.84 713.04 C 366.76 738.34 366.70 763.68 366.62 789.01 C 366.53 849.62 366.53 910.24 366.59 970.86 C 351.99 971.03 337.39 970.93 322.79 970.92 C 322.26 899.60 322.61 828.23 318.88 756.98 C 317.75 735.41 316.38 713.82 313.72 692.38 C 313.39 689.56 312.78 686.78 311.82 684.13 C 309.61 690.51 310.46 697.38 309.97 704.01 C 308.61 773.69 312.73 843.39 309.80 913.06 C 309.08 928.02 308.81 943.07 306.72 957.92 C 306.60 960.77 303.35 961.70 300.99 961.83 C 294.05 962.15 287.55 958.87 281.94 955.11 C 276.68 951.32 271.49 946.50 269.86 939.99 C 268.35 934.09 267.72 928.02 266.97 922.00 C 259.20 850.16 262.95 777.53 253.35 705.85 C 252.46 698.01 250.40 690.41 248.10 682.89 C 245.84 673.21 243.45 662.38 248.13 653.04 C 249.61 649.47 251.19 645.27 249.46 641.51 C 243.99 631.30 246.15 619.32 245.39 608.24 C 245.22 604.56 243.46 600.55 239.68 599.38 C 232.83 597.34 225.37 598.12 218.73 600.59 C 204.81 605.53 191.71 612.54 179.07 620.13 C 171.55 624.76 164.12 629.64 157.48 635.49 C 155.26 637.66 152.56 639.83 151.89 643.02 C 151.57 645.00 153.41 646.34 154.93 647.18 C 160.40 650.21 167.27 647.99 172.61 651.37 C 175.26 652.89 177.27 655.79 177.04 658.95 C 177.03 662.66 173.83 665.50 170.46 666.46 C 162.98 668.72 154.94 666.98 147.83 664.23 C 141.08 661.75 135.51 656.08 128.00 655.86 C 117.31 655.77 109.23 664.30 98.92 665.86 C 91.79 667.34 84.19 665.02 78.83 660.16 C 70.53 652.77 65.94 642.34 61.69 632.31 C 56.04 618.63 56.44 603.53 56.67 589.02 C 56.96 580.38 56.70 571.54 59.19 563.18 C 60.79 557.76 65.03 553.53 69.97 550.99 C 76.55 547.55 83.49 544.85 90.17 541.59 C 74.83 522.62 56.65 505.58 45.23 483.73 C 34.81 464.58 30.02 443.06 26.15 421.79 C 22.20 400.76 21.89 379.30 20.79 358.00 C 20.97 347.00 20.37 335.97 21.25 324.99 C 22.06 298.39 23.55 271.74 27.53 245.39 C 29.42 234.59 31.16 223.41 36.83 213.82 C 46.18 197.42 58.26 182.79 70.61 168.58 C 84.16 153.19 98.52 138.51 113.51 124.52 C 129.23 110.08 145.45 96.08 163.16 84.13 C 183.73 70.64 205.13 58.22 228.00 49.03 C 261.58 35.26 297.96 30.07 334.03 28.72 M 77.49 362.44 C 75.06 371.86 76.28 381.78 77.66 391.29 C 80.51 407.99 85.57 424.27 92.18 439.86 C 96.43 449.50 101.21 459.01 107.62 467.40 C 111.42 472.29 115.92 476.98 121.85 479.17 C 132.64 483.25 143.86 486.03 155.00 489.00 C 179.55 495.16 204.27 500.82 229.25 504.96 C 239.39 506.79 249.77 507.05 260.00 505.93 C 287.34 503.14 312.66 491.73 337.53 480.82 C 326.64 474.42 315.25 468.92 304.17 462.85 C 260.76 439.83 217.38 416.75 173.64 394.37 C 150.64 382.81 127.70 371.07 103.98 361.05 C 97.77 358.71 91.62 355.78 84.97 354.97 C 80.71 354.44 78.53 359.05 77.49 362.44 M 629.16 363.26 C 605.66 371.23 583.43 382.57 562.07 395.11 C 544.62 405.42 528.36 417.62 510.78 427.74 C 477.85 447.81 443.24 464.85 409.31 483.09 C 414.18 485.28 419.29 486.87 424.28 488.77 C 443.84 495.82 463.54 503.43 484.37 505.65 C 506.12 508.09 527.97 504.57 549.25 500.24 C 575.86 494.72 602.80 488.70 627.12 476.15 C 634.39 472.43 639.94 466.19 644.51 459.54 C 650.00 451.60 654.36 442.93 658.02 434.02 C 666.44 413.19 671.33 390.52 669.15 368.00 C 668.86 364.23 666.90 360.07 662.87 359.23 C 651.54 356.75 639.93 359.71 629.16 363.26 M 362.49 512.57 C 355.68 516.18 349.88 522.52 347.99 530.11 C 346.41 540.59 339.80 549.32 333.64 557.62 C 329.18 563.57 323.73 570.02 324.26 577.96 C 324.90 584.70 328.25 590.79 331.28 596.72 C 332.83 599.28 335.12 603.24 338.71 601.92 C 342.27 599.65 344.04 595.57 345.90 591.95 C 353.18 575.75 359.54 559.08 363.86 541.84 C 365.98 533.00 368.05 523.73 366.24 514.65 C 366.10 512.72 364.22 511.55 362.49 512.57 M 388.78 519.63 C 387.82 528.71 386.42 537.81 386.55 546.97 C 387.77 566.31 394.26 585.14 404.29 601.66 C 405.68 603.77 407.95 606.53 410.82 605.23 C 414.99 602.56 417.53 598.02 419.77 593.74 C 422.54 587.82 425.24 580.86 422.57 574.41 C 416.75 558.78 406.81 545.21 397.41 531.59 C 394.57 527.58 392.04 523.33 388.78 519.63 Z" />
</g>
</svg>
