<?xml version="1.0" encoding="UTF-8" ?>
<!DOCTYPE svg PUBLIC "-//W3C//DTD SVG 1.1//EN" "http://www.w3.org/Graphics/SVG/1.1/DTD/svg11.dtd">
<svg width="200pt" height="200pt" viewBox="0 0 480 480" version="1.1" xmlns="http://www.w3.org/2000/svg">
<g id="#000000ff">
<path fill="#000000" opacity="1.00" d=" M 164.49 6.70 C 179.66 5.46 194.99 6.01 210.02 8.40 C 216.74 9.81 223.46 11.26 230.10 13.03 C 258.06 21.39 283.92 36.77 304.42 57.57 C 335.06 88.24 353.73 130.75 354.82 174.14 C 355.72 181.07 354.62 188.00 354.37 194.93 C 352.89 217.59 346.29 239.80 336.02 260.01 C 312.97 305.70 268.79 340.29 218.65 350.91 C 176.42 360.64 130.65 353.60 93.19 331.81 C 66.82 316.46 44.50 294.16 29.31 267.69 C 18.95 249.89 12.16 230.13 8.47 209.91 C 5.69 191.68 5.47 173.07 7.92 154.79 C 10.69 138.44 15.17 122.31 22.25 107.28 C 38.93 70.73 68.83 40.47 105.06 23.13 C 123.71 14.28 143.91 8.55 164.49 6.70 M 166.25 23.01 C 120.93 26.82 77.91 51.62 51.71 88.79 C 35.82 111.53 25.09 138.22 22.81 165.98 C 22.69 171.01 21.93 176.00 21.78 181.01 C 22.38 186.29 22.57 191.60 22.98 196.90 C 26.99 236.22 46.48 273.76 76.31 299.69 C 101.79 321.78 134.33 335.83 168.01 338.39 C 177.34 338.86 186.68 338.67 196.01 338.28 C 205.05 336.83 214.22 335.79 222.98 332.99 C 247.15 326.01 269.81 313.45 288.12 296.14 C 311.48 274.65 327.49 245.70 334.67 214.89 C 337.75 199.45 339.46 183.58 337.83 167.87 C 335.29 134.87 321.58 102.99 300.22 77.80 C 284.10 58.86 263.40 43.89 240.38 34.49 C 217.18 24.36 191.40 20.94 166.25 23.01 Z" />
<path fill="#000000" opacity="1.00" d=" M 172.89 74.89 C 176.17 71.79 180.94 71.94 185.07 70.97 C 189.45 70.53 193.93 70.57 198.23 71.62 C 203.32 72.03 208.39 73.03 213.16 74.90 C 215.46 75.88 216.21 78.41 217.32 80.42 C 213.45 80.60 209.35 79.73 205.72 81.46 C 203.27 82.40 200.28 83.52 199.33 86.19 C 199.17 88.98 198.84 91.91 199.62 94.62 C 202.59 101.58 205.05 108.77 208.44 115.55 C 210.62 119.77 211.78 124.53 214.77 128.30 C 228.75 118.24 241.88 107.04 255.29 96.31 C 264.69 88.71 274.34 81.40 283.60 73.63 C 285.46 72.15 287.24 74.28 288.42 75.57 C 295.22 83.39 302.56 90.93 307.60 100.07 C 304.74 104.65 300.25 107.82 297.14 112.18 C 294.34 115.99 290.57 118.93 287.58 122.57 C 284.19 127.13 279.85 130.87 276.57 135.52 C 271.91 139.94 268.47 145.40 263.73 149.75 C 260.25 154.56 255.91 158.62 251.94 163.00 C 249.02 167.00 245.25 170.25 242.25 174.17 C 239.64 177.88 235.89 180.61 233.55 184.53 C 230.39 187.73 227.18 190.88 224.61 194.60 C 214.38 205.09 205.06 216.46 195.52 227.52 C 193.77 229.12 192.07 230.78 190.72 232.74 C 187.92 236.94 183.71 239.88 180.67 243.87 C 177.06 239.66 172.55 236.26 169.44 231.63 C 167.26 228.49 163.89 226.42 161.83 223.19 C 159.58 219.80 156.28 217.31 153.91 214.02 C 150.56 209.43 146.16 205.75 142.78 201.20 C 139.79 197.55 135.91 194.70 133.25 190.77 C 130.73 186.96 126.65 184.52 124.31 180.57 C 118.94 174.64 113.91 168.43 108.40 162.62 C 105.11 157.96 100.52 154.46 97.04 149.98 C 94.37 145.70 89.95 142.95 87.29 138.66 C 82.28 133.34 77.89 127.49 72.65 122.38 C 68.13 116.26 62.21 111.41 57.68 105.31 C 56.45 103.41 53.04 101.92 54.15 99.29 C 60.66 89.59 68.10 80.47 76.71 72.54 C 90.06 83.83 104.05 94.28 117.45 105.49 C 126.90 113.34 136.58 120.91 146.32 128.40 C 149.01 125.28 149.84 121.15 151.65 117.55 C 156.34 107.40 159.83 96.71 164.80 86.70 C 167.35 82.67 169.15 78.02 172.89 74.89 Z" />
<path fill="#000000" opacity="1.00" d=" M 30.03 186.36 C 29.41 159.17 35.99 131.76 48.95 107.83 C 58.76 119.47 68.17 131.37 78.29 142.70 C 73.00 146.19 69.45 151.66 64.24 155.24 C 60.91 157.54 58.58 160.96 55.27 163.29 C 50.10 167.08 46.23 172.30 41.10 176.13 C 37.14 179.24 33.92 183.17 30.03 186.36 Z" />
<path fill="#000000" opacity="1.00" d=" M 311.26 109.20 C 311.60 109.19 312.29 109.16 312.64 109.14 C 323.00 128.69 329.28 150.48 330.60 172.56 C 331.57 177.10 331.20 181.77 331.11 186.38 C 328.35 183.95 325.52 181.61 322.69 179.28 C 318.57 175.41 314.78 171.16 310.34 167.65 C 306.64 164.73 303.63 161.05 299.79 158.31 C 295.86 155.57 293.14 151.49 289.27 148.70 C 287.10 147.15 285.18 145.30 283.12 143.62 C 292.07 131.81 302.21 120.95 311.26 109.20 Z" />
<path fill="#000000" opacity="1.00" d=" M 67.91 158.90 C 72.72 155.15 76.57 150.24 81.92 147.17 C 86.17 153.45 91.43 158.95 96.07 164.94 C 99.55 168.41 102.13 172.64 105.72 176.01 L 105.52 176.92 C 101.81 181.08 97.61 184.81 94.32 189.34 C 87.06 196.75 80.55 204.86 73.05 212.04 C 68.44 218.38 62.25 223.30 57.55 229.57 C 52.84 234.58 48.26 239.71 43.72 244.88 C 36.89 228.20 31.48 210.65 30.67 192.55 C 32.64 189.60 35.99 187.93 38.43 185.40 C 43.74 179.68 50.37 175.42 55.49 169.49 C 60.10 166.51 63.54 162.18 67.91 158.90 Z" />
<path fill="#000000" opacity="1.00" d=" M 264.65 165.64 C 270.12 159.85 274.61 153.24 280.03 147.41 C 284.70 152.27 290.17 156.27 294.98 160.98 C 299.68 163.81 302.79 168.51 307.23 171.68 C 309.20 173.05 311.00 174.64 312.61 176.43 C 318.04 182.41 325.34 186.58 330.18 193.07 C 330.24 204.36 327.30 215.44 324.34 226.26 C 322.67 232.73 319.77 238.77 317.53 245.04 C 311.49 238.87 306.14 232.06 299.94 226.05 C 295.57 219.82 289.42 215.18 284.91 209.08 C 274.81 198.64 265.30 187.67 255.48 177.00 C 258.24 172.97 261.82 169.61 264.65 165.64 Z" />
<path fill="#000000" opacity="1.00" d=" M 91.29 199.27 C 96.88 192.57 103.77 186.98 108.74 179.77 C 116.71 189.96 125.22 199.74 133.33 209.83 C 126.19 218.56 119.16 227.38 112.16 236.21 C 97.97 252.05 85.70 269.47 71.76 285.51 C 61.21 274.74 52.58 262.21 45.60 248.87 C 48.97 245.79 51.74 242.15 54.82 238.81 C 63.08 231.04 70.10 222.10 77.98 213.98 C 81.67 208.42 87.20 204.48 91.29 199.27 Z" />
<path fill="#000000" opacity="1.00" d=" M 227.76 210.11 C 236.09 200.56 243.86 190.56 252.10 180.95 C 259.20 187.15 264.66 195.01 271.57 201.44 C 276.46 205.60 279.64 211.30 284.50 215.50 C 294.54 227.00 304.77 238.43 315.79 249.06 C 310.10 259.30 304.05 269.45 296.28 278.27 C 294.22 280.97 291.83 283.40 289.72 286.05 C 275.28 269.81 262.76 251.96 248.35 235.69 C 241.39 227.24 234.74 218.55 227.76 210.11 Z" />
<path fill="#000000" opacity="1.00" d=" M 120.62 263.56 C 130.35 248.44 141.25 234.11 151.02 219.02 C 154.93 224.40 160.14 228.60 164.01 233.99 C 169.76 239.52 174.48 245.97 180.11 251.60 C 185.32 248.76 187.87 243.02 192.19 239.15 C 196.39 235.31 199.46 230.47 203.59 226.57 C 205.93 224.24 207.84 221.53 210.00 219.04 C 220.53 234.81 231.88 250.01 242.16 265.95 C 249.64 277.38 257.70 288.41 265.37 299.72 C 266.45 301.34 267.69 302.84 269.04 304.25 C 260.96 309.21 253.08 314.61 244.30 318.30 C 227.87 325.72 210.12 330.50 192.11 331.56 C 186.17 333.01 180.00 332.26 173.96 332.35 C 167.42 331.17 160.75 331.09 154.22 329.80 C 132.31 325.79 110.99 317.38 93.00 304.12 C 102.06 290.50 111.79 277.34 120.62 263.56 Z" />
</g>
<g id="#ffffffff">
<path fill="#ffffff" opacity="1.00" d=" M 166.25 23.01 C 191.40 20.94 217.18 24.36 240.38 34.49 C 263.40 43.89 284.10 58.86 300.22 77.80 C 321.58 102.99 335.29 134.87 337.83 167.87 C 339.46 183.58 337.75 199.45 334.67 214.89 C 327.49 245.70 311.48 274.65 288.12 296.14 C 269.81 313.45 247.15 326.01 222.98 332.99 C 214.22 335.79 205.05 336.83 196.01 338.28 C 186.68 338.67 177.34 338.86 168.01 338.39 C 134.33 335.83 101.79 321.78 76.31 299.69 C 46.48 273.76 26.99 236.22 22.98 196.90 C 22.57 191.60 22.38 186.29 21.78 181.01 C 21.93 176.00 22.69 171.01 22.81 165.98 C 25.09 138.22 35.82 111.53 51.71 88.79 C 77.91 51.62 120.93 26.82 166.25 23.01 M 172.89 74.89 C 169.15 78.02 167.35 82.67 164.80 86.70 C 159.83 96.71 156.34 107.40 151.65 117.55 C 149.84 121.15 149.01 125.28 146.32 128.40 C 136.58 120.91 126.90 113.34 117.45 105.49 C 104.05 94.28 90.06 83.83 76.71 72.54 C 68.10 80.47 60.66 89.59 54.15 99.29 C 53.04 101.92 56.45 103.41 57.68 105.31 C 62.21 111.41 68.13 116.26 72.65 122.38 C 77.89 127.49 82.28 133.34 87.29 138.66 C 89.95 142.95 94.37 145.70 97.04 149.98 C 100.52 154.46 105.11 157.96 108.40 162.62 C 113.91 168.43 118.94 174.64 124.31 180.57 C 126.65 184.52 130.73 186.96 133.25 190.77 C 135.91 194.70 139.79 197.55 142.78 201.20 C 146.16 205.75 150.56 209.43 153.91 214.02 C 156.28 217.31 159.58 219.80 161.83 223.19 C 163.89 226.42 167.26 228.49 169.44 231.63 C 172.55 236.26 177.06 239.66 180.67 243.87 C 183.71 239.88 187.92 236.94 190.72 232.74 C 192.07 230.78 193.77 229.12 195.52 227.52 C 205.06 216.46 214.38 205.09 224.61 194.60 C 227.18 190.88 230.39 187.73 233.55 184.53 C 235.89 180.61 239.64 177.88 242.25 174.17 C 245.25 170.25 249.02 167.00 251.94 163.00 C 255.91 158.62 260.25 154.56 263.73 149.75 C 268.47 145.40 271.91 139.94 276.57 135.52 C 279.85 130.87 284.19 127.13 287.58 122.57 C 290.57 118.93 294.34 115.99 297.14 112.18 C 300.25 107.82 304.74 104.65 307.60 100.07 C 302.56 90.93 295.22 83.39 288.42 75.57 C 287.24 74.28 285.46 72.15 283.60 73.63 C 274.34 81.40 264.69 88.71 255.29 96.31 C 241.88 107.04 228.75 118.24 214.77 128.30 C 211.78 124.53 210.62 119.77 208.44 115.55 C 205.05 108.77 202.59 101.58 199.62 94.62 C 198.84 91.91 199.17 88.98 199.33 86.19 C 200.28 83.52 203.27 82.40 205.72 81.46 C 209.35 79.73 213.45 80.60 217.32 80.42 C 216.21 78.41 215.46 75.88 213.16 74.90 C 208.39 73.03 203.32 72.03 198.23 71.62 C 193.93 70.57 189.45 70.53 185.07 70.97 C 180.94 71.94 176.17 71.79 172.89 74.89 M 30.03 186.36 C 33.92 183.17 37.14 179.24 41.10 176.13 C 46.23 172.30 50.10 167.08 55.27 163.29 C 58.58 160.96 60.91 157.54 64.24 155.24 C 69.45 151.66 73.00 146.19 78.29 142.70 C 68.17 131.37 58.76 119.47 48.95 107.83 C 35.99 131.76 29.41 159.17 30.03 186.36 M 311.26 109.20 C 302.21 120.95 292.07 131.81 283.12 143.62 C 285.18 145.30 287.10 147.15 289.27 148.70 C 293.14 151.49 295.86 155.57 299.79 158.31 C 303.63 161.05 306.64 164.73 310.34 167.65 C 314.78 171.16 318.57 175.41 322.69 179.28 C 325.52 181.61 328.35 183.95 331.11 186.38 C 331.20 181.77 331.57 177.10 330.60 172.56 C 329.28 150.48 323.00 128.69 312.64 109.14 C 312.29 109.16 311.60 109.19 311.26 109.20 M 67.91 158.90 C 63.54 162.18 60.10 166.51 55.49 169.49 C 50.37 175.42 43.74 179.68 38.43 185.40 C 35.99 187.93 32.64 189.60 30.67 192.55 C 31.48 210.65 36.89 228.20 43.72 244.88 C 48.26 239.71 52.84 234.58 57.55 229.57 C 62.25 223.30 68.44 218.38 73.05 212.04 C 80.55 204.86 87.06 196.75 94.32 189.34 C 97.61 184.81 101.81 181.08 105.52 176.92 L 105.72 176.01 C 102.13 172.64 99.55 168.41 96.07 164.94 C 91.43 158.95 86.17 153.45 81.92 147.17 C 76.57 150.24 72.72 155.15 67.91 158.90 M 264.65 165.64 C 261.82 169.61 258.24 172.97 255.48 177.00 C 265.30 187.67 274.81 198.64 284.91 209.08 C 289.42 215.18 295.57 219.82 299.94 226.05 C 306.14 232.06 311.49 238.87 317.53 245.04 C 319.77 238.77 322.67 232.73 324.34 226.26 C 327.30 215.44 330.24 204.36 330.18 193.07 C 325.34 186.58 318.04 182.41 312.61 176.43 C 311.00 174.64 309.20 173.05 307.23 171.68 C 302.79 168.51 299.68 163.81 294.98 160.98 C 290.17 156.27 284.70 152.27 280.03 147.41 C 274.61 153.24 270.12 159.85 264.65 165.64 M 91.29 199.27 C 87.20 204.48 81.67 208.42 77.98 213.98 C 70.10 222.10 63.08 231.04 54.82 238.81 C 51.74 242.15 48.97 245.79 45.60 248.87 C 52.58 262.21 61.21 274.74 71.76 285.51 C 85.70 269.47 97.97 252.05 112.16 236.21 C 119.16 227.38 126.19 218.56 133.33 209.83 C 125.22 199.74 116.71 189.96 108.74 179.77 C 103.77 186.98 96.88 192.57 91.29 199.27 M 227.76 210.11 C 234.74 218.55 241.39 227.24 248.35 235.69 C 262.76 251.96 275.28 269.81 289.72 286.05 C 291.83 283.40 294.22 280.97 296.28 278.27 C 304.05 269.45 310.10 259.30 315.79 249.06 C 304.77 238.43 294.54 227.00 284.50 215.50 C 279.64 211.30 276.46 205.60 271.57 201.44 C 264.66 195.01 259.20 187.15 252.10 180.95 C 243.86 190.56 236.09 200.56 227.76 210.11 M 120.62 263.56 C 111.79 277.34 102.06 290.50 93.00 304.12 C 110.99 317.38 132.31 325.79 154.22 329.80 C 160.75 331.09 167.42 331.17 173.96 332.35 C 180.00 332.26 186.17 333.01 192.11 331.56 C 210.12 330.50 227.87 325.72 244.30 318.30 C 253.08 314.61 260.96 309.21 269.04 304.25 C 267.69 302.84 266.45 301.34 265.37 299.72 C 257.70 288.41 249.64 277.38 242.16 265.95 C 231.88 250.01 220.53 234.81 210.00 219.04 C 207.84 221.53 205.93 224.24 203.59 226.57 C 199.46 230.47 196.39 235.31 192.19 239.15 C 187.87 243.02 185.32 248.76 180.11 251.60 C 174.48 245.97 169.76 239.52 164.01 233.99 C 160.14 228.60 154.93 224.40 151.02 219.02 C 141.25 234.11 130.35 248.44 120.62 263.56 Z" />
</g>
</svg>
