<?xml version="1.0" encoding="UTF-8" ?>
<!DOCTYPE svg PUBLIC "-//W3C//DTD SVG 1.1//EN" "http://www.w3.org/Graphics/SVG/1.1/DTD/svg11.dtd">
<svg width="200pt" height="200pt" viewBox="0 -25 1300 1300" version="1.1" xmlns="http://www.w3.org/2000/svg">
<!-- <svg width="960pt" height="960pt" viewBox="0 0 960 960" version="1.1" xmlns="http://www.w3.org/2000/svg"> -->
<g id="#000000ff">
<path fill="#000000" opacity="1.00" d=" M 335.03 37.03 C 337.48 31.09 340.91 25.59 344.97 20.62 C 338.49 44.05 331.53 67.37 326.13 91.08 C 313.79 142.96 306.97 196.24 307.25 249.60 C 338.19 249.60 369.13 249.63 400.06 249.58 C 404.24 249.08 406.95 252.80 409.83 255.17 C 420.93 265.35 429.07 278.51 441.18 287.59 C 440.99 282.80 440.51 277.85 442.11 273.23 C 445.06 264.07 452.38 257.08 460.28 251.97 C 456.37 261.57 451.78 271.41 452.23 282.03 C 452.19 285.60 453.31 289.06 455.16 292.09 C 461.81 291.21 459.66 281.60 465.93 280.11 C 467.95 282.06 469.86 284.39 472.61 285.34 C 478.61 287.05 485.39 286.12 490.54 282.51 C 492.22 281.61 494.00 279.41 495.98 280.96 C 500.02 283.81 498.94 291.35 504.83 292.09 C 508.62 286.24 508.18 278.86 506.88 272.32 C 505.39 265.14 502.41 258.41 499.43 251.76 C 506.88 257.57 514.28 264.33 517.56 273.45 C 519.32 277.94 518.97 282.83 518.86 287.54 C 525.12 283.36 530.08 277.62 535.13 272.11 C 541.69 265.02 547.92 257.59 555.09 251.10 C 556.34 249.71 558.18 249.50 559.94 249.58 C 590.88 249.63 621.81 249.60 652.75 249.60 C 652.95 201.56 647.53 153.55 637.36 106.61 C 632.14 82.24 625.74 58.13 618.80 34.20 C 617.53 29.69 616.02 25.25 615.03 20.67 C 622.32 28.99 625.93 39.57 630.51 49.45 C 648.90 90.91 665.81 133.17 678.13 176.88 C 680.26 183.94 681.63 191.21 683.85 198.24 C 687.79 207.37 690.66 216.90 693.72 226.35 C 697.18 236.65 699.99 247.18 702.07 257.85 C 702.44 260.35 703.30 263.31 701.40 265.44 C 697.31 270.83 690.98 273.72 685.53 277.47 C 681.14 280.19 677.32 283.71 673.94 287.59 C 668.64 283.29 661.90 281.52 655.24 280.81 C 632.57 278.18 609.74 280.92 587.00 280.11 C 578.82 279.71 570.25 276.90 562.34 280.28 C 555.56 282.54 550.83 288.38 547.52 294.45 C 544.23 300.55 541.22 306.80 537.90 312.88 C 559.69 312.70 581.02 305.85 602.89 307.50 C 631.74 309.32 660.56 311.85 689.25 315.40 C 709.25 317.93 729.27 320.82 748.74 326.15 C 750.44 279.04 745.17 231.64 732.90 186.11 C 722.63 147.67 707.46 110.71 690.17 74.93 C 684.73 63.15 678.52 51.74 673.03 39.99 C 705.58 83.93 729.19 133.95 746.26 185.76 C 751.38 200.96 755.76 216.38 760.26 231.76 C 764.24 241.63 764.62 252.40 767.39 262.60 C 772.85 285.08 775.76 309.12 788.97 328.75 C 779.07 343.53 763.37 352.61 750.73 364.71 C 713.65 342.39 670.84 330.89 627.90 327.60 C 599.21 324.98 570.39 327.13 541.84 330.25 C 555.25 336.63 568.60 343.87 583.38 346.50 C 589.38 347.56 595.60 347.94 601.60 346.63 C 604.55 346.16 607.69 345.22 610.60 346.41 C 618.63 349.28 624.39 355.88 630.39 361.60 C 640.66 372.00 650.97 382.39 662.13 391.84 C 693.76 419.18 730.04 440.24 764.82 463.19 C 772.29 468.31 779.51 475.28 789.04 475.88 C 795.61 476.47 801.23 472.56 806.29 468.90 C 806.62 546.33 796.10 624.01 773.02 698.00 C 764.28 726.23 753.79 753.90 741.97 780.97 C 732.83 802.18 722.63 822.93 711.22 843.01 C 734.15 790.48 749.83 734.88 758.55 678.25 C 764.11 642.44 767.07 606.24 767.79 570.02 C 768.14 560.04 767.63 550.03 768.66 540.08 C 769.17 532.46 770.66 524.66 768.87 517.11 C 765.92 506.19 757.64 497.91 749.83 490.19 C 733.82 475.43 717.08 461.48 699.83 448.19 C 673.09 427.79 644.97 409.25 618.54 388.45 C 612.98 384.02 608.31 378.55 602.45 374.50 C 597.69 371.22 591.92 370.03 586.43 368.55 C 571.42 364.69 556.09 361.60 541.79 355.46 C 562.77 377.52 578.88 404.12 602.45 423.69 C 606.39 424.26 610.33 422.41 614.32 422.37 C 614.52 474.25 613.62 526.15 611.15 577.98 C 606.72 662.21 597.55 746.92 572.87 827.88 C 568.34 842.97 562.90 857.76 557.58 872.59 C 551.73 888.28 544.42 903.44 535.79 917.81 C 530.91 925.54 526.16 933.48 519.98 940.26 C 524.86 929.96 530.08 919.80 534.18 909.15 C 549.64 870.55 558.36 829.63 564.27 788.58 C 571.46 737.37 574.07 685.65 575.32 633.99 C 576.52 577.64 576.02 521.28 575.99 464.93 C 575.87 461.49 579.89 460.12 581.31 457.33 C 584.03 453.29 581.71 448.32 579.17 444.84 C 572.83 436.26 564.84 429.06 558.58 420.42 C 548.95 407.75 540.65 393.96 529.44 382.56 C 526.24 379.31 522.66 376.35 518.42 374.56 C 519.44 386.34 527.52 395.64 534.49 404.56 C 538.51 409.41 538.57 416.06 538.63 422.03 C 538.17 438.00 533.92 453.52 529.90 468.89 C 521.49 510.77 511.30 552.43 496.53 592.57 C 493.56 600.06 491.06 607.79 487.13 614.85 C 479.78 610.93 484.07 601.17 480.00 595.20 C 476.98 600.09 478.48 606.15 476.44 611.35 C 475.85 613.01 474.14 613.79 472.87 614.85 C 467.41 604.44 463.86 593.15 459.96 582.10 C 445.83 539.54 436.70 495.59 426.08 452.09 C 423.80 441.87 421.63 431.53 421.36 421.03 C 421.20 414.76 422.20 408.19 426.02 403.04 C 432.03 393.43 441.22 384.61 441.59 372.59 C 436.15 374.68 431.71 378.59 427.71 382.71 C 416.01 395.03 407.62 409.94 397.38 423.41 C 392.07 430.35 385.50 436.23 380.24 443.22 C 377.70 446.52 376.20 451.40 378.92 455.06 C 380.32 457.87 384.01 459.54 383.99 462.93 C 384.12 554.26 382.21 645.80 390.07 736.90 C 394.22 783.10 400.92 829.31 414.18 873.86 C 420.95 896.69 429.91 918.86 440.97 939.96 C 429.36 925.51 420.37 909.16 412.50 892.44 C 397.50 860.98 386.64 827.72 377.96 794.01 C 365.86 746.48 358.60 697.85 353.95 649.07 C 349.08 597.53 347.00 545.76 346.19 494.01 C 345.71 470.13 345.51 446.24 345.70 422.36 C 349.38 422.75 353.01 424.26 356.74 423.81 C 359.36 422.59 361.37 420.41 363.51 418.51 C 383.93 399.45 399.05 375.67 418.21 355.46 C 401.16 362.82 382.67 365.65 364.98 370.97 C 354.63 374.15 347.42 382.65 339.73 389.74 C 310.33 412.99 277.57 431.68 248.86 455.84 C 240.52 462.48 233.26 470.38 224.66 476.68 C 216.13 483.39 208.16 490.85 201.17 499.15 C 195.58 505.90 190.62 513.93 190.31 522.93 C 190.18 533.65 192.27 544.27 192.03 555.01 C 192.21 646.32 208.07 737.81 240.92 823.11 C 243.15 829.18 245.86 835.07 247.86 841.23 C 242.75 832.96 238.16 824.37 232.68 816.33 C 227.42 806.35 223.01 795.93 218.38 785.65 C 201.54 747.26 187.48 707.61 177.09 666.98 C 160.85 603.63 153.43 538.11 153.72 472.75 C 158.42 475.57 163.32 478.76 168.99 478.83 C 177.42 479.15 184.63 473.92 190.82 468.82 C 197.44 462.87 205.33 458.67 212.64 453.68 C 246.90 431.55 281.19 409.02 311.20 381.21 C 317.96 375.29 323.97 368.58 330.92 362.89 C 337.06 357.64 342.24 350.67 350.18 348.05 C 355.15 347.25 360.01 349.56 365.01 349.36 C 384.13 349.68 401.35 340.22 418.09 332.19 C 408.16 330.19 398.04 329.42 387.94 328.80 C 350.66 327.14 312.88 329.16 276.65 338.67 C 253.03 344.73 230.30 354.14 209.31 366.55 C 197.56 353.40 182.37 343.78 171.06 330.22 C 177.28 321.77 180.93 311.81 183.79 301.80 C 187.71 288.19 190.29 274.25 193.45 260.45 C 195.20 252.79 195.79 244.85 198.41 237.40 C 201.17 230.11 202.74 222.45 205.04 215.01 C 216.69 174.65 231.10 134.92 250.79 97.74 C 261.47 77.67 273.42 58.24 286.98 39.98 C 273.20 67.89 259.17 95.74 247.72 124.71 C 230.39 167.66 218.27 212.85 213.55 258.99 C 211.34 281.29 210.32 303.75 211.26 326.15 C 236.43 319.31 262.41 316.33 288.25 313.35 C 311.26 310.86 334.32 308.93 357.41 307.48 C 379.17 305.90 400.41 312.71 422.10 312.88 C 417.46 304.81 414.10 295.97 408.56 288.45 C 403.07 280.86 393.12 277.37 384.01 278.92 C 368.44 281.29 352.66 279.91 337.00 279.77 C 323.91 279.66 310.67 279.20 297.77 281.78 C 293.38 282.56 289.41 284.73 285.92 287.43 C 279.32 280.92 270.71 277.17 263.51 271.46 C 260.34 268.68 256.60 264.92 257.54 260.30 C 259.81 246.35 264.08 232.83 268.51 219.44 C 270.83 211.74 273.66 204.21 276.70 196.77 C 292.26 142.21 312.04 88.88 335.03 37.03 Z" />
</g>
</svg>
