<?xml version="1.0" encoding="UTF-8" ?>
<!DOCTYPE svg PUBLIC "-//W3C//DTD SVG 1.1//EN" "http://www.w3.org/Graphics/SVG/1.1/DTD/svg11.dtd">
<svg width="200pt" height="200pt" viewBox="-3 -3 435 435" version="1.1" xmlns="http://www.w3.org/2000/svg">
<!-- <svg width="320pt" height="320pt" viewBox="0 0 320 320" version="1.1" xmlns="http://www.w3.org/2000/svg"> -->
<g id="#fff000ff">
<path fill="#fff000" opacity="1.00" d=" M 91.29 18.30 C 131.28 -1.35 179.77 -2.38 220.65 15.27 C 246.91 26.54 270.20 44.99 286.76 68.32 C 293.61 77.29 298.60 87.47 303.52 97.57 C 307.83 108.38 311.50 119.50 313.68 130.95 C 314.26 135.42 314.92 139.87 315.63 144.32 C 316.22 153.89 316.32 163.50 315.78 173.08 C 313.95 192.74 308.62 212.12 299.73 229.76 C 292.55 244.17 282.99 257.29 271.99 269.02 C 250.99 290.47 223.89 305.91 194.67 312.82 C 170.51 318.05 145.03 318.24 121.02 312.01 C 107.56 308.77 94.72 303.39 82.62 296.71 C 82.51 296.66 82.31 296.55 82.20 296.50 C 58.07 282.70 37.33 262.60 23.49 238.41 C 10.34 216.23 3.38 190.67 2.27 164.98 C 1.54 134.45 9.26 103.46 25.60 77.54 C 41.29 52.11 64.28 31.15 91.29 18.30 M 59.41 50.36 C 58.74 53.24 58.09 56.66 60.13 59.16 C 61.39 58.91 62.76 58.48 63.21 57.12 C 64.96 53.43 66.35 48.57 63.81 44.91 C 61.17 45.27 60.05 48.10 59.41 50.36 M 84.32 52.32 C 80.99 55.62 77.30 60.06 78.80 65.10 C 84.78 65.88 89.42 61.09 93.01 56.98 C 95.26 54.26 98.16 50.40 95.90 46.84 C 91.28 46.10 87.45 49.40 84.32 52.32 M 46.13 76.00 C 45.31 79.79 46.97 83.38 47.55 87.05 C 47.77 92.37 47.50 97.70 47.61 103.02 C 48.06 107.46 43.95 110.61 43.82 114.97 C 43.12 119.82 44.56 126.91 50.27 127.86 C 57.40 129.13 62.38 121.33 62.48 115.01 C 63.49 110.56 58.37 105.60 62.84 102.04 C 66.69 108.28 70.02 114.83 73.83 121.09 C 75.36 123.95 77.59 126.66 77.71 130.04 C 78.40 140.44 82.54 150.65 89.58 158.36 C 91.10 160.16 93.58 160.29 95.72 159.80 C 96.72 157.68 97.29 155.33 97.08 152.98 C 96.26 143.58 92.59 134.56 86.84 127.11 C 84.21 124.00 84.13 119.74 83.05 115.99 C 81.84 110.00 79.95 104.16 79.08 98.11 C 82.14 99.89 84.60 102.49 87.43 104.61 C 93.90 109.99 100.62 115.07 106.90 120.68 C 106.41 127.91 108.45 135.23 110.92 142.00 C 112.18 145.33 114.91 150.23 119.23 148.40 C 123.66 145.94 124.51 140.40 126.02 136.01 C 131.82 141.23 138.60 145.36 143.66 151.37 C 154.92 164.32 168.48 175.19 183.48 183.49 C 187.15 185.31 191.20 187.49 195.42 186.40 C 196.78 182.56 193.82 179.22 191.70 176.35 C 179.41 161.64 163.82 149.89 146.80 141.18 C 140.28 136.46 134.27 131.06 127.95 126.08 C 129.59 110.58 129.72 94.42 124.58 79.52 C 123.12 76.38 121.84 71.91 117.87 71.30 C 114.69 71.01 112.84 74.19 111.61 76.64 C 107.11 86.47 106.41 97.47 105.85 108.11 C 98.70 102.01 91.22 96.28 84.04 90.22 C 87.54 90.23 91.06 90.86 94.55 90.38 C 96.94 90.03 99.44 87.73 98.01 85.19 C 95.81 81.76 91.73 80.56 88.38 78.63 C 87.73 76.16 91.78 75.31 93.57 76.22 C 98.56 78.15 104.33 76.87 108.29 73.35 C 110.90 70.93 110.93 66.13 107.99 63.96 C 105.20 61.81 101.39 61.58 98.02 62.05 C 94.64 62.61 92.27 65.58 89.04 66.39 C 85.00 66.23 80.98 65.78 76.94 65.63 C 72.26 65.78 68.68 61.93 64.03 61.88 C 55.56 60.86 47.05 67.48 46.13 76.00 M 200.50 71.55 C 198.23 73.01 197.06 75.59 195.97 77.96 C 191.95 87.78 191.29 98.50 190.95 108.97 C 190.93 120.22 191.95 131.65 195.94 142.26 C 196.85 144.69 198.34 146.98 200.49 148.48 C 203.89 149.79 206.74 147.00 208.04 144.13 C 211.23 137.46 212.51 130.05 213.41 122.77 C 214.37 110.43 214.30 97.85 211.46 85.75 C 210.33 81.50 209.04 77.16 206.44 73.55 C 205.14 71.68 202.68 70.73 200.50 71.55 M 29.43 80.44 C 29.39 81.03 29.29 82.20 29.24 82.79 C 33.23 84.29 38.08 82.77 40.99 79.77 C 42.24 78.25 40.22 77.05 38.85 77.14 C 35.43 77.05 32.24 78.63 29.43 80.44 M 40.68 90.69 C 37.68 93.29 34.19 96.82 34.91 101.15 C 36.45 101.54 38.08 101.39 39.31 100.31 C 42.78 97.73 46.11 93.88 45.74 89.28 C 43.95 89.28 42.01 89.30 40.68 90.69 M 78.59 211.54 C 74.07 214.89 71.21 219.93 68.71 224.87 C 66.64 229.53 64.36 234.56 65.37 239.79 C 70.62 241.33 73.22 235.14 76.09 231.95 C 82.22 237.08 89.00 241.42 96.27 244.76 C 119.51 255.60 145.64 258.88 171.07 257.73 C 194.79 256.63 218.82 250.94 238.94 237.93 C 241.32 236.32 243.38 234.26 245.95 232.93 C 249.13 235.31 252.09 240.76 256.71 238.89 C 257.62 231.28 252.38 224.67 248.08 218.92 C 245.17 215.96 241.94 210.81 237.18 212.14 C 235.35 216.58 239.39 220.31 239.72 224.53 C 211.91 242.56 177.50 246.82 145.06 244.25 C 122.53 242.19 99.63 236.15 81.07 222.76 C 81.69 218.93 83.34 215.22 82.54 211.27 C 81.20 211.02 79.79 210.65 78.59 211.54 Z" />
</g>
<g id="#8f0102ff">
<path fill="#8f0102" opacity="1.00" d=" M 59.41 50.36 C 60.05 48.10 61.17 45.27 63.81 44.91 C 66.35 48.57 64.96 53.43 63.21 57.12 C 62.76 58.48 61.39 58.91 60.13 59.16 C 58.09 56.66 58.74 53.24 59.41 50.36 Z" />
<path fill="#8f0102" opacity="1.00" d=" M 84.32 52.32 C 87.45 49.40 91.28 46.10 95.90 46.84 C 98.16 50.40 95.26 54.26 93.01 56.98 C 89.42 61.09 84.78 65.88 78.80 65.10 C 77.30 60.06 80.99 55.62 84.32 52.32 Z" />
<path fill="#8f0102" opacity="1.00" d=" M 46.13 76.00 C 47.05 67.48 55.56 60.86 64.03 61.88 C 68.68 61.93 72.26 65.78 76.94 65.63 C 80.98 65.78 85.00 66.23 89.04 66.39 C 92.27 65.58 94.64 62.61 98.02 62.05 C 101.39 61.58 105.20 61.81 107.99 63.96 C 110.93 66.13 110.90 70.93 108.29 73.35 C 104.33 76.87 98.56 78.15 93.57 76.22 C 91.78 75.31 87.73 76.16 88.38 78.63 C 91.73 80.56 95.81 81.76 98.01 85.19 C 99.44 87.73 96.94 90.03 94.55 90.38 C 91.06 90.86 87.54 90.23 84.04 90.22 C 91.22 96.28 98.70 102.01 105.85 108.11 C 113.02 114.33 120.86 119.76 127.95 126.08 C 134.27 131.06 140.28 136.46 146.80 141.18 C 163.82 149.89 179.41 161.64 191.70 176.35 C 193.82 179.22 196.78 182.56 195.42 186.40 C 191.20 187.49 187.15 185.31 183.48 183.49 C 168.48 175.19 154.92 164.32 143.66 151.37 C 138.60 145.36 131.82 141.23 126.02 136.01 C 119.87 130.62 113.39 125.64 106.90 120.68 C 100.62 115.07 93.90 109.99 87.43 104.61 C 84.60 102.49 82.14 99.89 79.08 98.11 C 79.95 104.16 81.84 110.00 83.05 115.99 C 84.13 119.74 84.21 124.00 86.84 127.11 C 92.59 134.56 96.26 143.58 97.08 152.98 C 97.29 155.33 96.72 157.68 95.72 159.80 C 93.58 160.29 91.10 160.16 89.58 158.36 C 82.54 150.65 78.40 140.44 77.71 130.04 C 77.59 126.66 75.36 123.95 73.83 121.09 C 70.02 114.83 66.69 108.28 62.84 102.04 C 58.37 105.60 63.49 110.56 62.48 115.01 C 62.38 121.33 57.40 129.13 50.27 127.86 C 44.56 126.91 43.12 119.82 43.82 114.97 C 43.95 110.61 48.06 107.46 47.61 103.02 C 47.50 97.70 47.77 92.37 47.55 87.05 C 46.97 83.38 45.31 79.79 46.13 76.00 Z" />
<path fill="#8f0102" opacity="1.00" d=" M 29.43 80.44 C 32.24 78.63 35.43 77.05 38.85 77.14 C 40.22 77.05 42.24 78.25 40.99 79.77 C 38.08 82.77 33.23 84.29 29.24 82.79 C 29.29 82.20 29.39 81.03 29.43 80.44 Z" />
<path fill="#8f0102" opacity="1.00" d=" M 40.68 90.69 C 42.01 89.30 43.95 89.28 45.74 89.28 C 46.11 93.88 42.78 97.73 39.31 100.31 C 38.08 101.39 36.45 101.54 34.91 101.15 C 34.19 96.82 37.68 93.29 40.68 90.69 Z" />
<path fill="#8f0102" opacity="1.00" d=" M 82.20 296.50 C 82.31 296.55 82.51 296.66 82.62 296.71 C 82.51 296.66 82.31 296.55 82.20 296.50 Z" />
</g>
<g id="#010102ff">
<path fill="#010102" opacity="1.00" d=" M 111.61 76.64 C 112.84 74.19 114.69 71.01 117.87 71.30 C 121.84 71.91 123.12 76.38 124.58 79.52 C 129.72 94.42 129.59 110.58 127.95 126.08 C 120.86 119.76 113.02 114.33 105.85 108.11 C 106.41 97.47 107.11 86.47 111.61 76.64 Z" />
<path fill="#010102" opacity="1.00" d=" M 200.50 71.55 C 202.68 70.73 205.14 71.68 206.44 73.55 C 209.04 77.16 210.33 81.50 211.46 85.75 C 214.30 97.85 214.37 110.43 213.41 122.77 C 212.51 130.05 211.23 137.46 208.04 144.13 C 206.74 147.00 203.89 149.79 200.49 148.48 C 198.34 146.98 196.85 144.69 195.94 142.26 C 191.95 131.65 190.93 120.22 190.95 108.97 C 191.29 98.50 191.95 87.78 195.97 77.96 C 197.06 75.59 198.23 73.01 200.50 71.55 Z" />
<path fill="#010102" opacity="1.00" d=" M 106.90 120.68 C 113.39 125.64 119.87 130.62 126.02 136.01 C 124.51 140.40 123.66 145.94 119.23 148.40 C 114.91 150.23 112.18 145.33 110.92 142.00 C 108.45 135.23 106.41 127.91 106.90 120.68 Z" />
<path fill="#010102" opacity="1.00" d=" M 78.59 211.54 C 79.79 210.65 81.20 211.02 82.54 211.27 C 83.34 215.22 81.69 218.93 81.07 222.76 C 99.63 236.15 122.53 242.19 145.06 244.25 C 177.50 246.82 211.91 242.56 239.72 224.53 C 239.39 220.31 235.35 216.58 237.18 212.14 C 241.94 210.81 245.17 215.96 248.08 218.92 C 252.38 224.67 257.62 231.28 256.71 238.89 C 252.09 240.76 249.13 235.31 245.95 232.93 C 243.38 234.26 241.32 236.32 238.94 237.93 C 218.82 250.94 194.79 256.63 171.07 257.73 C 145.64 258.88 119.51 255.60 96.27 244.76 C 89.00 241.42 82.22 237.08 76.09 231.95 C 73.22 235.14 70.62 241.33 65.37 239.79 C 64.36 234.56 66.64 229.53 68.71 224.87 C 71.21 219.93 74.07 214.89 78.59 211.54 Z" />
</g>
</svg>
