<?xml version="1.0" encoding="UTF-8" ?>
<!DOCTYPE svg PUBLIC "-//W3C//DTD SVG 1.1//EN" "http://www.w3.org/Graphics/SVG/1.1/DTD/svg11.dtd">
<svg width="160pt" height="160pt" viewBox="5 -25 521 354" version="1.1" xmlns="http://www.w3.org/2000/svg">
<!-- <svg width="521pt" height="354pt" viewBox="0 0 521 354" version="1.1" xmlns="http://www.w3.org/2000/svg"> -->
<g id="#010000ff">
<path fill="#010000" opacity="1.00" d=" M 95.03 12.03 C 97.41 9.69 99.53 7.06 102.19 5.01 C 105.74 4.34 109.40 4.78 113.00 4.68 C 206.02 4.69 299.05 4.69 392.07 4.69 C 393.49 4.71 395.08 4.75 396.04 5.99 C 419.72 29.96 443.26 54.08 466.99 78.00 C 469.25 80.40 471.83 82.54 473.76 85.22 C 474.13 86.44 472.65 87.20 472.13 88.14 C 399.74 171.42 327.42 254.75 255.03 338.03 C 252.97 340.29 251.22 342.86 248.85 344.82 C 247.61 345.00 246.98 343.55 246.15 342.90 C 209.84 300.88 173.33 259.04 136.90 217.13 C 98.91 173.28 60.83 129.52 22.76 85.74 C 25.04 83.04 27.51 80.50 30.00 77.99 C 51.79 56.11 73.33 33.99 95.03 12.03 M 101.43 17.42 C 78.98 40.25 56.46 63.00 34.13 85.94 C 103.87 166.50 173.90 246.79 243.68 327.31 C 245.37 328.90 246.57 331.64 248.88 332.19 C 261.10 318.64 272.84 304.63 284.90 290.93 C 344.22 222.57 403.69 154.34 462.92 85.90 C 439.51 62.05 416.11 38.19 392.60 14.45 C 391.74 13.34 390.34 13.21 389.05 13.21 C 295.35 13.21 201.65 13.21 107.95 13.21 C 104.97 12.82 103.35 15.69 101.43 17.42 Z" />
<path fill="#010000" opacity="1.00" d=" M 109.38 34.37 C 111.58 32.35 113.51 28.97 116.98 29.54 C 131.39 29.66 145.81 29.44 160.23 29.65 C 154.28 32.89 147.98 35.51 142.41 39.41 C 122.97 52.38 106.48 71.05 99.48 93.65 C 95.99 104.14 95.36 115.31 95.85 126.27 C 83.57 112.78 71.50 99.07 59.60 85.24 C 76.16 68.25 92.76 51.31 109.38 34.37 M 117.49 38.50 C 101.85 54.06 86.43 69.88 71.17 85.82 C 77.05 91.84 82.05 98.69 88.22 104.44 C 92.11 77.91 108.47 54.72 129.17 38.32 C 125.28 38.34 121.35 37.95 117.49 38.50 Z" />
<path fill="#010000" opacity="1.00" d=" M 317.16 29.76 C 329.88 29.40 342.62 29.57 355.35 29.67 C 355.65 41.08 350.95 52.93 341.14 59.30 C 338.05 53.76 334.51 48.47 330.28 43.73 C 326.24 38.76 321.24 34.69 317.16 29.76 M 336.92 38.32 C 338.72 40.48 340.41 42.75 342.30 44.84 C 345.02 44.35 344.84 40.43 346.06 38.37 C 343.01 38.24 339.96 38.24 336.92 38.32 Z" />
<path fill="#010000" opacity="1.00" d=" M 180.86 42.89 C 194.96 36.14 210.53 33.04 226.01 31.70 C 238.91 31.07 251.89 31.99 264.61 34.21 C 280.24 36.98 296.00 43.15 306.96 55.04 C 315.49 64.05 320.08 76.06 322.04 88.16 C 343.64 88.41 365.25 88.41 386.85 88.16 C 387.77 70.28 386.89 52.34 387.31 34.43 C 391.50 37.98 395.10 42.14 399.01 45.99 C 411.89 58.99 424.59 72.17 437.41 85.23 C 418.78 106.96 399.65 128.27 380.79 149.81 C 377.46 144.10 374.18 138.25 369.44 133.56 C 357.63 121.55 341.43 115.17 325.31 111.43 C 310.50 107.86 295.23 106.68 280.04 106.22 C 262.70 104.73 245.36 106.84 228.00 106.44 C 212.79 105.84 197.33 104.98 182.80 100.04 C 175.56 97.36 168.32 93.76 163.38 87.64 C 157.55 80.52 155.39 70.00 159.57 61.57 C 163.79 52.75 172.32 47.03 180.86 42.89 M 222.63 40.62 C 206.95 42.28 191.05 46.05 177.55 54.49 C 171.66 58.38 165.43 64.30 166.20 72.02 C 166.17 79.50 172.02 85.36 178.21 88.70 C 189.68 94.66 202.75 96.26 215.46 97.32 C 244.64 98.52 273.95 95.71 303.02 99.12 C 322.39 101.22 341.98 105.34 359.11 114.99 C 368.10 119.95 375.75 126.99 382.04 135.05 C 385.54 131.86 388.45 128.10 391.59 124.57 C 403.07 111.71 414.26 98.59 425.86 85.83 C 415.90 75.51 406.13 64.97 395.70 55.14 C 395.43 68.97 395.61 82.81 395.60 96.64 C 368.59 96.64 341.58 96.66 314.56 96.63 C 313.17 87.25 311.83 77.53 306.76 69.29 C 299.59 56.19 285.81 48.27 271.75 44.53 C 255.80 40.18 239.06 39.80 222.63 40.62 Z" />
<path fill="#010000" opacity="1.00" d=" M 117.96 151.30 C 136.82 159.54 157.72 160.97 178.00 162.43 C 190.99 163.45 204.02 163.33 217.01 164.29 C 225.68 164.46 234.36 164.50 243.00 165.35 C 253.47 165.32 263.88 166.44 274.33 166.81 C 291.40 168.30 308.85 169.09 325.15 174.87 C 330.85 176.99 337.28 181.17 337.27 187.98 C 336.82 195.69 329.80 200.51 323.37 203.37 C 307.50 210.28 289.98 211.70 272.95 213.36 C 263.27 213.65 253.64 214.72 243.95 214.51 C 236.00 202.91 223.95 194.37 210.47 190.46 C 198.47 186.77 184.52 185.80 173.24 192.17 C 168.72 194.54 166.10 199.06 163.96 203.50 C 153.66 192.30 143.81 180.70 133.65 169.37 C 128.49 163.29 122.89 157.57 117.96 151.30 M 143.59 167.43 C 149.71 174.96 156.29 182.10 162.81 189.27 C 174.06 178.95 190.52 177.75 204.91 180.30 C 220.93 183.44 236.36 191.51 246.79 204.27 C 247.49 205.37 248.70 205.87 249.98 205.68 C 266.77 205.47 283.63 204.42 300.16 201.36 C 308.42 199.42 317.07 197.89 324.38 193.33 C 326.68 191.78 329.68 189.26 328.37 186.13 C 325.71 182.46 321.05 181.25 316.87 180.24 C 304.75 177.55 292.33 176.80 280.00 175.64 C 254.03 174.21 228.05 172.92 202.05 172.29 C 195.72 171.61 189.36 171.58 183.01 171.41 C 169.84 170.45 156.66 169.43 143.59 167.43 Z" />
<path fill="#010000" opacity="1.00" d=" M 271.07 237.57 C 283.62 236.82 295.90 234.02 308.27 231.98 C 288.78 254.80 268.68 277.13 248.90 299.71 C 230.57 279.50 212.76 258.79 194.58 238.44 C 193.05 236.71 191.55 234.95 190.12 233.14 C 216.79 237.83 244.05 240.06 271.07 237.57 M 212.02 245.14 C 224.21 259.15 236.50 273.08 248.89 286.91 C 261.00 272.69 273.80 259.04 285.68 244.63 C 273.18 246.24 260.59 246.86 248.00 247.23 C 235.99 246.91 223.99 246.24 212.02 245.14 Z" />
</g>
<g id="#ff0000ff">
<path fill="#ff0000" opacity="1.00" d=" M 101.43 17.42 C 103.35 15.69 104.97 12.82 107.95 13.21 C 201.65 13.21 295.35 13.21 389.05 13.21 C 390.34 13.21 391.74 13.34 392.60 14.45 C 416.11 38.19 439.51 62.05 462.92 85.90 C 403.69 154.34 344.22 222.57 284.90 290.93 C 272.84 304.63 261.10 318.64 248.88 332.19 C 246.57 331.64 245.37 328.90 243.68 327.31 C 173.90 246.79 103.87 166.50 34.13 85.94 C 56.46 63.00 78.98 40.25 101.43 17.42 M 109.38 34.37 C 92.76 51.31 76.16 68.25 59.60 85.24 C 71.50 99.07 83.57 112.78 95.85 126.27 C 95.36 115.31 95.99 104.14 99.48 93.65 C 106.48 71.05 122.97 52.38 142.41 39.41 C 147.98 35.51 154.28 32.89 160.23 29.65 C 145.81 29.44 131.39 29.66 116.98 29.54 C 113.51 28.97 111.58 32.35 109.38 34.37 M 317.16 29.76 C 321.24 34.69 326.24 38.76 330.28 43.73 C 334.51 48.47 338.05 53.76 341.14 59.30 C 350.95 52.93 355.65 41.08 355.35 29.67 C 342.62 29.57 329.88 29.40 317.16 29.76 M 180.86 42.89 C 172.32 47.03 163.79 52.75 159.57 61.57 C 155.39 70.00 157.55 80.52 163.38 87.64 C 168.32 93.76 175.56 97.36 182.80 100.04 C 197.33 104.98 212.79 105.84 228.00 106.44 C 245.36 106.84 262.70 104.73 280.04 106.22 C 295.23 106.68 310.50 107.86 325.31 111.43 C 341.43 115.17 357.63 121.55 369.44 133.56 C 374.18 138.25 377.46 144.10 380.79 149.81 C 399.65 128.27 418.78 106.96 437.41 85.23 C 424.59 72.17 411.89 58.99 399.01 45.99 C 395.10 42.14 391.50 37.98 387.31 34.43 C 386.89 52.34 387.77 70.28 386.85 88.16 C 365.25 88.41 343.64 88.41 322.04 88.16 C 320.08 76.06 315.49 64.05 306.96 55.04 C 296.00 43.15 280.24 36.98 264.61 34.21 C 251.89 31.99 238.91 31.07 226.01 31.70 C 210.53 33.04 194.96 36.14 180.86 42.89 M 117.96 151.30 C 122.89 157.57 128.49 163.29 133.65 169.37 C 143.81 180.70 153.66 192.30 163.96 203.50 C 166.10 199.06 168.72 194.54 173.24 192.17 C 184.52 185.80 198.47 186.77 210.47 190.46 C 223.95 194.37 236.00 202.91 243.95 214.51 C 253.64 214.72 263.27 213.65 272.95 213.36 C 289.98 211.70 307.50 210.28 323.37 203.37 C 329.80 200.51 336.82 195.69 337.27 187.98 C 337.28 181.17 330.85 176.99 325.15 174.87 C 308.85 169.09 291.40 168.30 274.33 166.81 C 263.88 166.44 253.47 165.32 243.00 165.35 C 234.36 164.50 225.68 164.46 217.01 164.29 C 204.02 163.33 190.99 163.45 178.00 162.43 C 157.72 160.97 136.82 159.54 117.96 151.30 M 271.07 237.57 C 244.05 240.06 216.79 237.83 190.12 233.14 C 191.55 234.95 193.05 236.71 194.58 238.44 C 212.76 258.79 230.57 279.50 248.90 299.71 C 268.68 277.13 288.78 254.80 308.27 231.98 C 295.90 234.02 283.62 236.82 271.07 237.57 Z" />
</g>
<g id="#ffff00ff">
<path fill="#ffff00" opacity="1.00" d=" M 117.49 38.50 C 121.35 37.95 125.28 38.34 129.17 38.32 C 108.47 54.72 92.11 77.91 88.22 104.44 C 82.05 98.69 77.05 91.84 71.17 85.82 C 86.43 69.88 101.85 54.06 117.49 38.50 Z" />
<path fill="#ffff00" opacity="1.00" d=" M 336.92 38.32 C 339.96 38.24 343.01 38.24 346.06 38.37 C 344.84 40.43 345.02 44.35 342.30 44.84 C 340.41 42.75 338.72 40.48 336.92 38.32 Z" />
<path fill="#ffff00" opacity="1.00" d=" M 222.63 40.62 C 239.06 39.80 255.80 40.18 271.75 44.53 C 285.81 48.27 299.59 56.19 306.76 69.29 C 311.83 77.53 313.17 87.25 314.56 96.63 C 341.58 96.66 368.59 96.64 395.60 96.64 C 395.61 82.81 395.43 68.97 395.70 55.14 C 406.13 64.97 415.90 75.51 425.86 85.83 C 414.26 98.59 403.07 111.71 391.59 124.57 C 388.45 128.10 385.54 131.86 382.04 135.05 C 375.75 126.99 368.10 119.95 359.11 114.99 C 341.98 105.34 322.39 101.22 303.02 99.12 C 273.95 95.71 244.64 98.52 215.46 97.32 C 202.75 96.26 189.68 94.66 178.21 88.70 C 172.02 85.36 166.17 79.50 166.20 72.02 C 165.43 64.30 171.66 58.38 177.55 54.49 C 191.05 46.05 206.95 42.28 222.63 40.62 Z" />
<path fill="#ffff00" opacity="1.00" d=" M 143.59 167.43 C 156.66 169.43 169.84 170.45 183.01 171.41 C 189.36 171.58 195.72 171.61 202.05 172.29 C 228.05 172.92 254.03 174.21 280.00 175.64 C 292.33 176.80 304.75 177.55 316.87 180.24 C 321.05 181.25 325.71 182.46 328.37 186.13 C 329.68 189.26 326.68 191.78 324.38 193.33 C 317.07 197.89 308.42 199.42 300.16 201.36 C 283.63 204.42 266.77 205.47 249.98 205.68 C 248.70 205.87 247.49 205.37 246.79 204.27 C 236.36 191.51 220.93 183.44 204.91 180.30 C 190.52 177.75 174.06 178.95 162.81 189.27 C 156.29 182.10 149.71 174.96 143.59 167.43 Z" />
<path fill="#ffff00" opacity="1.00" d=" M 212.02 245.14 C 223.99 246.24 235.99 246.91 248.00 247.23 C 260.59 246.86 273.18 246.24 285.68 244.63 C 273.80 259.04 261.00 272.69 248.89 286.91 C 236.50 273.08 224.21 259.15 212.02 245.14 Z" />
</g>
</svg>
